<?xml version="1.0" encoding="utf-8"?>
<!-- Generator: Adobe Illustrator 22.1.0, SVG Export Plug-In . SVG Version: 6.00 Build 0)  -->
<svg version="1.1" id="Layer_1" xmlns="http://www.w3.org/2000/svg" xmlns:xlink="http://www.w3.org/1999/xlink" x="0px" y="0px"
	 viewBox="0 0 819.8 869.9" style="enable-background:new 0 0 819.8 869.9;" xml:space="preserve">
<style type="text/css">
	.st0{fill:#D8D0BB;}
	.st1{fill:#666666;}
	.st2{fill:#4D4D4D;}
	.st3{fill:#B3B3B3;}
</style>
<g>
	<g>
		<defs>
			<rect id="SVGID_1_" width="152.6" height="860.6"/>
		</defs>
		<clipPath id="SVGID_2_">
			<use xlink:href="#SVGID_1_"  style="overflow:visible;"/>
		</clipPath>
	</g>
</g>
<g>
	<path class="st0" d="M65.6,9.2c0.2,0,0.4,0,0.6,0c0.3,0,0.5,0,0.8,0H65.6z"/>
	<path class="st0" d="M777.6,9.2H68.7c-0.5,0-1,0-1.5,0.1c-0.3,0-0.6,0-0.9-0.1C54.3,9.7,44.7,19.4,44.7,31.5v816.2
		c0,12,9.5,21.8,21.4,22.2c0.3,0,0.6,0,0.9-0.1c0.5,0,1,0.1,1.5,0.1h708.9c12.3,0,22.2-10,22.2-22.3V31.5
		C799.9,19.2,789.9,9.2,777.6,9.2z M778.4,830.6H84V30.1h694.4V830.6z"/>
	<path class="st0" d="M67,869.9c-0.3,0-0.5,0-0.8,0c-0.2,0-0.4,0-0.6,0H67z"/>
</g>
<path class="st1" d="M785.7,0H76.7C64.4,0,54.5,10,54.5,22.3v816.2c0,12.3,10,22.3,22.3,22.3h708.9c12.3,0,22.3-10,22.3-22.3V22.3
	C807.9,10,797.9,0,785.7,0z M778.4,830.6H84V30.1h694.4V830.6z"/>
<g>
	<path class="st2" d="M122.8,105.9c0,6.6-5.4,12-12,12c-6.6,0-12-5.4-12-12c0-6.6,5.4-12,12-12C117.4,93.9,122.8,99.3,122.8,105.9"
		/>
	<path class="st2" d="M122.8,149.1c0,6.6-5.4,12-12,12c-6.6,0-12-5.4-12-12c0-6.6,5.4-12,12-12C117.4,137.1,122.8,142.5,122.8,149.1
		"/>
	<path class="st2" d="M122.8,192.3c0,6.6-5.4,12-12,12c-6.6,0-12-5.4-12-12c0-6.6,5.4-12,12-12C117.4,180.3,122.8,185.6,122.8,192.3
		"/>
	<path class="st2" d="M122.8,674.2c0,6.6-5.4,12-12,12c-6.6,0-12-5.4-12-12c0-6.6,5.4-12,12-12C117.4,662.2,122.8,667.6,122.8,674.2
		"/>
	<path class="st2" d="M122.8,717.4c0,6.6-5.4,12-12,12c-6.6,0-12-5.4-12-12c0-6.6,5.4-12,12-12C117.4,705.4,122.8,710.8,122.8,717.4
		"/>
	<path class="st2" d="M122.8,760.6c0,6.6-5.4,12-12,12c-6.6,0-12-5.4-12-12c0-6.6,5.4-12,12-12C117.4,748.6,122.8,753.9,122.8,760.6
		"/>
	<path class="st3" d="M107.7,111.7h-62c-4.6,0-8.4-3.7-8.4-8.4c0-4.6,3.7-8.4,8.4-8.4h62c4.6,0,8.4,3.7,8.4,8.4
		C116,107.9,112.3,111.7,107.7,111.7"/>
	<path class="st3" d="M107.7,154.8h-62c-4.6,0-8.4-3.7-8.4-8.4c0-4.6,3.7-8.4,8.4-8.4h62c4.6,0,8.4,3.7,8.4,8.4
		C116,151.1,112.3,154.8,107.7,154.8"/>
	<path class="st3" d="M107.7,198h-62c-4.6,0-8.4-3.7-8.4-8.4c0-4.6,3.7-8.4,8.4-8.4h62c4.6,0,8.4,3.7,8.4,8.4
		C116,194.3,112.3,198,107.7,198"/>
	<path class="st3" d="M107.7,680h-62c-4.6,0-8.4-3.7-8.4-8.4c0-4.6,3.7-8.4,8.4-8.4h62c4.6,0,8.4,3.7,8.4,8.4
		C116,676.2,112.3,680,107.7,680"/>
	<path class="st3" d="M107.7,723.1h-62c-4.6,0-8.4-3.7-8.4-8.4c0-4.6,3.7-8.4,8.4-8.4h62c4.6,0,8.4,3.7,8.4,8.4
		C116,719.4,112.3,723.1,107.7,723.1"/>
	<path class="st3" d="M107.7,766.3h-62c-4.6,0-8.4-3.7-8.4-8.4c0-4.6,3.7-8.4,8.4-8.4h62c4.6,0,8.4,3.7,8.4,8.4
		C116,762.6,112.3,766.3,107.7,766.3"/>
</g>
</svg>
