<?xml version="1.0" encoding="utf-8"?>
<!-- Generator: Adobe Illustrator 22.1.0, SVG Export Plug-In . SVG Version: 6.00 Build 0)  -->
<svg version="1.1" id="Layer_1" xmlns="http://www.w3.org/2000/svg" xmlns:xlink="http://www.w3.org/1999/xlink" x="0px" y="0px"
	 viewBox="0 0 141.3 135.5" style="enable-background:new 0 0 141.3 135.5;" xml:space="preserve">
<style type="text/css">
	.st0{fill:#FFC100;}
	.st1{fill:#F15A24;}
	.st2{fill:#0071BC;}
	.st3{fill:#C9C928;}
	.st4{fill:#FFFFFF;}
</style>
<g>
	<path class="st0" d="M52.2,104c0,0-0.5-51.2,31.2-72.5c31.7-21.4,55.2,4.8,52.6,25.1c-2,15.3-14.4,28.3-43,24.1
		C64.4,76.4,52.2,104,52.2,104"/>
	<path class="st1" d="M63,107.1c0,0,25.3-12.6,42.6-2.6c17.2,10,8.6,29.5-2.4,30.7c-11,1.2-11.9-3.6-19.5-14.2
		C76.2,110.5,63,107.1,63,107.1"/>
	<path class="st2" d="M44.4,69.1c0,0,14.2-24.8,2.4-41.7C35.1,10.5,17.9,21.6,23,36C26.9,47,39.7,43.5,44.4,69.1"/>
	<path class="st3" d="M132.1,107.4c3-6.1,3.1-6.2,9.2-9.2c-6.1-3-6.2-3.1-9.2-9.2c-3,6.1-3.1,6.2-9.2,9.2
		C129,101.2,129,101.3,132.1,107.4"/>
	<path class="st1" d="M65,24.6c3-6.1,3.1-6.2,9.2-9.2c-6.1-3-6.2-3.1-9.2-9.2c-3,6.1-3.1,6.2-9.2,9.2C61.9,18.4,62,18.5,65,24.6"/>
	<path class="st0" d="M18.8,12.3c2-4.1,2.1-4.1,6.2-6.2c-4.1-2-4.1-2.1-6.2-6.2c-2,4.1-2.1,4.1-6.2,6.2C16.7,8.2,16.8,8.2,18.8,12.3
		"/>
	<path class="st4" d="M6.7,53.4C9,49,9,48.9,13.5,46.7C9,44.5,9,44.4,6.7,40c-2.2,4.5-2.3,4.5-6.7,6.7C4.5,48.9,4.5,49,6.7,53.4"/>
</g>
</svg>
