<?xml version="1.0" encoding="utf-8"?>
<!-- Generator: Adobe Illustrator 22.1.0, SVG Export Plug-In . SVG Version: 6.00 Build 0)  -->
<svg version="1.1" id="Layer_1" xmlns="http://www.w3.org/2000/svg" xmlns:xlink="http://www.w3.org/1999/xlink" x="0px" y="0px"
	 viewBox="0 0 889.8 739.5" style="enable-background:new 0 0 889.8 739.5;" xml:space="preserve">
<style type="text/css">
	.st0{opacity:0.5;fill-rule:evenodd;clip-rule:evenodd;fill:url(#SVGID_1_);}
	.st1{opacity:0.5;fill-rule:evenodd;clip-rule:evenodd;fill:url(#SVGID_2_);}
	.st2{opacity:0.5;fill-rule:evenodd;clip-rule:evenodd;fill:url(#SVGID_3_);}
	.st3{fill-rule:evenodd;clip-rule:evenodd;fill:#784925;}
	.st4{fill-rule:evenodd;clip-rule:evenodd;fill:#603813;}
	.st5{fill-rule:evenodd;clip-rule:evenodd;fill:#D65442;}
	.st6{fill-rule:evenodd;clip-rule:evenodd;fill:#AB3A2B;}
	.st7{fill-rule:evenodd;clip-rule:evenodd;fill:#7D96BD;}
	.st8{fill-rule:evenodd;clip-rule:evenodd;fill:#485D7C;}
	.st9{fill-rule:evenodd;clip-rule:evenodd;fill:#EDDDB9;}
	.st10{fill-rule:evenodd;clip-rule:evenodd;fill:#F7EBCD;}
	.st11{fill-rule:evenodd;clip-rule:evenodd;fill:#616D6E;}
	.st12{fill-rule:evenodd;clip-rule:evenodd;fill:#878E8F;}
	.st13{fill-rule:evenodd;clip-rule:evenodd;fill:#FFC773;}
	.st14{fill-rule:evenodd;clip-rule:evenodd;fill:#F4973A;}
	.st15{fill:#485D7C;}
	.st16{fill-rule:evenodd;clip-rule:evenodd;fill:#798CA8;}
	.st17{fill-rule:evenodd;clip-rule:evenodd;fill:#FFFFFF;}
	.st18{fill-rule:evenodd;clip-rule:evenodd;fill:#D0D0D0;}
	.st19{fill-rule:evenodd;clip-rule:evenodd;fill:#FFE1BA;}
	.st20{fill-rule:evenodd;clip-rule:evenodd;fill:#FFCD8B;}
	.st21{fill-rule:evenodd;clip-rule:evenodd;fill:#666666;}
	.st22{fill-rule:evenodd;clip-rule:evenodd;fill:#F27A6A;}
	.st23{fill:#D65442;}
	.st24{fill:#F27A6A;}
	.st25{fill-rule:evenodd;clip-rule:evenodd;fill:#C2D3ED;}
	.st26{fill-rule:evenodd;clip-rule:evenodd;fill:#E3422E;}
	.st27{fill-rule:evenodd;clip-rule:evenodd;fill:#2A8275;}
	.st28{fill-rule:evenodd;clip-rule:evenodd;fill:#1E695E;}
	.st29{fill-rule:evenodd;clip-rule:evenodd;fill:#4D4D4D;}
	.st30{fill-rule:evenodd;clip-rule:evenodd;fill:#E6E6E6;}
	.st31{fill-rule:evenodd;clip-rule:evenodd;fill:#619FAC;}
	.st32{fill-rule:evenodd;clip-rule:evenodd;fill:#2A8275;stroke:#2A8275;stroke-width:0.1842;stroke-miterlimit:22.9256;}
	.st33{fill-rule:evenodd;clip-rule:evenodd;fill:#C1EBE5;}
	.st34{fill-rule:evenodd;clip-rule:evenodd;fill:#337B9E;}
	.st35{fill-rule:evenodd;clip-rule:evenodd;fill:#004161;}
	.st36{fill-rule:evenodd;clip-rule:evenodd;fill:#E5FFFB;}
	.st37{fill-rule:evenodd;clip-rule:evenodd;fill:none;stroke:#FFFFFF;stroke-width:1.7638;stroke-miterlimit:22.9256;}
	.st38{fill:#FFC773;}
	.st39{fill:#AB3A2B;}
	.st40{fill-rule:evenodd;clip-rule:evenodd;fill:#52C7FF;}
	.st41{fill-rule:evenodd;clip-rule:evenodd;fill:#8C6239;}
	.st42{fill-rule:evenodd;clip-rule:evenodd;fill:#7DB8C4;}
	.st43{fill-rule:evenodd;clip-rule:evenodd;fill:#3A4F42;}
	.st44{fill-rule:evenodd;clip-rule:evenodd;fill:#FED65D;}
	.st45{fill-rule:evenodd;clip-rule:evenodd;fill:#BF5428;}
	.st46{fill-rule:evenodd;clip-rule:evenodd;fill:#E09D89;}
	.st47{fill-rule:evenodd;clip-rule:evenodd;fill:#F1B6A4;}
	.st48{fill-rule:evenodd;clip-rule:evenodd;fill:none;stroke:#FED65D;stroke-width:2.0433;}
	.st49{fill-rule:evenodd;clip-rule:evenodd;fill:#1A1A1A;}
	.st50{fill-rule:evenodd;clip-rule:evenodd;fill:#E8998B;}
	.st51{fill-rule:evenodd;clip-rule:evenodd;fill:#B55E4B;}
	.st52{fill-rule:evenodd;clip-rule:evenodd;fill:#534741;}
	
		.st53{fill-rule:evenodd;clip-rule:evenodd;fill:none;stroke:#FFFFFF;stroke-width:2.4521;stroke-linecap:round;stroke-linejoin:round;stroke-miterlimit:22.9256;}
	.st54{fill-rule:evenodd;clip-rule:evenodd;fill:#F15A24;}
	.st55{fill:#AAB2B3;}
	.st56{fill:#2A8275;}
	.st57{fill-rule:evenodd;clip-rule:evenodd;fill:#EF8762;}
	.st58{fill-rule:evenodd;clip-rule:evenodd;fill:#3F9185;}
	.st59{fill-rule:evenodd;clip-rule:evenodd;fill:#4DAB9D;stroke:#2A8275;stroke-width:0.216;stroke-miterlimit:22.9256;}
	.st60{fill-rule:evenodd;clip-rule:evenodd;fill:none;stroke:#FFFFFF;stroke-width:2.4001;stroke-miterlimit:22.9256;}
	.st61{fill-rule:evenodd;clip-rule:evenodd;fill:#4DAB9D;}
	.st62{fill-rule:evenodd;clip-rule:evenodd;fill:#FFFFFF;stroke:#808080;}
	.st63{fill-rule:evenodd;clip-rule:evenodd;fill:#F9A818;}
	.st64{fill-rule:evenodd;clip-rule:evenodd;fill:#B3B3B3;}
	.st65{fill:#333333;}
	.st66{font-family:'Axis';}
	.st67{font-size:17.1493px;}
	.st68{fill-rule:evenodd;clip-rule:evenodd;fill:none;stroke:#333333;stroke-width:1.1837;}
	.st69{fill-rule:evenodd;clip-rule:evenodd;fill:#FBB03B;}
	.st70{fill-rule:evenodd;clip-rule:evenodd;fill:#22B573;}
</style>
<g>
	<g>
		<linearGradient id="SVGID_1_" gradientUnits="userSpaceOnUse" x1="435.9775" y1="739.4932" x2="435.9775" y2="606.2861">
			<stop  offset="0.3152" style="stop-color:#000000;stop-opacity:0"/>
			<stop  offset="1" style="stop-color:#000000;stop-opacity:0.25"/>
		</linearGradient>
		<polygon class="st0" points="872,739.5 821.9,606.3 0,606.3 51.9,739.5 		"/>
		<linearGradient id="SVGID_2_" gradientUnits="userSpaceOnUse" x1="444.896" y1="570.4561" x2="444.896" y2="399.8213">
			<stop  offset="0.3152" style="stop-color:#000000;stop-opacity:0"/>
			<stop  offset="1" style="stop-color:#000000;stop-opacity:0.25"/>
		</linearGradient>
		<polygon class="st1" points="889.8,570.5 821.9,399.8 0,399.8 67.9,570.5 		"/>
		<linearGradient id="SVGID_3_" gradientUnits="userSpaceOnUse" x1="444.896" y1="374.0108" x2="444.896" y2="163.3565">
			<stop  offset="0.3152" style="stop-color:#000000;stop-opacity:0"/>
			<stop  offset="1" style="stop-color:#000000;stop-opacity:0.25"/>
		</linearGradient>
		<polygon class="st2" points="889.8,344 821.9,163.4 0,163.4 67.9,374 		"/>
		<rect y="580.5" class="st3" width="821.9" height="25.8"/>
		<rect y="585.4" class="st4" width="821.9" height="40.9"/>
		<rect y="374" class="st3" width="821.9" height="25.8"/>
		<rect y="378.9" class="st4" width="821.9" height="40.9"/>
		<rect y="137.5" class="st3" width="821.9" height="25.8"/>
		<rect y="142.5" class="st4" width="821.9" height="40.9"/>
		<rect x="739.6" y="337.6" class="st5" width="78.5" height="36.3"/>
		<rect x="734" y="323.7" class="st6" width="89.7" height="13.9"/>
		<path class="st6" d="M764.1,340.9h29.4v3c0,1.7-1.4,3-3,3h-23.4c-1.7,0-3-1.4-3-3V340.9z"/>
		<g>
			<rect x="21.7" y="94.8" class="st7" width="92.4" height="42.7"/>
			<rect x="15.2" y="78.4" class="st8" width="105.5" height="16.4"/>
			<path class="st8" d="M49.8,99.5H86v3.7c0,2.1-1.7,3.7-3.7,3.7H53.6c-2,0-3.7-1.7-3.7-3.7V99.5z"/>
		</g>
		<g>
			<g>
				<path class="st9" d="M119.8,48.8c-3.9-2.3-27-3-32.1,3.8c-4.3,5.7,2.7,19.7,9.3,22.8c6.4,3,19.5,1.3,23-5.2
					C123.4,64,124.3,51.4,119.8,48.8z"/>
				<path class="st9" d="M37.6,49c3.9-2.3,27-3.2,32.2,3.6c4.3,5.7-2.6,19.7-9.1,22.9c-6.4,3-19.5,1.4-23.1-5.1
					C34.1,64.2,33.2,51.6,37.6,49z"/>
			</g>
			<g>
				<g>
					<path class="st10" d="M96.5,48.2v26.9c-3.9-2.1-7.8-7.7-9.4-13.2v-8.5c0.2-0.3,0.3-0.6,0.5-0.9C89.3,50.5,92.6,49.1,96.5,48.2z
						"/>
					<path class="st10" d="M120.4,49.2v20.3c-0.1,0.2-0.2,0.5-0.4,0.7c-1.6,2.9-5.1,4.8-9,5.8V47.2c4.1,0.2,7.5,0.8,8.8,1.6
						C120,48.9,120.2,49,120.4,49.2z"/>
				</g>
				<g>
					<path class="st10" d="M48.8,47.3v29.3c-3.6-0.6-7.1-1.9-9.4-3.9V48.3C41.6,47.8,45,47.4,48.8,47.3z"/>
					<path class="st10" d="M63.3,73.7V48.9c2.9,0.8,5.2,2,6.5,3.7C73.5,57.6,68.9,68.8,63.3,73.7z"/>
				</g>
			</g>
			<g>
				<path class="st11" d="M127.3,46.6c-4.3,0.2-66.2,0.8-76.2,1.2c-10,0.4-19.3,11.6-23.5,16.7c-4.2,5.1,2.3,5.3,4.3,2.9
					c4.5-5.5,11.9-14.9,21.7-15.7c9.9-0.7,72.8-0.5,74.6-0.5C129.8,51.2,129.4,46.5,127.3,46.6z"/>
				<path class="st11" d="M30.1,46.6c4.3,0.2,66.2,0.8,76.2,1.2c10,0.4,19.3,11.6,23.5,16.7c4.2,5.1-2.3,5.3-4.3,2.9
					c-4.5-5.5-11.9-14.9-21.7-15.7C94,51,31,51.2,29.2,51.2C27.6,51.2,28.1,46.5,30.1,46.6z"/>
			</g>
			<g>
				<g>
					<path class="st12" d="M89.1,51.2c12.6,0,25.3,0,32.7,0c-0.5-1.1-1.1-1.9-2-2.4C116.2,46.6,96,45.9,89.1,51.2z"/>
					<path class="st12" d="M100.1,47.6c2.8,0.1,4.9,0.1,6.2,0.2c6.1,0.2,11.9,4.5,16.5,8.9c0.1,2.2-0.1,4.5-0.6,6.8
						c-4.5-5.2-10.7-11.1-18.5-11.7c-2.4-0.2-7.9-0.3-14.9-0.4C91.3,49.4,95.6,48.2,100.1,47.6z"/>
				</g>
				<g>
					<path class="st12" d="M56.4,47.6c-2.3,0.1-4.2,0.1-5.3,0.1C45,48,39.2,52.2,34.7,56.6c-0.1,2.2,0.1,4.5,0.5,6.8
						c4.5-5.2,10.7-11.1,18.4-11.7c2.4-0.2,7.9-0.3,14.9-0.4C65.9,49.3,61.3,48.1,56.4,47.6z"/>
					<path class="st12" d="M68.3,51.2c-12.5,0-25.1,0-32.5,0c0.5-1,1.1-1.7,1.8-2.2C41.3,46.9,61.3,46,68.3,51.2z"/>
				</g>
			</g>
			<path class="st11" d="M104.6,78.8c0.6,0,1.2,0,1.8-0.1c13.5-1.1,16.6-6.7,17.9-13.8c1.4-7.8,1.4-10.5,3.5-11.2
				c1.6-0.5,1.9-2.3,1.8-4.3c-0.1-2-0.2-2.2-2.9-3.1c-2.1-0.7-13.5-1.6-22.1-1.1v2.1c6.7-0.3,13.3,0.4,15.2,1.6
				c4.4,2.6,3.6,15.2,0.2,21.4c-2.4,4.4-9.3,6.6-15.4,6.6V78.8z M78.6,49.3c-3,0.1-15.3-3.2-24-3.9c-0.6,0-1.1-0.1-1.7-0.1v2.1
				c7,0.3,14.3,1.8,16.9,5.3c4.3,5.7-2.6,19.7-9.1,22.9c-2.1,1-4.8,1.5-7.8,1.5v2c12,0.2,16.1-7.8,17.4-10.4
				c2.5-4.9,1.7-11.7,8.4-11.7c6.7,0,6,6.6,8.6,11.5c1.4,2.6,5.4,10.6,17.2,10.4v-2c-2.9,0-5.6-0.5-7.7-1.4
				c-6.6-3.1-13.6-17.1-9.3-22.8c2.6-3.5,9.9-5,16.9-5.4v-2.1c-0.6,0-1.2,0.1-1.8,0.1C95,45.9,85.7,49.1,78.6,49.3z M52.9,45.3
				c-8.6-0.4-20.1,0.6-22.2,1.3c-2.7,0.9-2.7,1.1-2.9,3.1c-0.1,2,0.2,3.8,1.8,4.3c2.2,0.7,2.2,3.4,3.6,11.2
				c1.3,7.1,4.5,12.7,18,13.7c0.6,0,1.1,0.1,1.7,0.1v-2c-6.1,0-12.9-2.2-15.3-6.5c-3.5-6.2-4.4-18.8,0.1-21.4
				c1.9-1.1,8.5-1.9,15.2-1.6V45.3z"/>
		</g>
		<g>
			<g>
				
					<rect x="44" y="390.5" transform="matrix(0.9811 -0.1933 0.1933 0.9811 -78.4455 20.4742)" class="st13" width="43.4" height="43.4"/>
				
					<rect x="40.3" y="390.9" transform="matrix(0.9811 -0.1933 0.1933 0.9811 -74.9241 19.4164)" class="st14" width="43.4" height="5.5"/>
			</g>
			<g>
				<path class="st15" d="M57.9,413.5c0.3,0,0.3,0.2,0.1,0.4c-0.2,0.3-0.6,0.5-0.9,0.5c-1,0.1-2.1,0.1-3.2,0c-1.1,0-2.2,0-3.1,0
					c-0.3,0-0.3-0.2-0.1-0.4c0.2-0.3,0.6-0.5,0.9-0.5c1-0.1,2.1-0.1,3.2,0C55.9,413.6,57,413.6,57.9,413.5z"/>
				<path class="st15" d="M58.1,417.4c0.3-0.1,0.3,0.1,0.2,0.4c-0.2,0.3-0.5,0.6-0.8,0.7c-0.9,0.3-2,0.6-3.1,0.9
					c-1.1,0.3-2.1,0.5-3,0.8c-0.3,0.1-0.4-0.1-0.2-0.4c0.2-0.3,0.5-0.6,0.8-0.7c0.9-0.3,2-0.6,3.1-0.9
					C56.2,418,57.2,417.7,58.1,417.4z"/>
				<g>
					<g>
						<path class="st15" d="M66.6,421.7c0.1,0.3-0.1,0.7-0.3,1c-0.2,0.3-0.5,0.3-0.6,0c-0.2-0.8-1-1.4-1.8-2c-1.3-0.9-2.8-2-3.5-4.5
							c-0.7-2.4,0.5-4.5,2.4-5.8c0.7-0.5,1.5-0.8,2.3-1c0.8-0.2,1.6-0.2,2.4-0.1c1.8,0.3,3.3,1.5,3.8,3.9c0.6,2.8-0.3,4.4-1,5.8
							c-0.4,0.7-0.7,1.3-0.5,2c0.1,0.3-0.1,0.7-0.3,1c-0.2,0.3-0.5,0.3-0.6,0c-0.3-1.3,0.2-2.3,0.8-3.4c0.6-1,1.2-2.2,0.7-4.4
							c-0.4-2.1-1.8-3.2-3.4-3.4c-0.7-0.1-1.4-0.1-2.2,0.1c-0.7,0.2-1.4,0.5-1.9,0.9c-1.2,0.8-1.9,2.1-1.5,3.6
							c0.6,2.3,2.1,3.3,3.3,4.2C65.5,420,66.4,420.6,66.6,421.7z"/>
						<path class="st15" d="M65.4,424.3c-0.1,0-0.2-0.3-0.1-0.6c0.1-0.3,0.3-0.4,0.5-0.4c0.6,0.2,1.5,0.3,2.5,0.3
							c0.9,0,1.8-0.1,2.6-0.3c0.2,0,0.3,0.1,0.2,0.4c-0.1,0.3-0.2,0.5-0.4,0.5c-0.9,0.2-1.8,0.3-2.7,0.3
							C66.9,424.6,66,424.5,65.4,424.3z"/>
						<path class="st15" d="M66.2,425.8c-0.1,0-0.2-0.3-0.1-0.6c0.1-0.3,0.3-0.4,0.5-0.4c0.5,0.2,1.2,0.3,2,0.3
							c0.7,0,1.5-0.1,2.1-0.2c0.2,0,0.3,0.1,0.2,0.4c-0.1,0.3-0.2,0.5-0.4,0.5c-0.7,0.2-1.5,0.2-2.2,0.2
							C67.5,426.1,66.7,426,66.2,425.8z"/>
						<path class="st15" d="M67.1,427.6c-0.1,0-0.2-0.3-0.1-0.5c0.1-0.3,0.3-0.4,0.5-0.4c0.4,0.1,1,0.1,1.6,0
							c0.5-0.1,1.1-0.2,1.5-0.4c0.2-0.1,0.3,0,0.3,0.3c0,0.2-0.2,0.5-0.4,0.6c-0.5,0.3-1.1,0.4-1.7,0.5
							C68.2,427.8,67.5,427.7,67.1,427.6z"/>
					</g>
					<path class="st15" d="M72.3,410.6c-0.2,0.2-0.3,0-0.3-0.3c0-0.3,0.2-0.7,0.4-0.8c0.6-0.6,1.4-1.1,2.2-1.7
						c0.8-0.6,1.6-1.1,2.2-1.7c0.2-0.2,0.3,0,0.3,0.3c0,0.3-0.2,0.7-0.4,0.8c-0.6,0.6-1.4,1.1-2.2,1.7
						C73.7,409.5,72.9,410,72.3,410.6z"/>
					<path class="st15" d="M73.4,414.8c-0.2,0.1-0.3-0.1-0.2-0.4c0.1-0.3,0.3-0.7,0.5-0.7c0.8-0.3,1.7-0.7,2.6-1l0,0
						c0.9-0.3,1.8-0.6,2.6-1c0.2-0.1,0.3,0.1,0.2,0.4c-0.1,0.3-0.3,0.7-0.5,0.7c-0.8,0.3-1.7,0.7-2.6,1l0,0h0
						C75.1,414.1,74.2,414.4,73.4,414.8z"/>
					<path class="st15" d="M73,418.3c-0.2,0-0.2-0.2,0-0.4c0.2-0.2,0.4-0.4,0.6-0.4c0.7,0,1.5,0,2.2,0v0c0.8,0,1.6,0,2.2,0
						c0.2,0,0.2,0.2,0,0.4c-0.2,0.2-0.4,0.4-0.6,0.4c-0.7,0-1.5,0-2.2,0h0h0C74.5,418.3,73.7,418.3,73,418.3z"/>
					<path class="st15" d="M70.1,407.9c-0.1,0.2-0.3,0.2-0.4-0.1c-0.1-0.3-0.1-0.7-0.1-0.9c0.3-0.8,0.7-1.7,1.2-2.6
						c0.4-0.9,0.9-1.7,1.2-2.5c0.1-0.2,0.3-0.2,0.4,0.1c0.1,0.3,0.1,0.7,0.1,0.9c-0.3,0.8-0.7,1.7-1.2,2.6
						C70.8,406.3,70.4,407.1,70.1,407.9z"/>
					<path class="st15" d="M66.2,407.5c0,0.2-0.2,0.3-0.4,0.1c-0.2-0.2-0.4-0.6-0.4-0.8c0-0.8,0.1-1.8,0.2-2.8
						c0.1-1,0.2-1.9,0.2-2.7c0-0.2,0.2-0.3,0.4-0.1c0.2,0.2,0.4,0.6,0.4,0.8c0,0.8-0.1,1.8-0.2,2.8
						C66.3,405.8,66.2,406.7,66.2,407.5z"/>
					<path class="st15" d="M62.4,408.7c0.1,0.2,0,0.3-0.3,0.2c-0.3-0.1-0.6-0.4-0.7-0.6c-0.4-0.8-0.7-1.7-1.1-2.6
						c-0.3-0.9-0.7-1.8-1-2.5c-0.1-0.2,0-0.3,0.3-0.2c0.3,0.1,0.6,0.4,0.7,0.6c0.4,0.8,0.7,1.7,1.1,2.6
						C61.7,407.1,62,408,62.4,408.7z"/>
					<path class="st15" d="M59.1,410.7c0.2,0.1,0.1,0.3-0.2,0.3c-0.3,0-0.7,0-0.9-0.2c-0.7-0.5-1.4-1.1-2.2-1.8
						c-0.7-0.6-1.4-1.3-2.1-1.7c-0.2-0.1-0.1-0.3,0.2-0.3c0.3,0,0.7,0,0.9,0.2c0.7,0.5,1.4,1.1,2.2,1.8
						C57.7,409.6,58.5,410.2,59.1,410.7z"/>
					<path class="st15" d="M61,421.4c0.2-0.1,0.3,0,0.2,0.3c-0.1,0.3-0.3,0.6-0.5,0.7c-0.7,0.4-1.5,0.7-2.3,1.1
						c-0.8,0.3-1.6,0.7-2.2,1c-0.2,0.1-0.3,0-0.2-0.3c0.1-0.3,0.3-0.6,0.5-0.7c0.7-0.4,1.5-0.7,2.3-1.1
						C59.6,422.1,60.4,421.8,61,421.4z"/>
				</g>
			</g>
		</g>
		<g>
			<g>
				<polygon class="st5" points="41.6,353.8 27.2,355.9 9.7,237.1 24.1,198.4 				"/>
				<g>
					
						<rect x="29.8" y="241" transform="matrix(0.9893 -0.1459 0.1459 0.9893 -42.6455 7.7246)" class="st13" width="3.1" height="107.3"/>
					
						<rect x="32.7" y="342" transform="matrix(0.9893 -0.1458 0.1458 0.9893 -49.6454 8.9747)" class="st13" width="7.3" height="2.3"/>
					
						<rect x="31.7" y="334.5" transform="matrix(0.9894 -0.1452 0.1452 0.9894 -48.3833 8.687)" class="st13" width="7.3" height="2.3"/>
					
						<rect x="30.6" y="327.1" transform="matrix(0.9893 -0.1457 0.1457 0.9893 -47.4743 8.4897)" class="st13" width="7.3" height="2.3"/>
					
						<rect x="29.5" y="319.7" transform="matrix(0.9893 -0.1456 0.1456 0.9893 -46.3508 8.2374)" class="st13" width="7.3" height="2.3"/>
					
						<rect x="28.4" y="312.3" transform="matrix(0.9894 -0.1455 0.1455 0.9894 -45.2528 7.9917)" class="st13" width="7.3" height="2.3"/>
					
						<rect x="27.3" y="304.9" transform="matrix(0.9893 -0.1458 0.1458 0.9893 -44.2839 7.7788)" class="st13" width="7.3" height="2.3"/>
					
						<rect x="26.2" y="297.5" transform="matrix(0.9893 -0.1456 0.1456 0.9893 -43.1564 7.5258)" class="st13" width="7.3" height="2.3"/>
					
						<rect x="25.1" y="290" transform="matrix(0.9893 -0.1458 0.1458 0.9893 -42.1615 7.306)" class="st13" width="7.3" height="2.3"/>
					
						<rect x="24" y="282.6" transform="matrix(0.9894 -0.1452 0.1452 0.9894 -40.9226 7.0257)" class="st13" width="7.3" height="2.3"/>
					
						<rect x="22.9" y="275.2" transform="matrix(0.9893 -0.1456 0.1456 0.9893 -39.9466 6.8101)" class="st13" width="7.3" height="2.3"/>
					
						<rect x="21.8" y="267.8" transform="matrix(0.9893 -0.1461 0.1461 0.9893 -39.0084 6.6041)" class="st13" width="7.3" height="2.3"/>
					
						<rect x="20.7" y="260.4" transform="matrix(0.9894 -0.1453 0.1453 0.9894 -37.7409 6.3173)" class="st13" width="7.3" height="2.3"/>
					
						<rect x="19.6" y="253" transform="matrix(0.9893 -0.1461 0.1461 0.9893 -36.8784 6.1292)" class="st13" width="7.3" height="2.3"/>
					
						<rect x="18.5" y="245.5" transform="matrix(0.9893 -0.1456 0.1456 0.9893 -35.6707 5.8572)" class="st13" width="7.3" height="2.3"/>
				</g>
			</g>
			<g>
				<path class="st16" d="M15.2,265.6l-4.9-10.2l-2,11.2l12.1,87.1c0.2,1.4,1.2,2.5,2.2,2.3l3.1-0.4c1-0.1,1.7-1.4,1.5-2.8
					L15.2,265.6z"/>
				<path class="st8" d="M15.2,265.6l-4.9-10.2l1.5,11.1l12.4,89.2l1.6-0.2c1-0.1,1.7-1.4,1.5-2.8L15.2,265.6z"/>
				<path class="st17" d="M15.2,265.6l-4.9-10.2l-2,11.2l11.5,83.3c2.5,0.2,4.8-0.1,6.9-1L15.2,265.6z"/>
				<path class="st18" d="M15.2,265.6l-4.9-10.2l1.5,11.1l11.5,83.3c1.2-0.2,2.3-0.5,3.4-0.9L15.2,265.6z"/>
				<path class="st16" d="M15.2,265.6l-4.9-10.2l-2,11.2l11.1,80.3c2.5,0.3,4.8-0.1,6.9-1L15.2,265.6z"/>
				<path class="st8" d="M15.2,265.6l-4.9-10.2l1.5,11.1l11.1,80.3c1.2-0.2,2.3-0.5,3.4-0.9L15.2,265.6z"/>
				<path class="st19" d="M15.2,265.6l-4.9-10.2l-2,11.2c1.1,0.1,2.3,0.1,3.5-0.1C13,266.4,14.2,266,15.2,265.6z"/>
				<path class="st20" d="M15.2,265.6l-4.9-10.2l1.5,11.1C13,266.4,14.2,266,15.2,265.6z"/>
				<path class="st21" d="M11.9,258.8l-1.6-3.4l-0.7,3.7c0.4,0,0.8,0,1.2,0C11.2,259,11.6,258.9,11.9,258.8z"/>
			</g>
			<g>
				<path class="st13" d="M38.2,264.9l-3.8-10.7l-3.1,10.9L34,353c0,1.4,0.9,2.6,2,2.5l3.2-0.1c1,0,1.9-1.2,1.8-2.7L38.2,264.9z"/>
				<path class="st14" d="M38.2,264.9l-3.8-10.7l0.4,11.2l2.9,90l1.6-0.1c1,0,1.9-1.2,1.8-2.7L38.2,264.9z"/>
				<path class="st17" d="M38.2,264.9l-3.8-10.7l-3.1,10.9l2.7,84.1c2.5,0.5,4.8,0.4,7-0.2L38.2,264.9z"/>
				<path class="st18" d="M38.2,264.9l-3.8-10.7l0.4,11.2l2.7,84c1.2,0,2.4-0.2,3.5-0.5L38.2,264.9z"/>
				<path class="st13" d="M38.2,264.9l-3.8-10.7l-3.1,10.9l2.6,81c2.5,0.5,4.8,0.4,7-0.2L38.2,264.9z"/>
				<path class="st14" d="M38.2,264.9l-3.8-10.7l0.4,11.2l2.6,81c1.2,0,2.4-0.2,3.5-0.6L38.2,264.9z"/>
				<path class="st19" d="M38.2,264.9l-3.8-10.7l-3.1,10.9c1.1,0.2,2.3,0.4,3.5,0.3C35.9,265.4,37.1,265.3,38.2,264.9z"/>
				<path class="st20" d="M38.2,264.9l-3.8-10.7l0.4,11.2C35.9,265.4,37.1,265.3,38.2,264.9z"/>
				<path class="st21" d="M35.6,257.8l-1.3-3.5l-1,3.6c0.4,0.1,0.8,0.1,1.2,0.1C34.9,258,35.2,257.9,35.6,257.8z"/>
			</g>
			<g>
				<path class="st5" d="M44,257.5l3.1,0.2c0.3,0,0.5,0.3,0.5,0.5l-0.8,14.2c0,0.3-0.3,0.5-0.5,0.5l-3.1-0.2c-0.3,0-0.5-0.3-0.5-0.5
					l0.8-14.2C43.5,257.7,43.7,257.5,44,257.5z"/>
				<path class="st22" d="M44.7,257.6l0.7,0c0.1,0,0.1,0.1,0.1,0.1l-0.9,14.9c0,0.1-0.1,0.1-0.1,0.1l-0.7,0c-0.1,0-0.1-0.1-0.1-0.1
					l0.9-14.9C44.6,257.6,44.6,257.6,44.7,257.6z"/>
				<g>
					<path class="st23" d="M47.6,265.2c-0.5,0-0.9-0.4-0.8-0.8c0-0.4,0.4-0.7,0.9-0.6c0.3,0,0.4,0,0.4,0h0c1.8,0.1,4,0.2,4.7,2.8
						c0.3,1.1,0.1,6.2-0.2,11.6c-0.4,6.6-1,13.8-1.3,14.7c-0.2,0.6-0.4,1-0.6,1.3c-0.4,0.4-0.8,0.6-1.3,0.5c-0.9,0-1.5-0.8-1.7-1.7
						c-0.1-0.3-0.1-0.5-0.1-0.8c0-0.3,0-0.5,0-0.7c0.1-0.6,0.4-0.9,1.1-1c0.5,0,0.9,0.3,0.9,0.7c0,0.2-0.1,0.4-0.3,0.5
						c0,0.1,0,0.3,0,0.4c0,0.2,0.1,0.4,0.1,0.6c0,0.1,0,0.1,0,0.2c0.1-0.1,0.1-0.3,0.2-0.5c0.3-0.9,0.9-7.9,1.3-14.5
						c0.3-5.3,0.5-10.2,0.2-11.2c-0.4-1.5-1.8-1.6-3-1.6h0L47.6,265.2L47.6,265.2z M48.2,263.8L48.2,263.8L48.2,263.8z"/>
				</g>
				<g>
					<path class="st24" d="M51.2,267.5c0.4,1.8,0.7,6.4,0.5,9.7c-0.3,5.4-0.8,11.2-1.1,13.6c-0.1,1-0.2,2.4-1.1,2.2v-0.2
						c0.5-1.4,1-8.6,1.4-14.8C51.1,274.1,51.2,269.8,51.2,267.5L51.2,267.5z M49.5,291.2C49.5,291.2,49.5,291.3,49.5,291.2
						c0.1,0,0-0.1,0-0.1V291.2L49.5,291.2z M49.5,264.4v-0.5c1.5,0.2,2.3,0.5,2.9,1.6C51.9,264.9,50.7,264.6,49.5,264.4z
						 M49.5,293.1L49.5,293.1c0-0.1,0-0.1,0-0.2V293.1L49.5,293.1z M49.5,263.9v0.5c-0.8-0.1-1.6-0.1-2.3-0.2h0l-0.3,0
						c0.1-0.3,0.5-0.5,0.9-0.5c0.3,0,0.4,0,0.4,0h0C48.7,263.8,49.1,263.9,49.5,263.9L49.5,263.9z M49.5,291.1v0.1
						c-0.3-0.3-1.6-0.5-2,1.1c0-0.3,0-0.5,0-0.7c0.1-0.6,0.4-0.9,1-1C49,290.6,49.3,290.8,49.5,291.1L49.5,291.1z M48.2,263.8
						L48.2,263.8L48.2,263.8z"/>
				</g>
				<path class="st8" d="M42.5,263.2l5.5,0.3c0.5,0,0.9,0.4,0.9,0.8l-4.3,73.4c-0.1,1.5-2.3,18.4-3.4,18.3l-2.6-0.2
					c-1-0.1-1.3-17-1.2-18.6l4.3-73.4C41.5,263.5,42,263.2,42.5,263.2z"/>
				<path class="st25" d="M43.4,263.4l1.5,0.1c0.1,0,0.2,0.3,0.2,0.7l-4.3,73.4c-0.1,1.5-0.4,18.3-0.7,18.3l-0.7,0
					c-0.3,0-0.7-16.8-0.6-18.4l4.3-73.4C43.1,263.7,43.2,263.4,43.4,263.4z"/>
				<g>
					
						<rect x="41.3" y="313.5" transform="matrix(5.778439e-02 -0.9983 0.9983 5.778439e-02 -277.0025 340.7605)" class="st26" width="1.5" height="7.3"/>
					
						<rect x="41.4" y="310.9" transform="matrix(5.803366e-02 -0.9983 0.9983 5.803366e-02 -274.3029 338.4114)" class="st5" width="1.5" height="7.3"/>
				</g>
				<g>
					
						<rect x="40.3" y="316" transform="matrix(5.922138e-02 -0.9982 0.9982 5.922138e-02 -277.9524 339.206)" class="st22" width="1.5" height="2.1"/>
					
						<rect x="40.4" y="313.5" transform="matrix(5.990044e-02 -0.9982 0.9982 5.990044e-02 -275.2583 336.7269)" class="st22" width="1.5" height="2.1"/>
				</g>
			</g>
			<g>
				<path class="st5" d="M63.6,267.1l-1.5-11.2l-5.3,10l-15.4,86.6c-0.2,1.4,0.4,2.7,1.4,2.9l3.1,0.6c1,0.2,2.1-0.8,2.3-2.2
					L63.6,267.1z"/>
				<path class="st6" d="M63.6,267.1l-1.5-11.2l-2,11l-15.8,88.7l1.6,0.3c1,0.2,2.1-0.8,2.3-2.2L63.6,267.1z"/>
				<path class="st17" d="M63.6,267.1l-1.5-11.2l-5.3,10L42,348.7c2.3,1,4.6,1.4,6.9,1.2L63.6,267.1z"/>
				<path class="st18" d="M63.6,267.1l-1.5-11.2l-2,11l-14.7,82.8c1.2,0.2,2.3,0.3,3.5,0.2L63.6,267.1z"/>
				<path class="st5" d="M63.6,267.1l-1.5-11.2l-5.3,10l-14.2,79.8c2.3,1,4.6,1.4,6.9,1.2L63.6,267.1z"/>
				<path class="st6" d="M63.6,267.1l-1.5-11.2l-2,11l-14.2,79.8c1.2,0.2,2.4,0.3,3.5,0.2L63.6,267.1z"/>
				<path class="st19" d="M63.6,267.1l-1.5-11.2l-5.3,10c1,0.5,2.2,0.8,3.4,1C61.3,267.1,62.5,267.2,63.6,267.1z"/>
				<path class="st20" d="M63.6,267.1l-1.5-11.2l-2,11C61.3,267.1,62.5,267.2,63.6,267.1z"/>
				<path class="st21" d="M62.6,259.6l-0.5-3.7l-1.8,3.3c0.3,0.2,0.7,0.3,1.1,0.3C61.8,259.6,62.2,259.6,62.6,259.6z"/>
			</g>
			<g>
				<polygon class="st27" points="19.2,355.9 49.3,355.9 57.4,305.3 11.1,305.3 				"/>
				<rect x="6.9" y="295" class="st28" width="54.6" height="10.3"/>
			</g>
			<path class="st17" d="M66.3,358.5H5.4v12.9h60.9c3.5,0,6.4-2.9,6.4-6.4l0,0C72.7,361.4,69.8,358.5,66.3,358.5z"/>
			<path class="st8" d="M66.7,355.9H1.8v2.6h64.5c3.5,0,6.4,2.9,6.4,6.4l0,0c0,3.5-2.9,6.4-6.4,6.4H1.8v2.6h64.9
				c5,0,9.1-4.1,9.1-9.1l0,0C75.8,360,71.7,355.9,66.7,355.9z"/>
		</g>
		<g>
			<g>
				<rect x="339.8" y="510.6" class="st29" width="136.6" height="17.5"/>
				<rect x="339.8" y="513.5" class="st30" width="136.6" height="11.6"/>
			</g>
			<g>
				<rect x="335.1" y="545.5" class="st14" width="103.3" height="17.5"/>
				<rect x="335.1" y="548" class="st30" width="103.3" height="12.6"/>
			</g>
			<g>
				<rect x="322.1" y="563" class="st31" width="103.3" height="17.5"/>
				<rect x="322.1" y="565.3" class="st30" width="103.3" height="12.8"/>
			</g>
			<g>
				<rect x="352.2" y="528.1" class="st32" width="117.4" height="17.5"/>
				<rect x="356.2" y="532.5" class="st33" width="12.7" height="8.6"/>
				<rect x="372" y="532.5" class="st33" width="12.7" height="8.6"/>
				<rect x="388.8" y="532.5" class="st33" width="72.8" height="8.6"/>
			</g>
			<polygon class="st5" points="448.9,515.1 457.8,515.1 457.8,519.7 457.8,524.3 453.4,521.7 448.9,524.3 			"/>
			<polygon class="st13" points="420.7,550.3 429.6,550.3 429.6,554.9 429.6,559.5 425.1,556.9 420.7,559.5 			"/>
			<rect x="140.5" y="544.3" class="st34" width="78.8" height="36.4"/>
			<rect x="134.9" y="530.3" class="st35" width="89.9" height="14"/>
			<g>
				<rect x="87.6" y="466.6" class="st8" width="17.2" height="114"/>
				<rect x="87.6" y="474.9" class="st13" width="17.2" height="23.2"/>
				<rect x="94" y="502" class="st13" width="4.3" height="70.7"/>
			</g>
			<g>
				<path class="st29" d="M698.7,568.5c1.7-1,4.7,1,6.6,4.3c2,3.4,2.2,6.9,0.4,7.9c-1.7,1-4.7-1-6.6-4.3
					C697.2,573,697,569.4,698.7,568.5z"/>
				<path class="st29" d="M674,568.5c1.7,1,1.5,4.5-0.4,7.9c-2,3.4-4.9,5.3-6.6,4.3c-1.7-1-1.5-4.5,0.4-7.9
					C669.3,569.4,672.3,567.5,674,568.5z"/>
				<path class="st29" d="M698.7,525.7c-0.8-0.5,0.2-3.6,2.1-7c2-3.4,4.2-5.8,5-5.3c0.8,0.5-0.2,3.6-2.1,7
					C701.7,523.8,699.5,526.2,698.7,525.7z"/>
				<path class="st29" d="M674,525.7c-0.8,0.5-3-1.9-5-5.3c-2-3.4-2.9-6.5-2.1-7c0.8-0.5,3,1.9,5,5.3
					C673.9,522.2,674.8,525.3,674,525.7z"/>
				<rect x="685.4" y="508.9" class="st29" width="1.9" height="38.2"/>
				<path class="st8" d="M686.4,578.8c17.5,0,31.7-14.3,31.7-31.7c0-17.5-14.3-31.7-31.7-31.7c-17.5,0-31.7,14.3-31.7,31.7
					C654.6,564.6,668.9,578.8,686.4,578.8z"/>
				<path class="st36" d="M686.4,574.8c15.2,0,27.7-12.4,27.7-27.7c0-15.2-12.4-27.7-27.7-27.7c-15.2,0-27.7,12.4-27.7,27.7
					C658.7,562.3,671.1,574.8,686.4,574.8z"/>
				<g>
					<path class="st29" d="M686.4,522.5L686.4,522.5c0.4,0,0.7,0.3,0.7,0.7v5c0,0.4-0.3,0.7-0.7,0.7l0,0c-0.4,0-0.7-0.3-0.7-0.7v-5
						C685.6,522.8,685.9,522.5,686.4,522.5z"/>
					<path class="st29" d="M698.7,525.8L698.7,525.8c0.4,0.2,0.5,0.7,0.3,1l-2.5,4.3c-0.2,0.4-0.7,0.5-1,0.3l0,0
						c-0.4-0.2-0.5-0.7-0.3-1l2.5-4.3C697.9,525.7,698.3,525.6,698.7,525.8z"/>
					<path class="st29" d="M707.7,534.8L707.7,534.8c0.2,0.4,0.1,0.8-0.3,1l-4.3,2.5c-0.4,0.2-0.8,0.1-1-0.3l0,0
						c-0.2-0.4-0.1-0.8,0.3-1l4.3-2.5C707,534.3,707.5,534.4,707.7,534.8z"/>
					<path class="st29" d="M711,547.1L711,547.1c0,0.4-0.3,0.7-0.7,0.7h-5c-0.4,0-0.7-0.3-0.7-0.7l0,0c0-0.4,0.3-0.7,0.7-0.7h5
						C710.7,546.4,711,546.7,711,547.1z"/>
					<path class="st29" d="M707.7,559.4L707.7,559.4c-0.2,0.4-0.7,0.5-1,0.3l-4.3-2.5c-0.4-0.2-0.5-0.7-0.3-1l0,0
						c0.2-0.4,0.7-0.5,1-0.3l4.3,2.5C707.8,558.6,707.9,559.1,707.7,559.4z"/>
					<path class="st29" d="M698.7,568.4L698.7,568.4c-0.4,0.2-0.8,0.1-1-0.3l-2.5-4.3c-0.2-0.4-0.1-0.8,0.3-1l0,0
						c0.4-0.2,0.8-0.1,1,0.3l2.5,4.3C699.1,567.8,699,568.2,698.7,568.4z"/>
					<path class="st29" d="M686.4,571.7L686.4,571.7c-0.4,0-0.7-0.3-0.7-0.7v-5c0-0.4,0.3-0.7,0.7-0.7l0,0c0.4,0,0.7,0.3,0.7,0.7v5
						C687.1,571.4,686.8,571.7,686.4,571.7z"/>
					<path class="st29" d="M674,568.4L674,568.4c-0.4-0.2-0.5-0.7-0.3-1l2.5-4.3c0.2-0.4,0.7-0.5,1-0.3l0,0c0.4,0.2,0.5,0.7,0.3,1
						l-2.5,4.3C674.8,568.5,674.4,568.6,674,568.4z"/>
					<path class="st29" d="M665,559.4L665,559.4c-0.2-0.4-0.1-0.8,0.3-1l4.3-2.5c0.4-0.2,0.8-0.1,1,0.3l0,0c0.2,0.4,0.1,0.8-0.3,1
						l-4.3,2.5C665.7,559.9,665.2,559.8,665,559.4z"/>
					<path class="st29" d="M661.7,547.1L661.7,547.1c0-0.4,0.3-0.7,0.7-0.7h5c0.4,0,0.7,0.3,0.7,0.7l0,0c0,0.4-0.3,0.7-0.7,0.7h-5
						C662,547.8,661.7,547.5,661.7,547.1z"/>
					<path class="st29" d="M665,534.8L665,534.8c0.2-0.4,0.7-0.5,1-0.3l4.3,2.5c0.4,0.2,0.5,0.7,0.3,1l0,0c-0.2,0.4-0.7,0.5-1,0.3
						l-4.3-2.5C664.9,535.6,664.8,535.1,665,534.8z"/>
					<path class="st29" d="M674,525.8L674,525.8c0.4-0.2,0.8-0.1,1,0.3l2.5,4.3c0.2,0.4,0.1,0.8-0.3,1l0,0c-0.4,0.2-0.8,0.1-1-0.3
						l-2.5-4.3C673.6,526.4,673.7,526,674,525.8z"/>
				</g>
				<path class="st5" d="M686.4,526.8c0.6,2.9,1,6.4,1,10.1c0,3.8-0.4,7.3-1,10.1c-0.6-2.9-1-6.4-1-10.1
					C685.4,533.2,685.7,529.7,686.4,526.8z"/>
				<path class="st5" d="M700.1,539.1c-1.6,1.7-3.8,3.4-6.4,4.8c-2.6,1.5-5.1,2.5-7.4,3.1c1.6-1.7,3.8-3.4,6.4-4.8
					C695.3,540.8,697.9,539.7,700.1,539.1z"/>
				<path class="st29" d="M684.2,507.3h4.2c0.9,0,1.7,0.7,1.7,1.7l0,0c0,0.9-0.7,1.7-1.7,1.7h-4.2c-0.9,0-1.7-0.7-1.7-1.7l0,0
					C682.6,508,683.3,507.3,684.2,507.3z"/>
				<path class="st29" d="M663.8,504.8l3.8,6.7c0.5,0.8,0.2,1.8-0.6,2.3l0,0c-0.8,0.5-1.8,0.2-2.3-0.6l-3.8-6.7
					c-0.5-0.8-0.2-1.8,0.6-2.3h0C662.4,503.7,663.4,504,663.8,504.8z"/>
				<path class="st29" d="M711.7,506.5l-3.8,6.7c-0.5,0.8-1.5,1.1-2.3,0.6l0,0c-0.8-0.5-1.1-1.5-0.6-2.3l3.8-6.7
					c0.5-0.8,1.5-1.1,2.3-0.6l0,0C711.9,504.6,712.2,505.7,711.7,506.5z"/>
				<path class="st29" d="M708.7,508.3c6,3.5,8.7,10.2,6,14.9l-21.9-12.6C695.6,505.8,702.7,504.8,708.7,508.3z"/>
				<path class="st29" d="M664,508.3c6-3.5,13.2-2.5,15.9,2.3L658,523.2C655.2,518.5,657.9,511.8,664,508.3z"/>
				<path class="st29" d="M686.4,549.5c1.3,0,2.4-1.1,2.4-2.4c0-1.3-1.1-2.4-2.4-2.4c-1.3,0-2.4,1.1-2.4,2.4
					C683.9,548.4,685,549.5,686.4,549.5z"/>
			</g>
			<g>
				<rect x="70.4" y="482.8" class="st5" width="17.2" height="97.8"/>
				<rect x="75.4" y="492.8" class="st37" width="7.2" height="79.9"/>
			</g>
			<g>
				<rect x="61.8" y="474.9" class="st27" width="8.6" height="105.7"/>
				<line class="st37" x1="70.4" y1="484.4" x2="61.8" y2="484.4"/>
				<line class="st37" x1="70.4" y1="490" x2="61.8" y2="490"/>
				<line class="st37" x1="70.4" y1="565.5" x2="61.8" y2="565.5"/>
				<line class="st37" x1="70.4" y1="571.1" x2="61.8" y2="571.1"/>
				<rect x="64.1" y="496.4" class="st17" width="3.9" height="62.7"/>
			</g>
			<rect x="49.2" y="466.6" class="st5" width="12.6" height="114"/>
			<rect x="49.2" y="466.6" class="st6" width="12.6" height="17.8"/>
			<rect x="49.2" y="562.8" class="st6" width="12.6" height="17.8"/>
			<g>
				<path class="st5" d="M153,121.3c-6-12.3,12.2-48.4,43.3-58.5c31.2-10.1,60.4,6,64.4,16c4,10-9.4,45.6-42.6,55.8
					C184.9,144.8,157.9,131.2,153,121.3z"/>
				<path class="st13" d="M237,64.9c6.5,1.9,12,4.8,15.9,7.8c1.8,3.6,3.2,7.4,4.1,11.2c0.6,2.6,1,5.2,1.3,7.8
					c-1.7,5.9-5.1,12.8-10.3,19.2c0.3-0.8,0.6-1.7,0.8-2.6c1.8-6.3,2.2-14.4,0.2-22.5C247.2,78.3,243.5,70.9,237,64.9z"/>
				<path class="st38" d="M172.3,81.3c1.6,1.2,3.1,2.5,4.6,3.8c6.4,6.1,11.6,14.1,14.1,24.4c1.8,7.5,2.1,16.1,0.3,25.8
					c-4.4-0.1-8.5-0.7-12.2-1.5c1.6-8.3,1.4-15.4,0-21.5c-1.8-7.7-5.8-13.8-10.6-18.3c-1.3-1.3-2.7-2.4-4.2-3.4
					C166.5,87.5,169.2,84.3,172.3,81.3z"/>
				<path class="st39" d="M152.5,120.1c1-1.5,2.2-3,3.4-4.5c7.9-9.3,20.1-18.2,34.2-25.4c4.7-2.4,9.6-4.5,14.5-6.5
					c18-7,31.6-10.8,41.8-10.9c4.5,0,8.3,0.6,11.6,2c1.2,1.4,2.1,2.7,2.6,3.9c0,0.1,0,0.1,0.1,0.2c-3.8-2.7-8.4-3.9-14.2-3.8
					c-10,0.1-23.3,3.9-41,10.8c-4.9,1.9-9.7,4-14.3,6.4c-13.8,7-25.8,15.7-33.5,24.8c-1.5,1.8-2.9,3.6-4,5.4
					c-0.3-0.4-0.5-0.8-0.7-1.2C152.8,120.9,152.7,120.5,152.5,120.1z"/>
				<path class="st6" d="M190.5,90.9c-2.1-4.9,1.1-10.1,23.9-17.7c22.5-7.4,26.6-3.6,27.9,1c3.2,11.5-4.4,8.7-22.5,15.2
					C201.1,96.1,196.1,103.7,190.5,90.9z"/>
				<path class="st5" d="M192.3,91c-2.2-5.3,4-9.7,22.5-15.8c18.2-6,25.1-6.3,26.6-0.1c2.3,9.4-7.6,8-22.2,13.2
					C204,93.7,196.7,101.4,192.3,91z"/>
				<path class="st38" d="M192.8,91.2c-0.3,0.1-0.6,0-0.7-0.2c-0.1-0.3,0-0.6,0.2-0.7c5-2.4,15.8-7.3,27.3-11.2
					c7.3-2.4,14.9-4.4,21.5-5.1c0.3,0,0.6,0.2,0.6,0.5c0,0.3-0.2,0.6-0.5,0.6c-6.5,0.6-14,2.6-21.3,5
					C208.5,83.9,197.8,88.8,192.8,91.2z"/>
				<path class="st38" d="M197.6,92.8c0.2,0.2,0.3,0.5,0.2,0.7c-0.2,0.2-0.5,0.3-0.7,0.2c-0.6-0.4-1.3-1.1-1.9-2
					c-0.5-0.7-0.9-1.6-1.1-2.4c-0.2-0.9-0.1-1.7,0.3-2.4c0.2-0.3,0.4-0.5,0.7-0.7c0.2-0.2,0.6-0.1,0.7,0.1c0.2,0.2,0.1,0.6-0.1,0.7
					c-0.2,0.1-0.3,0.3-0.4,0.4c-0.3,0.4-0.3,1-0.1,1.6c0.2,0.7,0.5,1.4,0.9,2C196.5,91.9,197.1,92.5,197.6,92.8z"/>
				<path class="st38" d="M204.6,89.9c0.2,0.2,0.2,0.5,0,0.8c-0.2,0.2-0.5,0.2-0.8,0c-0.6-0.5-1.4-1.5-2-2.7c-0.5-0.9-1-1.9-1.2-2.8
					c-0.2-1-0.1-2,0.5-2.6l0,0v0c0.1-0.1,0.3-0.3,0.5-0.4c0.3-0.2,0.6-0.1,0.7,0.2c0.2,0.3,0.1,0.6-0.2,0.7
					c-0.1,0.1-0.2,0.1-0.3,0.2l0,0c-0.4,0.4-0.4,1-0.3,1.7c0.2,0.8,0.6,1.7,1.1,2.5C203.4,88.5,204.1,89.4,204.6,89.9z"/>
				<path class="st38" d="M211,86.9c0.2,0.2,0.2,0.5,0,0.8c-0.2,0.2-0.5,0.2-0.8,0c-0.6-0.6-1.3-1.5-1.9-2.5
					c-0.5-0.9-0.9-1.8-1.1-2.6c-0.2-1,0-1.8,0.6-2.4c0.1-0.1,0.3-0.2,0.4-0.3c0.3-0.1,0.6-0.1,0.7,0.2c0.1,0.3,0.1,0.6-0.2,0.7
					c-0.1,0.1-0.2,0.1-0.2,0.2c-0.3,0.3-0.4,0.9-0.3,1.5c0.1,0.7,0.5,1.5,0.9,2.3C209.8,85.5,210.5,86.3,211,86.9z"/>
				<path class="st38" d="M217.5,84.5c0.2,0.2,0.3,0.5,0.2,0.7c-0.2,0.3-0.5,0.3-0.7,0.2c-1.3-0.8-2.8-2.8-3.4-4.6
					c-0.2-0.6-0.4-1.2-0.4-1.7c0-0.6,0.2-1.1,0.6-1.4c0.3-0.2,0.7-0.4,1.3-0.3c0.3,0,0.5,0.3,0.5,0.6c0,0.3-0.3,0.5-0.6,0.5
					c-0.3,0-0.4,0-0.5,0.1c-0.1,0.1-0.2,0.3-0.2,0.6c0,0.4,0.1,0.8,0.3,1.3C215.1,82,216.4,83.8,217.5,84.5z"/>
				<path class="st38" d="M222.5,82.9c0.2,0.2,0.1,0.6-0.1,0.7c-0.2,0.2-0.6,0.1-0.7-0.1c-0.9-1.2-1.7-2.8-2-4.1
					c-0.2-0.7-0.2-1.3-0.1-1.8c0.1-0.6,0.4-1.1,1-1.4c0.3-0.1,0.6-0.2,1-0.1c0.3,0,0.5,0.3,0.5,0.6c0,0.3-0.3,0.5-0.6,0.5
					c-0.2,0-0.3,0-0.5,0.1c-0.2,0.1-0.3,0.3-0.3,0.6c-0.1,0.4,0,0.9,0.1,1.4C221,80.4,221.7,81.8,222.5,82.9z"/>
				<path class="st38" d="M229.2,81c0.2,0.2,0.3,0.5,0.1,0.7s-0.5,0.3-0.7,0.1c-0.9-0.7-1.7-1.7-2.3-2.7c-0.4-0.7-0.7-1.5-0.8-2.2
					c-0.1-0.8,0-1.5,0.4-2.1c0.2-0.2,0.4-0.4,0.7-0.6c0.3-0.1,0.6-0.1,0.7,0.2c0.1,0.3,0,0.6-0.2,0.7c-0.1,0.1-0.3,0.2-0.3,0.3
					c-0.2,0.3-0.3,0.8-0.2,1.3c0.1,0.6,0.3,1.2,0.7,1.9C227.7,79.5,228.4,80.4,229.2,81z"/>
				<path class="st38" d="M234.4,79.4c0.2,0.2,0.2,0.5,0,0.8s-0.5,0.2-0.8,0l-0.1-0.1v0h0c-0.7-0.7-1.8-2-2.4-3.2
					c-0.7-1.4-0.9-2.9,0.2-3.9l0,0l0,0l0,0c0.2-0.2,0.5-0.2,0.8,0s0.2,0.5,0,0.8l0,0l0,0c-0.7,0.7-0.5,1.7,0,2.7
					C232.8,77.5,233.7,78.6,234.4,79.4L234.4,79.4L234.4,79.4z"/>
				<path class="st38" d="M239.3,78.2c-0.1,0.3-0.3,0.5-0.6,0.4c-0.3-0.1-0.5-0.3-0.4-0.6c0.2-1,0-2.2-0.4-3.3
					c-0.4-1.2-1.1-2.2-1.8-2.7c-0.2-0.2-0.3-0.5-0.1-0.7c0.2-0.2,0.5-0.3,0.7-0.1c0.9,0.6,1.7,1.9,2.2,3.2
					C239.3,75.6,239.5,77,239.3,78.2z"/>
			</g>
			<rect x="238.1" y="550.8" class="st40" width="63.1" height="29.1"/>
			<rect x="233.7" y="539.6" class="st34" width="72.1" height="11.2"/>
			<g>
				<rect x="512.8" y="497.4" class="st41" width="128.1" height="83.1"/>
				<rect x="521.1" y="505.6" class="st31" width="111.5" height="66.7"/>
				<g>
					<g>
						<path class="st42" d="M632.6,536.5c-5.6-0.1-10.1-3.1-10.1-6.9c0-3.8,4.5-6.9,10.1-6.9V536.5z"/>
						<path class="st42" d="M632.1,533.4c0.2,0,0.3,0,0.5,0v13.9c-0.2,0-0.3,0-0.5,0c-5.7,0-10.3-3.1-10.3-6.9
							C621.8,536.5,626.4,533.4,632.1,533.4z"/>
						<ellipse class="st42" cx="620.9" cy="534" rx="10.3" ry="6.9"/>
					</g>
					<g>
						<path class="st42" d="M521.1,540c4.7,0.6,8.2,3.4,8.2,6.8c0,3.4-3.5,6.2-8.2,6.8V540z"/>
						<path class="st42" d="M530.8,545c5.7,0,10.3,3.1,10.3,6.9c0,3.8-4.6,6.9-10.3,6.9c-4.5,0-8.3-1.9-9.7-4.7v-4.6
							C522.5,546.9,526.3,545,530.8,545z"/>
						<path class="st42" d="M521.1,550.8c4.4,0.8,7.6,3.5,7.6,6.7c0,3.2-3.2,5.9-7.6,6.7V550.8z"/>
					</g>
					<g>
						<path class="st42" d="M578,505.6c-1.8,1.9-5,3.1-8.6,3.1s-6.8-1.2-8.6-3.1H578z"/>
						<path class="st42" d="M591.3,505.6c0.1,0.4,0.2,0.9,0.2,1.3c0,3.8-4.6,6.9-10.3,6.9c-5.7,0-10.3-3.1-10.3-6.9
							c0-0.5,0.1-0.9,0.2-1.3H591.3z"/>
						<path class="st42" d="M568.8,505.6c5.7,0,10.3,3.1,10.3,6.9c0,3.8-4.6,6.9-10.3,6.9c-5.7,0-10.3-3.1-10.3-6.9
							C558.5,508.7,563.1,505.6,568.8,505.6z"/>
						<path class="st42" d="M567.8,505.6c0,0.2,0,0.4,0,0.7c0,3.8-4.6,6.9-10.3,6.9c-5.7,0-10.3-3.1-10.3-6.9c0-0.2,0-0.4,0-0.7
							H567.8z"/>
					</g>
				</g>
				<rect x="570.8" y="559.7" class="st43" width="36.3" height="12.5"/>
				<g>
					<g>
						<path class="st44" d="M603,521.5c12,0,21.7,9.1,21.7,20.2c0,11.2-19,20.2-21.7,20.2c-2.7,0-21.7-9.1-21.7-20.2
							C581.3,530.5,591,521.5,603,521.5z"/>
						<path class="st45" d="M624.1,572.2c-1.4-5.3-4.9-15.8-11.6-10.7l-1.7,8.1l2.2,2.7H624.1z"/>
						<path class="st45" d="M581.6,572.2c2.1-6.3,6.9-15.4,12.7-10.1c1.6,1.6,3.7,3,3.4,3.3l-4.9,6.9H581.6z"/>
						<polygon class="st45" points="615.2,572.2 611.6,561.8 594.5,561.8 590.9,572.2 						"/>
						<path class="st17" d="M597.9,559.1c3.2,0,5.8,2.6,5.8,5.8s-2.6,5.8-5.8,5.8s-5.8-2.6-5.8-5.8S594.7,559.1,597.9,559.1z"/>
						<path class="st17" d="M607.9,558.7c3.2,0,5.8,2.6,5.8,5.8s-2.6,5.8-5.8,5.8c-3.2,0-5.8-2.6-5.8-5.8S604.7,558.7,607.9,558.7z"
							/>
						<path class="st46" d="M603,553.9c5,0,9.1,2.6,9.1,5.7c0,3.2-4.1,5.7-9.1,5.7c-5,0-9.1-2.6-9.1-5.7
							C594,556.5,598,553.9,603,553.9z"/>
						<path class="st47" d="M603,524.4c10.4,0,18.9,8.4,18.9,18.9s-8.4,18.9-18.9,18.9s-18.9-8.4-18.9-18.9S592.6,524.4,603,524.4z"
							/>
						<g>
							<path class="st48" d="M607.3,538.3c1.9-0.5,4.5-0.7,7.3-0.1"/>
							<path class="st48" d="M598.8,538.3c-1.9-0.5-4.5-0.7-7.3-0.1"/>
						</g>
						<g>
							<path class="st49" d="M607.5,544.1c4-4.6,7,0.1,9.8-1.4C615.8,545.7,611.9,541.4,607.5,544.1z"/>
							<path class="st50" d="M612.8,545.3c2,0,3.6,1.1,3.6,2.5c0,1.4-1.6,2.5-3.6,2.5c-2,0-3.6-1.1-3.6-2.5
								C609.2,546.4,610.8,545.3,612.8,545.3z"/>
							<path class="st49" d="M598.6,544.1c-4-4.6-7,0.1-9.8-1.4C590.3,545.7,594.2,541.4,598.6,544.1z"/>
							<path class="st50" d="M593.3,545.3c-2,0-3.6,1.1-3.6,2.5c0,1.4,1.6,2.5,3.6,2.5c2,0,3.6-1.1,3.6-2.5
								C596.9,546.4,595.3,545.3,593.3,545.3z"/>
						</g>
						<path class="st47" d="M582.9,540c1.8-0.6,4.1,1.8,5.2,5.2c1.1,3.4,0.4,6.6-1.3,7.2c-1.8,0.6-4.1-1.8-5.2-5.2
							C580.5,543.8,581.1,540.5,582.9,540z"/>
						<path class="st47" d="M622.8,540c-1.8-0.6-4.1,1.8-5.2,5.2c-1,3.4-0.4,6.6,1.3,7.2c1.8,0.6,4.1-1.8,5.2-5.2
							S624.6,540.5,622.8,540z"/>
						<path class="st51" d="M606.6,553.1c0,2.4-1.6,4.4-3.6,4.4c-2,0-3.5-2-3.6-4.4c1,0.6,2.2,1,3.6,1
							C604.4,554.1,605.6,553.7,606.6,553.1z"/>
						<path class="st44" d="M595.7,524.7c8.3-3.2,16.3-3.1,17.7,0.2c1.5,3.3-4.1,8.5-12.5,11.7c-8.3,3.2-16.3,3.1-17.7-0.2
							C581.8,533.1,587.4,527.9,595.7,524.7z"/>
						<path class="st44" d="M616.4,527.4c-5.3-4.2-10.9-5.9-12.5-3.6c-1.6,2.2,1.5,7.5,6.8,11.7c5.3,4.2,10.9,5.9,12.5,3.6
							C624.8,536.9,621.7,531.6,616.4,527.4z"/>
						<path class="st44" d="M603,517c5.7,0,10.6,3.2,13.2,8c-3.7-2.6-8.2-4.2-13.2-4.2c-5,0-9.5,1.6-13.2,4.2
							C592.4,520.2,597.4,517,603,517z"/>
					</g>
					<g>
						<path class="st43" d="M568.9,559.2L568.9,559.2c-3.7,0.9-6,4.7-5.1,8.4l1.1,4.6h14.2l0.1,0l-1.9-7.9
							C576.4,560.6,572.6,558.3,568.9,559.2z"/>
						<path class="st43" d="M542.9,556.6h23.9c6,0,10.8,4.9,10.8,10.8v4.7H532v-4.7C532,561.5,536.9,556.6,542.9,556.6z"/>
						<path class="st43" d="M540.7,559.2L540.7,559.2c3.7,0.9,6,4.7,5.1,8.4l-1.1,4.6h-14.3l1.9-7.9
							C533.3,560.6,537,558.3,540.7,559.2z"/>
						<path class="st46" d="M554.8,549.6c6.6,0,11.9,4.2,11.9,9.4c0,5.2-6.8,4-11.9,9.4c-5-5.8-11.9-4.2-11.9-9.4
							C542.9,553.8,548.2,549.6,554.8,549.6z"/>
						<path class="st52" d="M541.3,515.7h27.1c4.5,0,8.2,3.7,8.2,8.2v15.4c0,4.5-3.7,8.2-8.2,8.2h-27.1c-4.5,0-8.2-3.7-8.2-8.2
							v-15.4C533.1,519.4,536.8,515.7,541.3,515.7z"/>
						<polygon class="st30" points="550.6,562 554.8,568.5 537.8,557.9 						"/>
						<polygon class="st17" points="550.6,562 542.2,569.1 536.6,558.7 542,555 						"/>
						<polygon class="st30" points="559,562 554.8,568.5 571.7,557.9 						"/>
						<polygon class="st17" points="558.8,562 567.2,569.1 572.8,558.7 567.3,555 						"/>
						<path class="st47" d="M544.1,517.5h21.4c5.4,0,9.7,4.4,9.7,9.7v21.4c0,5.4-4.4,9.8-9.7,9.8h-21.4c-5.4,0-9.7-4.4-9.7-9.8
							v-21.4C534.3,521.9,538.7,517.5,544.1,517.5z"/>
						<g>
							<path class="st47" d="M531,533.6c1.9-0.6,4.2,1.8,5.3,5.4c1.1,3.5,0.5,6.8-1.4,7.4c-1.9,0.6-4.2-1.8-5.3-5.4
								C528.5,537.5,529.1,534.2,531,533.6z"/>
							<path class="st47" d="M578.6,533.6c-1.9-0.6-4.2,1.8-5.3,5.4c-1.1,3.5-0.5,6.8,1.4,7.4c1.9,0.6,4.2-1.8,5.3-5.4
								C581.1,537.5,580.5,534.2,578.6,533.6z"/>
						</g>
						<ellipse class="st50" cx="564.9" cy="540.1" rx="3.8" ry="2.6"/>
						<path class="st49" d="M551.1,534.9c-1.8-3.8-8.3-4-10.2-1.1C543.7,532.6,548,532.9,551.1,534.9z"/>
						<path class="st50" d="M544.7,537.5c-2.1,0-3.8,1.2-3.8,2.6c0,1.4,1.7,2.6,3.8,2.6c2.1,0,3.8-1.2,3.8-2.6
							C548.5,538.7,546.8,537.5,544.7,537.5z"/>
						<path class="st49" d="M558.5,534.9c1.8-3.8,8.3-4,10.2-1.1C565.9,532.6,561.6,532.9,558.5,534.9z"/>
						<path class="st53" d="M560.1,528.1c2.3-0.7,5.4-0.8,8.8-0.2"/>
						<path class="st53" d="M549.8,528.1c-2.3-0.7-5.4-0.8-8.8-0.2"/>
						<path class="st52" d="M554.8,542.8c4.5,0,7.9,1.3,9.5,4c1.5,2.5,2.7,3.4,6.4,0.9c3.7-2.5,4.5-11,4.5-14.2
							c0.1-3.2,1.2-3.5,1.2-0.8c0,1.4,0,4.4,0,5.7c0,4.2,0.5,13.9-4.1,17.4c-5.2,4-11.3,4-17.6,4c-6.3,0-12.4,0-17.6-4
							c-4.6-3.5-4.1-13.2-4.1-17.4c0-1.3,0-4.3,0-5.7c0-2.7,1.2-2.4,1.2,0.8c0.1,3.2,0.8,11.7,4.5,14.2c3.7,2.5,4.9,1.6,6.4-0.9
							C546.9,544.2,550.3,542.8,554.8,542.8z"/>
						<path class="st47" d="M554.8,544.4c5.1,0,9.2,2.5,9.2,5.7c0,2.3,0,5.1-3.8,5.1c-3.7,0-2.6-1.2-5.3-1.2c-2.9,0-2.1,1.1-5.8,1.1
							c-3.4,0-3.5-2.9-3.5-5.1C545.6,546.8,549.7,544.4,554.8,544.4z"/>
						<path class="st46" d="M560.8,546.8c-0.1,4.6-11.9,4.6-12,0C552.3,548.5,557.3,548.5,560.8,546.8z"/>
					</g>
				</g>
				<g>
					<path class="st47" d="M623.7,561.7L623.7,561.7c0.4-0.7,0.2-1.7-0.5-2.1l-3.9-2.3c-0.7-0.4-1.7-0.2-2.1,0.5v0
						c-0.4,0.7-0.2,1.7,0.5,2.1l3.9,2.3C622.3,562.6,623.2,562.4,623.7,561.7z"/>
					<path class="st47" d="M622.6,558.3L622.6,558.3c0.7,0.7,0.8,1.8,0.2,2.5l-3.4,3.9c-0.6,0.7-1.8,0.8-2.5,0.2l0,0
						c-0.7-0.6-0.8-1.8-0.2-2.5l3.4-3.9C620.8,557.7,621.9,557.6,622.6,558.3z"/>
					<path class="st47" d="M625.3,560.7L625.3,560.7c-0.7-0.7-1.9-0.6-2.5,0.2l-3.4,3.9c-0.6,0.7-0.6,1.9,0.2,2.5l0,0
						c0.7,0.7,1.9,0.6,2.5-0.2l3.4-3.9C626.1,562.4,626.1,561.3,625.3,560.7z"/>
					<path class="st47" d="M628,563L628,563c0.7,0.6,0.8,1.8,0.2,2.5l-3.4,3.9c-0.6,0.7-1.8,0.8-2.5,0.2l0,0
						c-0.7-0.7-0.8-1.8-0.2-2.5l3.4-3.9C626.1,562.4,627.3,562.4,628,563z"/>
					<path class="st47" d="M630.5,565.2L630.5,565.2c-0.6-0.6-1.6-0.5-2.2,0.1l-3,3.4c-0.6,0.6-0.5,1.6,0.1,2.2l0,0
						c0.6,0.6,1.6,0.5,2.2-0.1l3-3.4C631.2,566.8,631.1,565.8,630.5,565.2z"/>
				</g>
				<g>
					<path class="st44" d="M566.3,569.3h14.9c2.3,0,4.3,1.2,5.6,2.9h-26C562,570.5,564,569.3,566.3,569.3z"/>
					<path class="st44" d="M565,570.9L565,570.9c0.9,0.2,1.6,0.7,2.2,1.3h-6.4C561.8,571.1,563.4,570.5,565,570.9z"/>
					<polygon class="st44" points="566.3,569.3 567.8,572.2 579.7,572.2 581.2,569.3 					"/>
					<path class="st46" d="M573.8,564.9c4.1,0,7.5,1.8,7.5,4c0,1.4-1.3,2.6-3.3,3.3h-8.3c-2-0.7-3.3-1.9-3.3-3.3
						C566.3,566.7,569.6,564.9,573.8,564.9z"/>
					<g>
						<path class="st54" d="M565.3,542.2h16.9c2.8,0,5.1,2.3,5.1,5.1v11.2c0,2.8-2.3,5.1-5.1,5.1h-16.9c-2.8,0-5.1-2.3-5.1-5.1
							v-11.2C560.2,544.5,562.5,542.2,565.3,542.2z"/>
						<path class="st47" d="M567.1,544.9h13.4c3.3,0,6.1,2.7,6.1,6.1v13.4c0,3.4-2.7,6.1-6.1,6.1h-13.4c-3.3,0-6.1-2.7-6.1-6.1
							v-13.4C561,547.6,563.7,544.9,567.1,544.9z"/>
						<g>
							<path class="st47" d="M558.9,554.9c1.2-0.4,2.6,1.1,3.3,3.3s0.3,4.3-0.9,4.6c-1.2,0.4-2.6-1.1-3.3-3.3
								C557.3,557.4,557.7,555.3,558.9,554.9z"/>
							<path class="st47" d="M588.6,554.9c-1.2-0.4-2.6,1.1-3.3,3.3c-0.7,2.2-0.3,4.3,0.9,4.6c1.2,0.4,2.6-1.1,3.3-3.3
								C590.2,557.4,589.8,555.3,588.6,554.9z"/>
						</g>
						<path class="st50" d="M580.1,557.4c1.3,0,2.4,0.7,2.4,1.6c0,0.9-1.1,1.6-2.4,1.6c-1.3,0-2.4-0.7-2.4-1.6
							C577.7,558.1,578.8,557.4,580.1,557.4z"/>
						<path class="st49" d="M571.4,555.7c-1.1-2.4-5.2-2.5-6.3-0.7C566.8,554.3,569.5,554.5,571.4,555.7z"/>
						<path class="st50" d="M567.4,557.4c-1.3,0-2.4,0.7-2.4,1.6c0,0.9,1.1,1.6,2.4,1.6c1.3,0,2.4-0.7,2.4-1.6
							C569.8,558.1,568.7,557.4,567.4,557.4z"/>
						<path class="st17" d="M578.2,562.2c0,3.1-2,5.6-4.5,5.6c-2.5,0-4.5-2.5-4.5-5.6c1.2,0.8,2.8,1.2,4.5,1.2
							C575.5,563.4,577,563,578.2,562.2z"/>
						<path class="st49" d="M576.1,555.7c1.1-2.4,5.2-2.5,6.3-0.7C580.7,554.3,578,554.5,576.1,555.7z"/>
					</g>
					<path class="st44" d="M582.6,570.9L582.6,570.9c-0.9,0.2-1.6,0.7-2.2,1.3h6.4C585.8,571.1,584.2,570.5,582.6,570.9z"/>
				</g>
			</g>
			<rect x="450.9" y="120.3" class="st5" width="141.8" height="18.1"/>
			<rect x="463.2" y="109.3" class="st8" width="121.5" height="11"/>
			<rect x="463.2" y="112.4" class="st5" width="121.5" height="4.7"/>
			<g>
				<rect x="446.3" y="91.1" class="st8" width="141.8" height="18.1"/>
				<rect x="446.3" y="94.2" class="st17" width="141.8" height="12.1"/>
			</g>
			<rect x="459.9" y="120.3" class="st13" width="3.3" height="18.1"/>
			<rect x="469.2" y="120.3" class="st13" width="3.3" height="18.1"/>
			<polygon class="st13" points="458.6,98 467.8,98 467.8,102.8 467.8,107.6 463.2,104.9 458.6,107.6 			"/>
			
				<rect x="-17.7" y="521.1" transform="matrix(0.1429 -0.9897 0.9897 0.1429 -492.1007 487.0593)" class="st11" width="105.7" height="13.2"/>
			
				<rect x="36.2" y="483.6" transform="matrix(0.1429 -0.9897 0.9897 0.1429 -448.4247 459.0261)" class="st55" width="9.2" height="9.7"/>
			
				<rect x="-2.3" y="529" transform="matrix(0.1429 -0.9897 0.9897 0.1429 -498.995 491.4609)" class="st55" width="73.1" height="9.7"/>
			<path class="st34" d="M257.9,553.5h23.7v2.4c0,1.3-1.1,2.4-2.4,2.4h-18.8c-1.3,0-2.4-1.1-2.4-2.4V553.5z"/>
			<path class="st35" d="M164.4,548.3h30.9v3.2c0,1.7-1.4,3.2-3.2,3.2h-24.5c-1.7,0-3.2-1.4-3.2-3.2V548.3z"/>
			<g>
				<g>
					<path class="st56" d="M621.4,135.1l3.6-4.6l0,0.1l0,0.1l0,0.1l0,0.1v0.1l0,0.1l0,0.1l0,0.1l0,0.1l0,0.1l0,0.1l0,0.1l0,0.1
						l0,0.1l0,0.1l0,0.1l0,0.1l-0.1,0.1l-0.1,0.1l-0.1,0.1l-0.1,0.1l-0.1,0.1l-0.1,0.1l-0.1,0.1l-0.1,0.1l-0.1,0.1l-0.1,0.1
						l-0.1,0.1l-0.1,0.1l-0.1,0.1l-0.1,0.1l-0.1,0.1l-0.1,0.1l-0.1,0.1l-0.1,0.1l-0.1,0.1l-0.1,0.1l-0.1,0.1l-0.1,0.1l-0.1,0.1
						l-0.1,0.1l-0.1,0.1l-0.1,0.1l-0.1,0.1l-0.1,0.1l-0.1,0.1l-0.1,0l-0.1,0l-0.1,0l-0.1,0l-0.1,0l-0.1,0l-0.1,0l-0.1,0h-0.1l-0.1,0
						l-0.1,0l0,0l0,0l0,0l0,0l0,0L621.4,135.1L621.4,135.1L621.4,135.1z M627.4,49.3l2.7-0.8l-1.4,3.2l-1.3,3.2l-1.2,3.1l-1.1,3.1
						l-1,3.1l-0.9,3.1l-0.8,3l-0.7,3l-0.6,3l-0.5,2.9l-0.4,2.9l-0.3,2.9l-0.3,2.8l-0.2,2.8l-0.1,2.7l0,2.7l0,2.6l0.1,2.6l0.2,2.5
						l0.2,2.5l0.3,2.4l0.3,2.3l0.3,2.3l0.4,2.2l0.4,2.1l0.4,2.1l0.5,2l0.5,1.9l0.5,1.8l0.5,1.8l0.5,1.7l0.5,1.6l-3.6,4.6l-0.5-1.6
						l-0.5-1.7l-0.5-1.8l-0.5-1.9l-0.5-1.9l-0.5-2l-0.5-2.1l-0.4-2.2l-0.4-2.2l-0.3-2.3l-0.3-2.4l-0.3-2.4l-0.2-2.5l-0.2-2.6
						l-0.1-2.6l0-2.7l0-2.8l0.1-2.8l0.2-2.9l0.3-2.9l0.3-3l0.4-3l0.5-3.1l0.6-3.2l0.7-3.2l0.8-3.3l1-3.3l1.1-3.4l1.2-3.4l1.3-3.5
						l1.5-3.5L627.4,49.3L627.4,49.3z M630.2,48.5l-2.7,0.8l0.1-0.1l0.1-0.1l0.1-0.1l0.1-0.1l0.1-0.1l0.1-0.1l0.1-0.1l0.1-0.1
						l0.1-0.1l0.1-0.1l0.1-0.1l0.1-0.1l0.1-0.1l0.1-0.1l0.1-0.1l0.1-0.1l0.1-0.1l0.1-0.1l0.1-0.1L629,47l0.1-0.1l0.1-0.1l0.1-0.1
						l0.1-0.1l0.1-0.1l0.1-0.1l0.1-0.1l0.1,0l0.1,0l0.1,0l0.1,0l0.1,0l0.1,0l0.1,0l0.1,0l0.1,0l0.1,0l0,0l0,0l0,0l0,0l0,0l0,0l0,0.1
						l0,0.1l0,0.1l0,0.1l0,0.1l0,0.1l0,0.1l0,0.1l0,0.1l0,0.1l0,0.1l0,0.1l0,0.1l0,0.1l0,0.1l0,0.1l0,0.1l0,0.1l-0.1,0.1l-0.1,0.1
						L630.2,48.5z"/>
				</g>
				<polygon class="st7" points="607.6,138.4 627.3,138.4 622.9,95.3 612,95.3 				"/>
				<path class="st8" d="M609.3,92.2h16.2c1,0,1.8,0.8,1.8,1.8l0,0c0,1-0.8,1.8-1.8,1.8h-16.2c-1,0-1.8-0.8-1.8-1.8l0,0
					C607.6,93,608.4,92.2,609.3,92.2z"/>
				<g>
					<path class="st45" d="M642.3,45.1c1.2,1.5,2,3.3,2,5.3c0,3.8-2.7,7-6.3,8.1c-1.3,3-4.5,5.2-8.2,5.2c-2.8,0-5.3-1.2-7-3.2
						c-4.5-0.4-8-4-8-8.4l0-0.2c-1-1.4-1.6-3-1.6-4.8c0-2.8,1.5-5.3,3.7-6.8c1.1-3.5,4.5-6.1,8.6-6.1c1.7,0,3.2,0.4,4.6,1.2
						c1.1-0.5,2.3-0.7,3.6-0.7c4.9,0,8.9,3.8,8.9,8.4C642.6,43.8,642.5,44.5,642.3,45.1z"/>
					<path class="st57" d="M632.7,61.1v-2.2c0.9-0.5,1.6-1.1,2.1-1.8C634.8,58.7,634,60.2,632.7,61.1L632.7,61.1z M632.7,56.9
						c1.4,0.1,2.8-0.4,3.8-1.5c1.3-1.5,1.4-3.7,0.3-5.4c0.1,1.5-0.4,3.1-1.6,4.5c-0.7,0.8-1.6,1.4-2.5,1.8V56.9L632.7,56.9z
						 M632.7,44.5v-1.8c1.4,0.8,2.3,2.4,2.2,4.1C634.4,45.9,633.6,45.1,632.7,44.5L632.7,44.5z M632.7,38.8c1.1,0.3,2.2,0.9,3.2,1.7
						c1.7,1.4,2.6,3.3,2.8,5.1c1.4-2.4,1-5.4-1-7.1c-1.4-1.2-3.3-1.5-5-1.1V38.8L632.7,38.8z M640.7,47.2c1.5,1,2.4,2.9,1.9,4.7
						c-0.5,2-2.2,3.3-4.2,3.4c1.3-0.8,2.3-2.2,2.7-3.9C641.5,49.9,641.3,48.4,640.7,47.2z M632.7,37.4v1.4c-0.8-0.2-1.5-0.3-2.2-0.2
						C631.1,38,631.9,37.6,632.7,37.4L632.7,37.4z M632.7,42.7v1.8c-0.3-0.2-0.6-0.4-1-0.5c-1-0.4-2-0.6-3-0.5v-1
						c1.1-0.5,2.3-0.6,3.5-0.1C632.3,42.5,632.5,42.6,632.7,42.7L632.7,42.7z M632.7,56.3v0.6c-0.4,0-0.8-0.1-1.2-0.3
						C631.9,56.5,632.3,56.4,632.7,56.3L632.7,56.3z M632.7,58.9v2.2c-0.4,0.3-0.9,0.5-1.5,0.6c-0.9,0.2-1.8,0.1-2.5-0.3v-1.8
						c0.7,0.1,1.4,0.1,2.1-0.1C631.5,59.4,632.1,59.2,632.7,58.9L632.7,58.9z M628.7,55v-0.9c0.6,0.1,1.2,0,1.8-0.1
						C629.9,54.5,629.3,54.8,628.7,55L628.7,55z M628.7,50.9v-4c1.1,0,2,0.9,2,2C630.6,50,629.7,50.8,628.7,50.9L628.7,50.9z
						 M628.7,39.2v-1.5c0.7,0.5,1.3,1.2,1.7,2.1C629.9,39.6,629.3,39.4,628.7,39.2z M628.7,37.8v1.5c-0.6-0.1-1.2-0.2-1.8-0.2v-2.2
						C627.5,37,628.1,37.4,628.7,37.8L628.7,37.8z M628.7,42.5v1c-0.6,0-1.2,0.2-1.7,0.4C627.4,43.3,628,42.8,628.7,42.5L628.7,42.5
						z M628.7,46.9v4h0c-0.8,0-1.4-0.4-1.7-1v-1.9C627.2,47.3,627.9,46.9,628.7,46.9L628.7,46.9L628.7,46.9z M628.7,54.1V55
						c-0.6,0.2-1.2,0.2-1.8,0.2v-1.5C627.5,53.9,628.1,54,628.7,54.1L628.7,54.1z M628.7,59.6v1.8c-0.7-0.3-1.3-0.8-1.8-1.3v-0.9
						C627.4,59.4,628,59.5,628.7,59.6L628.7,59.6z M626.9,56.8v-0.2c0.1,0,0.2,0,0.2,0C627.1,56.7,627,56.7,626.9,56.8z M626.9,36.9
						v2.2c-0.1,0-0.2,0-0.3,0v-2.3C626.7,36.8,626.8,36.8,626.9,36.9L626.9,36.9z M626.9,47.9v1.9c-0.2-0.3-0.2-0.6-0.2-0.9
						C626.7,48.5,626.7,48.2,626.9,47.9L626.9,47.9z M626.9,53.6v1.5c-0.1,0-0.2,0-0.3,0v-1.6C626.7,53.6,626.8,53.6,626.9,53.6
						L626.9,53.6z M626.9,56.6v0.2c-0.1,0.1-0.2,0.1-0.3,0.2v-0.4C626.7,56.6,626.8,56.6,626.9,56.6L626.9,56.6z M626.9,59.1V60
						c-0.1-0.1-0.2-0.2-0.3-0.4V59C626.7,59,626.8,59.1,626.9,59.1z M626.6,36.8v2.3c-0.7,0-1.3,0.1-2,0.3c-0.4,0.1-0.8,0.3-1.2,0.5
						V37c0.1-0.1,0.3-0.1,0.4-0.2C624.8,36.6,625.7,36.6,626.6,36.8L626.6,36.8z M626.6,53.5v1.6c-0.5-0.1-1.1-0.3-1.6-0.6
						c-0.8-0.5-1.3-1.2-1.6-2v-2.2c0.5,1,1.3,2,2.4,2.7C626.1,53.2,626.3,53.4,626.6,53.5L626.6,53.5z M626.6,56.6V57
						c-1,0.7-2.1,1-3.2,1v-2.2C624.5,56.4,625.6,56.6,626.6,56.6L626.6,56.6z M626.6,59v0.7c-0.2-0.3-0.4-0.6-0.5-1
						C626.3,58.8,626.4,58.9,626.6,59L626.6,59z M623.4,43.9v-1.6c1-0.3,2-0.3,3,0.1C625.4,42.6,624.3,43.1,623.4,43.9z M618.9,42.8
						c-0.1,0-0.3,0-0.4,0v0.3C618.6,43,618.8,42.9,618.9,42.8L618.9,42.8z M623.4,37v2.9c-1.5,0.7-2.7,1.8-3.4,3.1
						C619.7,40.4,621.1,37.9,623.4,37L623.4,37z M623.4,42.3c-0.8,0.2-1.4,0.7-2,1.3c-1.3,1.5-1.3,3.7-0.2,5.4
						c-0.1-1.5,0.4-3.1,1.6-4.5c0.2-0.2,0.4-0.5,0.6-0.7V42.3L623.4,42.3z M623.4,50.4v2.2c-0.4-0.9-0.5-1.8-0.3-2.8
						C623.2,50,623.3,50.2,623.4,50.4L623.4,50.4z M623.4,55.8c-0.6-0.3-1.2-0.7-1.7-1.1c-1.7-1.4-2.6-3.3-2.8-5.1
						c-0.2,0.3-0.3,0.6-0.4,0.9v4.3c0.3,0.8,0.8,1.4,1.5,2c1,0.9,2.2,1.3,3.5,1.3V55.8z M618.5,42.8c-1.7,0.2-3.2,1.3-3.7,3
						c-0.6,1.9,0.2,4,1.8,5.1c-0.7-1.3-0.8-3-0.2-4.7c0.4-1.3,1.2-2.4,2.2-3.1V42.8L618.5,42.8z M618.5,50.5v4.3
						C617.9,53.4,617.9,51.9,618.5,50.5z"/>
				</g>
				<g>
					<path class="st58" d="M601,71.6c2.3-0.2,5,2.5,5.6,4.3c1.5,3.9,7.9,6.5,12,2.3l0.3-1C617.2,71.4,611.9,65.8,601,71.6z"/>
					<path class="st27" d="M601,71.6c2.3-0.2,5,2.5,5.6,4.3c1.5,3.9,7.9,6.5,12,2.3c-2-2.1-7.2-5.8-12-6.6c4.8,0.2,10,3.6,12.3,5.6
						C617.2,71.4,611.9,65.8,601,71.6z"/>
				</g>
			</g>
			<g>
				<rect x="679.8" class="st27" width="23.4" height="138.4"/>
				<rect x="688.6" y="18.7" class="st59" width="5.9" height="110.2"/>
			</g>
			<path class="st29" d="M643.1,99.9h35.2c0.9,0,1.6,0.7,1.6,1.6v35.2c0,0.9-0.7,1.6-1.6,1.6h-35.2c-0.9,0-1.6-0.7-1.6-1.6v-35.2
				C641.4,100.7,642.2,99.9,643.1,99.9z"/>
			<g>
				<path class="st27" d="M643.9,125.9h8.7c0.6,0,1.1,0.5,1.1,1.1v8.7c0,0.6-0.5,1.1-1.1,1.1h-8.7c-0.6,0-1.1-0.5-1.1-1.1V127
					C642.8,126.4,643.3,125.9,643.9,125.9z"/>
				<path class="st13" d="M656.3,125.9h8.7c0.6,0,1.1,0.5,1.1,1.1v8.7c0,0.6-0.5,1.1-1.1,1.1h-8.7c-0.6,0-1.1-0.5-1.1-1.1V127
					C655.2,126.4,655.7,125.9,656.3,125.9z"/>
				<path class="st17" d="M668.7,125.9h8.7c0.6,0,1.1,0.5,1.1,1.1v8.7c0,0.6-0.5,1.1-1.1,1.1h-8.7c-0.6,0-1.1-0.5-1.1-1.1V127
					C667.6,126.4,668.1,125.9,668.7,125.9z"/>
				<path class="st13" d="M643.9,113.7h8.7c0.6,0,1.1,0.5,1.1,1.1v8.7c0,0.6-0.5,1.1-1.1,1.1h-8.7c-0.6,0-1.1-0.5-1.1-1.1v-8.7
					C642.8,114.2,643.3,113.7,643.9,113.7z"/>
				<path class="st5" d="M656.3,113.7h8.7c0.6,0,1.1,0.5,1.1,1.1v8.7c0,0.6-0.5,1.1-1.1,1.1h-8.7c-0.6,0-1.1-0.5-1.1-1.1v-8.7
					C655.2,114.2,655.7,113.7,656.3,113.7z"/>
				<path class="st7" d="M668.7,113.7h8.7c0.6,0,1.1,0.5,1.1,1.1v8.7c0,0.6-0.5,1.1-1.1,1.1h-8.7c-0.6,0-1.1-0.5-1.1-1.1v-8.7
					C667.6,114.2,668.1,113.7,668.7,113.7z"/>
				<path class="st17" d="M643.9,101.6h8.7c0.6,0,1.1,0.5,1.1,1.1v8.7c0,0.6-0.5,1.1-1.1,1.1h-8.7c-0.6,0-1.1-0.5-1.1-1.1v-8.7
					C642.8,102.1,643.3,101.6,643.9,101.6z"/>
				<path class="st27" d="M656.3,101.6h8.7c0.6,0,1.1,0.5,1.1,1.1v8.7c0,0.6-0.5,1.1-1.1,1.1h-8.7c-0.6,0-1.1-0.5-1.1-1.1v-8.7
					C655.2,102.1,655.7,101.6,656.3,101.6z"/>
				<path class="st13" d="M668.7,101.6h8.7c0.6,0,1.1,0.5,1.1,1.1v8.7c0,0.6-0.5,1.1-1.1,1.1h-8.7c-0.6,0-1.1-0.5-1.1-1.1v-8.7
					C667.6,102.1,668.1,101.6,668.7,101.6z"/>
			</g>
			<g>
				<rect x="703.2" y="25.2" class="st8" width="28.2" height="113.2"/>
				<g>
					<line class="st60" x1="710.1" y1="78.2" x2="710.1" y2="126.5"/>
					<line class="st60" x1="717" y1="78.2" x2="717" y2="126.5"/>
					<line class="st60" x1="723.8" y1="78.2" x2="723.8" y2="126.5"/>
					<rect x="710" y="37.1" class="st60" width="13.8" height="35.7"/>
				</g>
			</g>
			<g>
				
					<rect x="749.1" y="26" transform="matrix(0.9481 -0.3181 0.3181 0.9481 12.9801 244.7143)" class="st8" width="13.4" height="113.2"/>
				<path class="st7" d="M740.3,36.6c1.8-0.6,3.8,0.4,4.4,2.2c0.6,1.8-0.4,3.8-2.2,4.4c-1.8,0.6-3.8-0.4-4.4-2.2
					C737.6,39.1,738.5,37.2,740.3,36.6z"/>
				
					<rect x="755.2" y="48.1" transform="matrix(0.9481 -0.3181 0.3181 0.9481 10.4753 246.0366)" class="st7" width="6.9" height="85.7"/>
			</g>
			<g>
				
					<rect x="767.7" y="52.4" transform="matrix(0.9481 -0.3181 0.3181 0.9481 9.8646 251.2898)" class="st5" width="13.4" height="86.2"/>
				<line class="st60" x1="763.1" y1="61.9" x2="785.6" y2="129"/>
			</g>
			<g>
				
					<rect x="779.8" y="40.3" transform="matrix(0.9481 -0.3181 0.3181 0.9481 12.066 253.9607)" class="st61" width="7.8" height="99.4"/>
				<line class="st60" x1="773.4" y1="47.3" x2="766.1" y2="49.8"/>
				<line class="st60" x1="774.9" y1="51.7" x2="767.5" y2="54.2"/>
				<line class="st60" x1="801.7" y1="131.7" x2="794.4" y2="134.2"/>
			</g>
			<g>
				<path class="st62" d="M800,565.8h-57.8V578H800c3.4,0,6.1-2.7,6.1-6.1l0,0C806.1,568.5,803.4,565.8,800,565.8z"/>
				<path class="st8" d="M800.4,563.3h-61.6v2.5H800c3.4,0,6.1,2.7,6.1,6.1l0,0c0,3.4-2.7,6.1-6.1,6.1h-61.2v2.5h61.6
					c4.7,0,8.6-3.9,8.6-8.6l0,0C809,567.1,805.1,563.3,800.4,563.3z"/>
			</g>
			<g>
				<path class="st62" d="M818.4,548.6h-57.8v12.2h57.8c3.4,0,6.1-2.7,6.1-6.1l0,0C824.5,551.3,821.8,548.6,818.4,548.6z"/>
				<path class="st7" d="M818.8,546.1h-61.6v2.5h61.2c3.4,0,6.1,2.7,6.1,6.1l0,0c0,3.4-2.7,6.1-6.1,6.1h-61.2v2.5h61.6
					c4.7,0,8.6-3.9,8.6-8.6l0,0C827.4,550,823.5,546.1,818.8,546.1z"/>
			</g>
			<g>
				<path class="st62" d="M788.3,531.4h-57.8v12.2h57.8c3.4,0,6.1-2.7,6.1-6.1l0,0C794.4,534.1,791.7,531.4,788.3,531.4z"/>
				<path class="st5" d="M788.7,528.9h-61.6v2.5h61.2c3.4,0,6.1,2.7,6.1,6.1l0,0c0,3.4-2.7,6.1-6.1,6.1h-61.2v2.5h61.6
					c4.7,0,8.6-3.9,8.6-8.6l0,0C797.3,532.8,793.4,528.9,788.7,528.9z"/>
			</g>
			<g>
				<path class="st62" d="M800.9,514.2h-57.8v12.2h57.8c3.4,0,6.1-2.7,6.1-6.1l0,0C807,516.9,804.3,514.2,800.9,514.2z"/>
				<path class="st27" d="M801.3,511.7h-61.6v2.5h61.2c3.4,0,6.1,2.7,6.1,6.1l0,0c0,3.4-2.7,6.1-6.1,6.1h-61.2v2.5h61.6
					c4.7,0,8.6-3.9,8.6-8.6l0,0C809.9,515.6,806,511.7,801.3,511.7z"/>
			</g>
			<polygon class="st5" points="787.5,515.8 798.2,515.8 798.2,521.4 798.2,526.9 792.8,523.8 787.5,526.9 			"/>
			<polygon class="st63" points="786.7,568.5 797.4,568.5 797.4,574 797.4,579.5 792.1,576.4 786.7,579.5 			"/>
		</g>
	</g>
	<g>
		<g>
			<g>
				<rect x="343.9" y="194.4" class="st64" width="128.7" height="179.4"/>
				<rect x="363" y="255" class="st17" width="95.1" height="64.3"/>
				<rect x="340.9" y="194.4" class="st40" width="8.7" height="179.4"/>
			</g>
			<text transform="matrix(1 0 0 1 370.0039 275.9004)"><tspan x="0" y="0" class="st65 st66 st67">ELIGE TU</tspan><tspan x="8.2" y="17.1" class="st65 st66 st67">ALBUM</tspan><tspan x="36.1" y="34.3" class="st65 st66 st67">II</tspan></text>
		</g>
		<rect x="365.3" y="256.8" class="st68" width="90.3" height="60.3"/>
	</g>
	<g>
		<g>
			<g>
				<rect x="164.9" y="194.4" class="st64" width="128.7" height="179.4"/>
				<rect x="184" y="255" class="st17" width="95.1" height="64.3"/>
				<rect x="161.9" y="194.4" class="st69" width="8.7" height="179.4"/>
			</g>
			<text transform="matrix(1 0 0 1 191.0234 275.9004)"><tspan x="0" y="0" class="st65 st66 st67">ELIGE TU</tspan><tspan x="8.2" y="17.1" class="st65 st66 st67">ALBUM</tspan><tspan x="38.5" y="34.3" class="st65 st66 st67">I</tspan></text>
		</g>
		<rect x="186.3" y="256.8" class="st68" width="90.3" height="60.3"/>
	</g>
	<g>
		<g>
			<g>
				<rect x="524.1" y="194.4" class="st64" width="128.7" height="179.4"/>
				<rect x="543.2" y="255" class="st17" width="95.1" height="64.3"/>
				<rect x="521.1" y="194.4" class="st70" width="8.7" height="179.4"/>
			</g>
			<text transform="matrix(1 0 0 1 550.2021 275.9004)"><tspan x="0" y="0" class="st65 st66 st67">ELIGE TU</tspan><tspan x="8.2" y="17.1" class="st65 st66 st67">ALBUM</tspan><tspan x="33.7" y="34.3" class="st65 st66 st67">III</tspan></text>
		</g>
		<rect x="545.4" y="256.8" class="st68" width="90.3" height="60.3"/>
	</g>
</g>
</svg>
