<?xml version="1.0" encoding="utf-8"?>
<!-- Generator: Adobe Illustrator 22.1.0, SVG Export Plug-In . SVG Version: 6.00 Build 0)  -->
<svg version="1.1" id="Layer_1" xmlns="http://www.w3.org/2000/svg" xmlns:xlink="http://www.w3.org/1999/xlink" x="0px" y="0px"
	 viewBox="0 0 210.9 175.2" style="enable-background:new 0 0 210.9 175.2;" xml:space="preserve">
<style type="text/css">
	.st0{fill:#B3B3B3;}
	.st1{fill:#333333;}
	.st2{fill:#22B573;}
	.st3{fill:#5EFFB7;}
	.st4{fill-rule:evenodd;clip-rule:evenodd;fill:#22B573;}
</style>
<g>
	
		<rect x="44.7" y="9" transform="matrix(0.9925 -0.1224 0.1224 0.9925 -9.7939 15.7393)" class="st0" width="157.2" height="157.2"/>
	
		<rect x="55.3" y="21.9" transform="matrix(0.9925 -0.1224 0.1224 0.9925 -8.8323 15.5597)" class="st1" width="133.9" height="115.6"/>
</g>
<g>
	
		<rect x="37.2" y="35.2" transform="matrix(0.9989 -4.641401e-02 4.641401e-02 0.9989 -3.2021 2.6276)" class="st2" width="35.6" height="70.1"/>
	<path class="st1" d="M73.3,52c0,0.8-0.5,1.5-1.3,1.6c-8.2,1.6-32.7,6.5-44.4,8.8c-1.3,0.3-2.7-0.1-3.8-1.1
		c-2.8-2.5-6.4-3.7-10.2-3.6c-7.9,0.4-14,7.1-13.7,15c0.4,7.9,7.1,14,15,13.7c3.7-0.2,7.2-1.8,9.8-4.5c1-1.1,2.3-1.6,3.7-1.4
		c11.9,1.2,36.7,3.8,45.1,4.7c0.8,0.1,1.4,0.7,1.4,1.5l0.7,14.3l3.4-0.2l-0.7-14.3c-0.1-2.5-2-4.5-4.5-4.7
		c-8.3-0.9-33.2-3.4-45.1-4.7c-2.4-0.2-4.8,0.7-6.5,2.5c-1.9,2.1-4.6,3.3-7.4,3.4c-6,0.3-11.1-4.4-11.4-10.4
		c-0.3-6,4.4-11.1,10.4-11.4c2.8-0.1,5.6,0.8,7.7,2.7c1.9,1.7,4.3,2.4,6.7,1.9C40,63.5,64.5,58.7,72.7,57c2.4-0.5,4.1-2.6,4-5.1
		l-0.7-14.3l-3.4,0.2L73.3,52z"/>
	
		<rect x="71.5" y="34.3" transform="matrix(0.9989 -4.649304e-02 4.649304e-02 0.9989 -1.9181 3.5148)" class="st3" width="6.1" height="17.5"/>
	
		<rect x="74" y="86.9" transform="matrix(0.9989 -4.631890e-02 4.631890e-02 0.9989 -4.3455 3.6713)" class="st3" width="6.1" height="17.5"/>
</g>
<path class="st4" d="M92.5,65.5l20.5-1.9l0,0c0.3,0,0.5-0.1,0.7-0.3c0.2-0.1,0.4-0.4,0.5-0.6l8.2-18.9c0.3-0.6,0.7-1.1,1.2-1.4
	c0,0,0,0,0.1,0c0.5-0.3,1.1-0.5,1.7-0.5c0.6,0,1.2,0.2,1.8,0.5c0.5,0.3,0.9,0.8,1.2,1.4l8.2,18.9c0.1,0.3,0.3,0.5,0.5,0.6
	c0.2,0.1,0.4,0.2,0.7,0.3l20.5,1.9l0,0c0.6,0.1,1.2,0.3,1.7,0.7c0.5,0.4,0.8,0.9,1,1.5l0,0c0.2,0.6,0.2,1.3,0,1.8
	c-0.2,0.6-0.5,1.1-1,1.6l-15.4,13.6c-0.2,0.2-0.4,0.4-0.4,0.6c-0.1,0.2-0.1,0.5,0,0.8l4.5,20.1c0.1,0.6,0.1,1.3-0.1,1.8
	c-0.2,0.6-0.6,1.1-1.1,1.5c-0.5,0.4-1.1,0.6-1.7,0.6c-0.6,0-1.2-0.1-1.8-0.5L126,99.2c-0.2-0.1-0.5-0.2-0.7-0.2v0
	c-0.3,0-0.5,0.1-0.8,0.2l-17.7,10.5c-0.6,0.3-1.2,0.5-1.8,0.5c-0.6,0-1.2-0.2-1.7-0.6c-0.5-0.4-0.9-0.9-1.1-1.5
	c-0.2-0.6-0.3-1.2-0.1-1.8l4.5-20.1v0c0-0.3,0-0.5,0-0.8c-0.1-0.2-0.2-0.5-0.4-0.6L90.6,71.1c-0.5-0.4-0.8-1-1-1.6
	c-0.2-0.6-0.2-1.2,0-1.8c0.2-0.6,0.6-1.1,1-1.5C91.2,65.8,91.8,65.6,92.5,65.5L92.5,65.5z"/>
</svg>
