<?xml version="1.0" encoding="utf-8"?>
<!-- Generator: Adobe Illustrator 22.1.0, SVG Export Plug-In . SVG Version: 6.00 Build 0)  -->
<svg version="1.1" id="Layer_1" xmlns="http://www.w3.org/2000/svg" xmlns:xlink="http://www.w3.org/1999/xlink" x="0px" y="0px"
	 viewBox="0 0 9.9 21.6" style="enable-background:new 0 0 9.9 21.6;" xml:space="preserve">
<path style="fill-rule:evenodd;clip-rule:evenodd;fill:#E6E6E6;" d="M3.1,1.3C2,2.6,2.3,4.7,2.1,7.1c-0.7,0-1.4,0-2.1,0
	c0,1.2,0,2.4,0,3.7c0.7,0,1.5,0,2.2,0c0,3.6,0,7.2,0,10.7c1.3,0.2,3,0,4.4,0.1c0.1-3.6-0.1-7.4,0.1-10.8c1,0,1.9,0,2.8,0
	c0.3-1.1,0.3-2.5,0.4-3.7C8.8,7,7.5,7.2,6.6,7C6.7,6,6.3,4.3,7,3.9c0.8-0.2,2,0,2.9-0.1c0-1.3,0-2.5,0-3.8C7,0,4.5-0.3,3.1,1.3z"/>
</svg>
