<?xml version="1.0" encoding="utf-8"?>
<!-- Generator: Adobe Illustrator 22.1.0, SVG Export Plug-In . SVG Version: 6.00 Build 0)  -->
<svg version="1.1" id="Layer_1" xmlns="http://www.w3.org/2000/svg" xmlns:xlink="http://www.w3.org/1999/xlink" x="0px" y="0px"
	 viewBox="0 0 29 29" style="enable-background:new 0 0 29 29;" xml:space="preserve">
<style type="text/css">
	.st0{fill:#22B573;}
	.st1{fill:#F7F6F5;}
</style>
<g>
	<path class="st0" d="M28.1,14.5C28.1,7.1,22,1,14.5,1S0.9,7.1,0.9,14.5C0.9,21.9,7,28,14.5,28S28.1,21.9,28.1,14.5z"/>
	<g>
		<path class="st1" d="M16.3,20h1.4c-1.2,2.5-2.8,3.7-4.9,3.7c-0.9,0-1.5-0.2-1.9-0.5c-0.4-0.4-0.6-0.9-0.6-1.6
			c0-0.4,0.2-1.1,0.5-2.2l1.7-4.7c0.1-0.4,0.2-0.6,0.2-0.7s0-0.2-0.1-0.2c-0.1-0.1-0.1-0.1-0.2-0.1c-0.5,0-1,0.6-1.7,1.8H9.3
			c1.2-2.5,2.9-3.8,5-3.8c0.8,0,1.4,0.2,1.8,0.6s0.6,0.9,0.6,1.5c0,0.5-0.2,1.2-0.6,2.3l-1.6,4.3c-0.2,0.6-0.3,1-0.3,1.1
			c0,0.1,0,0.2,0.1,0.2c0.1,0.1,0.1,0.1,0.3,0.1c0.2,0,0.5-0.2,0.9-0.6C15.8,20.8,16.1,20.4,16.3,20z M18.6,6.6
			c0,0.6-0.2,1.1-0.6,1.5c-0.4,0.4-0.9,0.6-1.5,0.6c-0.6,0-1.1-0.2-1.5-0.6c-0.4-0.4-0.6-0.9-0.6-1.5c0-0.6,0.2-1.1,0.6-1.5
			c0.4-0.4,0.9-0.6,1.5-0.6c0.6,0,1.1,0.2,1.5,0.6C18.4,5.5,18.6,6,18.6,6.6z"/>
	</g>
</g>
</svg>
