<?xml version="1.0" encoding="utf-8"?>
<!-- Generator: Adobe Illustrator 23.0.1, SVG Export Plug-In . SVG Version: 6.00 Build 0)  -->
<svg version="1.1" id="Glyph" xmlns="http://www.w3.org/2000/svg" xmlns:xlink="http://www.w3.org/1999/xlink" x="0px" y="0px"
	 viewBox="0 0 32 32" style="enable-background:new 0 0 32 32;" xml:space="preserve">
<style type="text/css">
	.st0{fill:#999999;}
</style>
<g>
	<circle class="st0" cx="14.5" cy="14.5" r="5.3"/>
	<path class="st0" d="M16,1C7.7,1,1,7.7,1,16s6.7,15,15,15s15-6.7,15-15S24.3,1,16,1z M24.6,24.6c-0.6,0.6-1.5,0.6-2.1,0l-3.8-3.8
		C17.4,21.5,16,22,14.5,22C10.4,22,7,18.6,7,14.5S10.4,7,14.5,7s7.5,3.4,7.5,7.5c0,1.5-0.5,2.9-1.2,4.1l3.8,3.8
		C25.1,23,25.1,24,24.6,24.6z"/>
</g>
</svg>
