<?xml version="1.0" encoding="utf-8"?>
<!-- Generator: Adobe Illustrator 22.1.0, SVG Export Plug-In . SVG Version: 6.00 Build 0)  -->
<svg version="1.1" id="Layer_1" xmlns="http://www.w3.org/2000/svg" xmlns:xlink="http://www.w3.org/1999/xlink" x="0px" y="0px"
	 viewBox="0 0 21.4 21.3" style="enable-background:new 0 0 21.4 21.3;" xml:space="preserve">
<g id="_x30_PiQnD_1_">
	<g>
		<path style="fill-rule:evenodd;clip-rule:evenodd;fill:#E6E6E6;" d="M8.1,0.1c1.7-0.1,3.6-0.1,5.3,0c1.9,0.1,3.4,0.1,4.6,0.7
			c1.2,0.6,2.2,1.6,2.6,2.7c0.5,1.2,0.6,2.7,0.7,4.7c0.1,1.6,0,3.5,0,5.3c-0.1,2-0.1,3.3-0.7,4.6c-0.6,1.2-1.5,2.1-2.7,2.6
			c-1.3,0.6-2.7,0.6-4.7,0.7c-1.9,0.1-3.4,0.1-5.2,0c-1.9-0.1-3.4-0.1-4.7-0.7c-1.2-0.5-2.1-1.5-2.6-2.7c-0.6-1.3-0.6-2.7-0.7-4.7
			C0,11.4,0,9.9,0.1,8c0.1-2,0.1-3.4,0.7-4.7c0.5-1.2,1.5-2.2,2.6-2.7C4.7,0.1,6.1,0.2,8.1,0.1z M7.4,2C5.3,2,3.6,2.3,2.7,3.8
			C1.8,5.2,2,7.9,2,10.2c0,2.2-0.2,5.1,0.4,6.7c0.3,0.9,1,1.6,1.8,2c0.9,0.4,2.1,0.4,3.4,0.5c1.4,0.1,2.6,0,3.8,0
			c2.4,0,5.2,0.2,6.6-1.1c1.4-1.3,1.4-3.6,1.4-6.3c0-1.4,0-2.6,0-3.8c0-1.2,0-2.6-0.3-3.6c-0.6-1.7-2.1-2.5-4.5-2.6
			C12.4,1.9,9.8,1.9,7.4,2C7.5,2,7.5,2,7.4,2z"/>
		<path style="fill-rule:evenodd;clip-rule:evenodd;fill:#E6E6E6;" d="M16.1,3.8c0.7-0.1,1.4,0.3,1.5,1c0.3,1.9-2.6,2-2.6,0.3
			C15.1,4.3,15.4,3.9,16.1,3.8z"/>
		<path style="fill-rule:evenodd;clip-rule:evenodd;fill:#E6E6E6;" d="M10.4,5.2c1.6-0.1,3.1,0.6,4,1.5c0.9,0.8,1.6,2.2,1.7,3.7
			c0.1,1.8-0.6,3.1-1.5,4c-1,1-2.1,1.6-3.7,1.7c-1.6,0.1-3-0.5-4-1.4c-1-0.9-1.6-2-1.7-3.7c-0.1-1.6,0.6-3,1.4-4
			C7.5,6.1,8.7,5.3,10.4,5.2z M7.1,10.5C7,12.9,9,14.3,10.9,14.2c1.7-0.1,3.5-1.5,3.3-3.8c-0.1-1.3-0.7-2.1-1.5-2.6
			c-0.6-0.4-1.4-0.7-2.4-0.6C8.6,7.4,7.2,8.6,7.1,10.5z"/>
	</g>
</g>
</svg>
