<svg id="Layer_1" data-name="Layer 1" xmlns="http://www.w3.org/2000/svg" viewBox="0 0 96.4 144"><defs><style>.cls-1{fill:#ffc100;}.cls-2{fill:#f15a24;}.cls-3{fill:#22b573;}</style></defs><title>success-des</title><path class="cls-1" d="M0,84.39S38.35,55.48,72.21,67.52,99.34,112,82.56,121.24c-12.67,7-29.43,4.94-42.16-19S0,84.39,0,84.39"/><path class="cls-2" d="M3.71,94.36s23.61,12.12,25.66,30.73-17.51,23-24.55,15.35-3.9-11-.12-22.63-1-23.45-1-23.45"/><path class="cls-3" d="M22,59.1S48.67,56,54.87,37.71,43.12,12.6,35.14,24.47C29,33.56,38.76,41.32,22,59.1"/><path class="cls-2" d="M67.14,49.86c6.33-1.12,6.4-1.1,12.12,1.83-1.11-6.33-1.1-6.41,1.83-12.12-6.33,1.11-6.41,1.1-12.12-1.83,1.11,6.32,1.1,6.4-1.83,12.12"/><path class="cls-1" d="M50.69,8.08C54.9,7.34,55,7.34,58.76,9.3,58,5.08,58,5,60,1.22,55.77,2,55.72,2,51.91,0c.74,4.22.73,4.27-1.22,8.08"/></svg>