<?xml version="1.0" encoding="utf-8"?>
<!-- Generator: Adobe Illustrator 22.1.0, SVG Export Plug-In . SVG Version: 6.00 Build 0)  -->
<svg version="1.1" id="Layer_1" xmlns="http://www.w3.org/2000/svg" xmlns:xlink="http://www.w3.org/1999/xlink" x="0px" y="0px"
	 viewBox="0 0 131.3 140.5" style="enable-background:new 0 0 131.3 140.5;" xml:space="preserve">
<style type="text/css">
	.st0{fill:#C1272D;}
	.st1{fill:#22B573;}
	.st2{fill:#FFC100;}
	.st3{fill:#E6E7E8;}
	.st4{fill:#CDF7F5;}
	.st5{fill:#0071BC;}
	.st6{fill:#E2E4E8;}
	.st7{fill:#BCBEC0;}
</style>
<g>
	<g>
		<g id="_x37__7_">
			<g>
				<g>
					<g>
						<polygon class="st0" points="127.7,130.9 93.2,130.5 67.1,139.8 111.5,140.5 						"/>
					</g>
				</g>
				<g>
					<g>
						<polygon class="st1" points="127,129.4 92.5,129 66.4,138.3 110.9,139 						"/>
					</g>
				</g>
				<g>
					<polygon class="st2" points="127,127.3 92.5,126.9 66.4,136.2 110.8,136.9 					"/>
				</g>
				<g>
					<polygon class="st3" points="128.3,125.4 93.8,125.1 67.7,134.4 112.1,135.1 					"/>
				</g>
			</g>
			<g>
				<g>
					<polygon class="st4" points="126.8,124.4 92.3,124.1 66.2,133.4 110.7,134.1 					"/>
				</g>
				<g>
					<g>
						<polygon class="st5" points="128.1,122.5 93.6,122.1 67.5,131.4 111.9,132.1 						"/>
					</g>
				</g>
				<g>
					<g>
						<polygon class="st1" points="128.1,120.4 93.6,120 67.5,129.3 111.9,130 						"/>
					</g>
				</g>
				<g>
					<polygon class="st4" points="129.3,118.5 94.9,118.1 68.8,127.4 113.2,128.1 					"/>
				</g>
				<g>
					<polygon class="st2" points="129.4,117 94.9,116.6 68.8,125.9 113.2,126.6 					"/>
				</g>
			</g>
			<g>
				<g>
					<path class="st6" d="M97.3,115.6c-2.5,2.2-6.5,2.6-10.1,1.6l-2.6,0.9l-18.9,6.7l27.8,0.4l16.7,0.3l16.2-9.6L97.3,115.6z"/>
					<path class="st6" d="M95.7,115.7l-5.5-0.1l-4.7,1.7C89.1,118.3,93.2,117.9,95.7,115.7z"/>
				</g>
			</g>
		</g>
		<g id="_x37__6_">
			<g>
				<g>
					<g>
						<polygon class="st0" points="128.3,114.8 93.8,114.4 67.7,123.7 112.1,124.4 						"/>
					</g>
				</g>
				<g>
					<g>
						<polygon class="st5" points="127.6,113.3 93.1,113 67,122.2 111.5,122.9 						"/>
					</g>
				</g>
				<g>
					<polygon class="st7" points="127.6,111.2 93.1,110.9 67,120.1 111.5,120.8 					"/>
				</g>
				<g>
					<polygon class="st4" points="128.9,109.3 94.4,109 68.3,118.3 112.7,119 					"/>
				</g>
			</g>
			<g>
				<g>
					<g>
						<polygon class="st0" points="127.4,108.3 93,108 66.8,117.3 111.3,118 						"/>
					</g>
				</g>
				<g>
					<polygon class="st2" points="128.7,106.4 94.2,106 68.1,115.3 112.5,116 					"/>
				</g>
				<g>
					<polygon class="st4" points="128.7,104.3 94.2,103.9 68.1,113.2 112.5,113.9 					"/>
				</g>
				<g>
					<g>
						<polygon class="st1" points="129.9,102.4 95.5,102 69.4,111.3 113.8,112 						"/>
					</g>
				</g>
				<g>
					<polygon class="st7" points="128.3,100.9 93.9,100.5 67.8,109.8 112.2,110.5 					"/>
				</g>
			</g>
			<g>
				<g>
					<polygon class="st5" points="66.3,108.8 94.1,109.2 85.2,102.1 					"/>
					<path class="st5" d="M97.9,99.6c-2.5,2.2-6.6,2.6-10.1,1.6l-2.6,0.9l8.9,7.1l16.7,0.3l16.2-9.6L97.9,99.6z"/>
					<path class="st6" d="M96.3,99.6l-5.5-0.1l-4.7,1.7C89.7,102.2,93.8,101.8,96.3,99.6z"/>
				</g>
			</g>
		</g>
		<g id="_x37__5_">
			<g>
				<g>
					<polygon class="st4" points="129,97.7 94.5,97.3 68.4,106.6 112.9,107.3 					"/>
				</g>
				<g>
					<g>
						<polygon class="st1" points="128.4,96.2 93.9,95.9 67.8,105.2 112.2,105.9 						"/>
					</g>
				</g>
				<g>
					<g>
						<polygon class="st5" points="128.3,94.1 93.9,93.8 67.8,103.1 112.2,103.8 						"/>
					</g>
				</g>
				<g>
					<polygon class="st3" points="129.6,92.3 95.1,91.9 69,101.2 113.4,101.9 					"/>
				</g>
			</g>
			<g>
				<g>
					<g>
						<polygon class="st0" points="128.2,91.3 93.7,90.9 67.6,100.2 112,100.9 						"/>
					</g>
				</g>
				<g>
					<g>
						<polygon class="st1" points="129.4,89.3 94.9,88.9 68.8,98.2 113.2,98.9 						"/>
					</g>
				</g>
				<g>
					<polygon class="st4" points="129.4,87.2 94.9,86.8 68.8,96.1 113.2,96.8 					"/>
				</g>
				<g>
					<g>
						<polygon class="st5" points="130.7,85.3 96.2,85 70.1,94.2 114.5,94.9 						"/>
					</g>
				</g>
				<g>
					<polygon class="st7" points="130.7,83.8 96.2,83.4 70.1,92.7 114.5,93.4 					"/>
				</g>
			</g>
			<g>
				<g>
					<path class="st0" d="M100.3,82.4c-2.5,2.2-6.5,2.6-10.1,1.6L87.6,85l-18.9,6.7l27.8,0.4l16.7,0.3l16.2-9.6L100.3,82.4z"/>
					<path class="st6" d="M97,82.5l-5.5-0.1l-4.7,1.7C90.5,85.1,94.5,84.7,97,82.5z"/>
				</g>
			</g>
		</g>
		<g id="_x37__4_">
			<g>
				<g>
					<g>
						<polygon class="st1" points="129.6,81.6 95.2,81.2 69,90.5 113.5,91.2 						"/>
					</g>
				</g>
				<g>
					<polygon class="st2" points="129,80.1 94.5,79.8 68.4,89.1 112.8,89.8 					"/>
				</g>
				<g>
					<g>
						<polygon class="st0" points="128.9,78 94.5,77.7 68.4,87 112.8,87.7 						"/>
					</g>
				</g>
				<g>
					<g>
						<polygon class="st5" points="130.2,76.2 95.7,75.8 69.6,85.1 114,85.8 						"/>
					</g>
				</g>
			</g>
			<g>
				<g>
					<g>
						<polygon class="st1" points="128.8,75.2 94.3,74.8 68.2,84.1 112.6,84.8 						"/>
					</g>
				</g>
				<g>
					<polygon class="st2" points="130,73.2 95.5,72.8 69.4,82.1 113.9,82.8 					"/>
				</g>
				<g>
					<g>
						<polygon class="st5" points="130,71.1 95.5,70.7 69.4,80 113.8,80.7 						"/>
					</g>
				</g>
				<g>
					<g>
						<polygon class="st0" points="131.3,69.2 96.8,68.9 70.7,78.1 115.1,78.8 						"/>
					</g>
				</g>
				<g>
					<g>
						<polygon class="st5" points="131.3,67.7 96.8,67.3 70.7,76.6 115.1,77.3 						"/>
					</g>
				</g>
			</g>
			<polygon class="st2" points="97.6,66.4 92.2,66.4 87.5,68 84.9,68.9 66,75.6 93.8,76.1 110.5,76.3 126.6,66.7 			"/>
		</g>
		<g id="_x37__17_">
			<g>
				<g>
					<polygon class="st4" points="129,64.3 94.5,63.9 68.4,73.2 112.9,73.9 					"/>
				</g>
				<g>
					<g>
						<polygon class="st1" points="128.4,62.8 93.9,62.5 67.8,71.7 112.2,72.5 						"/>
					</g>
				</g>
				<g>
					<g>
						<polygon class="st5" points="128.3,60.7 93.9,60.4 67.8,69.7 112.2,70.4 						"/>
					</g>
				</g>
				<g>
					<polygon class="st3" points="129.6,58.9 95.1,58.5 69,67.8 113.4,68.5 					"/>
				</g>
			</g>
			<g>
				<g>
					<g>
						<polygon class="st0" points="128.2,57.9 93.7,57.5 67.6,66.8 112,67.5 						"/>
					</g>
				</g>
				<g>
					<g>
						<polygon class="st1" points="129.4,55.9 94.9,55.5 68.8,64.8 113.2,65.5 						"/>
					</g>
				</g>
				<g>
					<polygon class="st4" points="129.4,53.8 94.9,53.4 68.8,62.7 113.2,63.4 					"/>
				</g>
				<g>
					<g>
						<polygon class="st5" points="130.7,51.9 96.2,51.5 70.1,60.8 114.5,61.5 						"/>
					</g>
				</g>
				<g>
					<polygon class="st7" points="130.7,50.4 96.2,50 70.1,59.3 114.5,60 					"/>
				</g>
			</g>
			<g>
				<g>
					<path class="st0" d="M100.3,49c-2.5,2.2-6.5,2.6-10.1,1.6l-2.6,0.9l-18.9,6.7l27.8,0.4l16.7,0.3l16.2-9.6L100.3,49z"/>
					<path class="st6" d="M97,49.1L91.6,49l-4.7,1.7C90.5,51.7,94.5,51.3,97,49.1z"/>
				</g>
			</g>
		</g>
		<g id="_x37__16_">
			<g>
				<g>
					<g>
						<polygon class="st1" points="129.6,48.2 95.2,47.8 69,57.1 113.5,57.8 						"/>
					</g>
				</g>
				<g>
					<polygon class="st2" points="129,46.7 94.5,46.4 68.4,55.7 112.8,56.4 					"/>
				</g>
				<g>
					<g>
						<polygon class="st0" points="128.9,44.6 94.5,44.3 68.4,53.6 112.8,54.3 						"/>
					</g>
				</g>
				<g>
					<g>
						<polygon class="st5" points="130.2,42.8 95.7,42.4 69.6,51.7 114,52.4 						"/>
					</g>
				</g>
			</g>
			<g>
				<g>
					<g>
						<polygon class="st1" points="128.8,41.8 94.3,41.4 68.2,50.7 112.6,51.4 						"/>
					</g>
				</g>
				<g>
					<polygon class="st2" points="130,39.8 95.5,39.4 69.4,48.7 113.9,49.4 					"/>
				</g>
				<g>
					<g>
						<polygon class="st5" points="130,37.7 95.5,37.3 69.4,46.6 113.8,47.3 						"/>
					</g>
				</g>
				<g>
					<g>
						<polygon class="st0" points="131.3,35.8 96.8,35.5 70.7,44.7 115.1,45.4 						"/>
					</g>
				</g>
				<g>
					<g>
						<polygon class="st5" points="131.3,34.3 96.8,33.9 70.7,43.2 115.1,43.9 						"/>
					</g>
				</g>
			</g>
			<polygon class="st2" points="97.6,33 92.2,32.9 87.5,34.6 84.9,35.5 66,42.2 93.8,42.7 110.5,42.9 126.6,33.3 			"/>
		</g>
	</g>
	<g>
		<g id="_x37__11_">
			<g>
				<g>
					<g>
						<polygon class="st0" points="62,130.9 27.5,130.5 1.4,139.8 45.8,140.5 						"/>
					</g>
				</g>
				<g>
					<g>
						<polygon class="st1" points="61.3,129.4 26.8,129 0.7,138.3 45.1,139 						"/>
					</g>
				</g>
				<g>
					<polygon class="st2" points="61.3,127.3 26.8,126.9 0.7,136.2 45.1,136.9 					"/>
				</g>
				<g>
					<polygon class="st3" points="62.5,125.4 28.1,125.1 1.9,134.4 46.4,135.1 					"/>
				</g>
			</g>
			<g>
				<g>
					<polygon class="st4" points="61.1,124.4 26.6,124.1 0.5,133.4 44.9,134.1 					"/>
				</g>
				<g>
					<g>
						<polygon class="st5" points="62.3,122.5 27.9,122.1 1.8,131.4 46.2,132.1 						"/>
					</g>
				</g>
				<g>
					<g>
						<polygon class="st1" points="62.3,120.4 27.9,120 1.7,129.3 46.2,130 						"/>
					</g>
				</g>
				<g>
					<polygon class="st4" points="63.6,118.5 29.1,118.1 3,127.4 47.4,128.1 					"/>
				</g>
				<g>
					<polygon class="st2" points="63.6,117 29.1,116.6 3,125.9 47.5,126.6 					"/>
				</g>
			</g>
			<g>
				<g>
					<path class="st6" d="M31.6,115.6c-2.5,2.2-6.5,2.6-10.1,1.6l-2.6,0.9L0,124.9l27.8,0.4l16.7,0.3l16.2-9.6L31.6,115.6z"/>
					<path class="st6" d="M29.9,115.7l-5.5-0.1l-4.7,1.7C23.4,118.3,27.4,117.9,29.9,115.7z"/>
				</g>
			</g>
		</g>
		<g id="_x37__10_">
			<g>
				<g>
					<g>
						<polygon class="st0" points="62.6,114.8 28.1,114.4 2,123.7 46.4,124.4 						"/>
					</g>
				</g>
				<g>
					<g>
						<polygon class="st5" points="61.9,113.3 27.4,113 1.3,122.2 45.7,122.9 						"/>
					</g>
				</g>
				<g>
					<polygon class="st7" points="61.9,111.2 27.4,110.9 1.3,120.1 45.7,120.8 					"/>
				</g>
				<g>
					<polygon class="st4" points="63.1,109.3 28.7,109 2.5,118.3 47,119 					"/>
				</g>
			</g>
			<g>
				<g>
					<g>
						<polygon class="st0" points="61.7,108.3 27.2,108 1.1,117.3 45.5,118 						"/>
					</g>
				</g>
				<g>
					<polygon class="st2" points="62.9,106.4 28.5,106 2.4,115.3 46.8,116 					"/>
				</g>
				<g>
					<polygon class="st4" points="62.9,104.3 28.5,103.9 2.3,113.2 46.8,113.9 					"/>
				</g>
				<g>
					<g>
						<polygon class="st1" points="64.2,102.4 29.7,102 3.6,111.3 48,112 						"/>
					</g>
				</g>
				<g>
					<polygon class="st7" points="62.6,100.9 28.1,100.5 2,109.8 46.4,110.5 					"/>
				</g>
			</g>
			<g>
				<g>
					<polygon class="st5" points="0.6,108.8 28.4,109.2 19.5,102.1 					"/>
					<path class="st5" d="M32.2,99.6c-2.5,2.2-6.5,2.6-10.1,1.6l-2.6,0.9l8.9,7.1l16.7,0.3l16.2-9.6L32.2,99.6z"/>
					<path class="st6" d="M30.5,99.6l-5.5-0.1l-4.7,1.7C24,102.2,28,101.8,30.5,99.6z"/>
				</g>
			</g>
		</g>
		<g id="_x37__9_">
			<g>
				<g>
					<polygon class="st4" points="63.3,97.7 28.8,97.3 2.7,106.6 47.1,107.3 					"/>
				</g>
				<g>
					<g>
						<polygon class="st1" points="62.6,96.2 28.1,95.9 2,105.2 46.4,105.9 						"/>
					</g>
				</g>
				<g>
					<g>
						<polygon class="st5" points="62.6,94.1 28.1,93.8 2,103.1 46.4,103.8 						"/>
					</g>
				</g>
				<g>
					<polygon class="st3" points="63.9,92.3 29.4,91.9 3.3,101.2 47.7,101.9 					"/>
				</g>
			</g>
			<g>
				<g>
					<g>
						<polygon class="st0" points="62.4,91.3 27.9,90.9 1.8,100.2 46.3,100.9 						"/>
					</g>
				</g>
				<g>
					<g>
						<polygon class="st1" points="63.7,89.3 29.2,88.9 3.1,98.2 47.5,98.9 						"/>
					</g>
				</g>
				<g>
					<polygon class="st4" points="63.7,87.2 29.2,86.8 3.1,96.1 47.5,96.8 					"/>
				</g>
				<g>
					<g>
						<polygon class="st5" points="64.9,85.3 30.4,85 4.3,94.2 48.8,94.9 						"/>
					</g>
				</g>
				<g>
					<polygon class="st7" points="65,83.8 30.5,83.4 4.4,92.7 48.8,93.4 					"/>
				</g>
			</g>
			<g>
				<g>
					<path class="st0" d="M34.5,82.4C32,84.6,28,85,24.4,84L21.8,85L3,91.7l27.8,0.4l16.7,0.3l16.2-9.6L34.5,82.4z"/>
					<path class="st6" d="M31.3,82.5l-5.5-0.1l-4.7,1.7C24.7,85.1,28.8,84.7,31.3,82.5z"/>
				</g>
			</g>
		</g>
		<g id="_x37__8_">
			<g>
				<g>
					<g>
						<polygon class="st1" points="63.9,81.6 29.4,81.2 3.3,90.5 47.7,91.2 						"/>
					</g>
				</g>
				<g>
					<polygon class="st2" points="63.2,80.1 28.7,79.8 2.6,89.1 47.1,89.8 					"/>
				</g>
				<g>
					<g>
						<polygon class="st0" points="63.2,78 28.7,77.7 2.6,87 47,87.7 						"/>
					</g>
				</g>
				<g>
					<g>
						<polygon class="st5" points="64.5,76.2 30,75.8 3.9,85.1 48.3,85.8 						"/>
					</g>
				</g>
			</g>
			<g>
				<g>
					<g>
						<polygon class="st1" points="63,75.2 28.5,74.8 2.4,84.1 46.9,84.8 						"/>
					</g>
				</g>
				<g>
					<polygon class="st2" points="64.3,73.2 29.8,72.8 3.7,82.1 48.1,82.8 					"/>
				</g>
				<g>
					<g>
						<polygon class="st5" points="64.3,71.1 29.8,70.7 3.7,80 48.1,80.7 						"/>
					</g>
				</g>
				<g>
					<g>
						<polygon class="st0" points="65.5,69.2 31.1,68.9 4.9,78.1 49.4,78.8 						"/>
					</g>
				</g>
				<g>
					<g>
						<polygon class="st5" points="65.6,67.7 31.1,67.3 5,76.6 49.4,77.3 						"/>
					</g>
				</g>
			</g>
			<polygon class="st2" points="31.9,66.4 26.4,66.4 21.8,68 19.2,68.9 0.3,75.6 28.1,76.1 44.7,76.3 60.9,66.7 			"/>
		</g>
	</g>
	<g>
		<g id="_x37__15_">
			<g>
				<g>
					<g>
						<polygon class="st0" points="64.1,63.5 29.6,63.2 3.5,72.5 47.9,73.2 						"/>
					</g>
				</g>
				<g>
					<g>
						<polygon class="st1" points="63.4,62.1 28.9,61.7 2.8,71 47.2,71.7 						"/>
					</g>
				</g>
				<g>
					<polygon class="st2" points="63.4,60 28.9,59.6 2.8,68.9 47.2,69.6 					"/>
				</g>
				<g>
					<polygon class="st3" points="64.7,58.1 30.2,57.8 4.1,67 48.5,67.7 					"/>
				</g>
			</g>
			<g>
				<g>
					<polygon class="st4" points="63.2,57.1 28.7,56.8 2.6,66 47,66.7 					"/>
				</g>
				<g>
					<g>
						<polygon class="st5" points="64.5,55.1 30,54.8 3.9,64.1 48.3,64.8 						"/>
					</g>
				</g>
				<g>
					<g>
						<polygon class="st1" points="64.5,53 30,52.7 3.9,62 48.3,62.7 						"/>
					</g>
				</g>
				<g>
					<polygon class="st4" points="65.7,51.2 31.2,50.8 5.1,60.1 49.6,60.8 					"/>
				</g>
				<g>
					<polygon class="st2" points="65.8,49.6 31.3,49.3 5.2,58.6 49.6,59.3 					"/>
				</g>
			</g>
			<g>
				<g>
					<path class="st6" d="M33.7,48.3c-2.5,2.2-6.5,2.6-10.1,1.6L21,50.8L2.1,57.5L29.9,58l16.7,0.3l16.2-9.6L33.7,48.3z"/>
					<path class="st6" d="M32.1,48.4l-5.5-0.1L21.9,50C25.5,50.9,29.6,50.5,32.1,48.4z"/>
				</g>
			</g>
		</g>
		<g id="_x37__14_">
			<g>
				<g>
					<g>
						<polygon class="st0" points="64.7,47.4 30.2,47.1 4.1,56.4 48.5,57.1 						"/>
					</g>
				</g>
				<g>
					<g>
						<polygon class="st5" points="64,46 29.5,45.6 3.4,54.9 47.8,55.6 						"/>
					</g>
				</g>
				<g>
					<polygon class="st7" points="64,43.9 29.5,43.5 3.4,52.8 47.8,53.5 					"/>
				</g>
				<g>
					<polygon class="st4" points="65.3,42 30.8,41.7 4.7,50.9 49.1,51.6 					"/>
				</g>
			</g>
			<g>
				<g>
					<g>
						<polygon class="st0" points="63.8,41 29.3,40.7 3.2,49.9 47.7,50.6 						"/>
					</g>
				</g>
				<g>
					<polygon class="st2" points="65.1,39 30.6,38.7 4.5,48 48.9,48.7 					"/>
				</g>
				<g>
					<polygon class="st4" points="65.1,36.9 30.6,36.6 4.5,45.9 48.9,46.6 					"/>
				</g>
				<g>
					<g>
						<polygon class="st1" points="66.3,35.1 31.8,34.7 5.7,44 50.2,44.7 						"/>
					</g>
				</g>
				<g>
					<polygon class="st7" points="64.7,33.6 30.3,33.2 4.1,42.5 48.6,43.2 					"/>
				</g>
			</g>
			<g>
				<g>
					<polygon class="st5" points="2.7,41.5 30.5,41.9 21.6,34.7 					"/>
					<path class="st5" d="M34.3,32.2c-2.5,2.2-6.5,2.6-10.1,1.6l-2.6,0.9l8.9,7.1l16.7,0.3l16.2-9.6L34.3,32.2z"/>
					<path class="st6" d="M32.7,32.3l-5.5-0.1l-4.7,1.7C26.1,34.9,30.2,34.5,32.7,32.3z"/>
				</g>
			</g>
		</g>
		<g id="_x37__13_">
			<g>
				<g>
					<polygon class="st4" points="65.4,30.4 30.9,30 4.8,39.3 49.2,40 					"/>
				</g>
				<g>
					<g>
						<polygon class="st1" points="64.7,28.9 30.3,28.5 4.1,37.8 48.6,38.5 						"/>
					</g>
				</g>
				<g>
					<g>
						<polygon class="st5" points="64.7,26.8 30.2,26.4 4.1,35.7 48.6,36.4 						"/>
					</g>
				</g>
				<g>
					<polygon class="st3" points="66,24.9 31.5,24.6 5.4,33.9 49.8,34.6 					"/>
				</g>
			</g>
			<g>
				<g>
					<g>
						<polygon class="st0" points="64.5,23.9 30.1,23.6 4,32.9 48.4,33.6 						"/>
					</g>
				</g>
				<g>
					<g>
						<polygon class="st1" points="65.8,22 31.3,21.6 5.2,30.9 49.6,31.6 						"/>
					</g>
				</g>
				<g>
					<polygon class="st4" points="65.8,19.9 31.3,19.5 5.2,28.8 49.6,29.5 					"/>
				</g>
				<g>
					<g>
						<polygon class="st5" points="67.1,18 32.6,17.6 6.5,26.9 50.9,27.6 						"/>
					</g>
				</g>
				<g>
					<polygon class="st7" points="67.1,16.5 32.6,16.1 6.5,25.4 50.9,26.1 					"/>
				</g>
			</g>
			<g>
				<g>
					<path class="st0" d="M36.7,15.1c-2.5,2.2-6.5,2.6-10.1,1.6L24,17.6L5.1,24.3l27.8,0.4L49.5,25l16.2-9.6L36.7,15.1z"/>
					<path class="st6" d="M33.4,15.2l-5.5-0.1l-4.7,1.7C26.8,17.8,30.9,17.4,33.4,15.2z"/>
				</g>
			</g>
		</g>
		<g id="_x37__12_">
			<g>
				<g>
					<g>
						<polygon class="st1" points="66,14.3 31.5,13.9 5.4,23.2 49.9,23.9 						"/>
					</g>
				</g>
				<g>
					<polygon class="st2" points="65.3,12.8 30.9,12.5 4.8,21.7 49.2,22.4 					"/>
				</g>
				<g>
					<g>
						<polygon class="st0" points="65.3,10.7 30.9,10.4 4.7,19.6 49.2,20.3 						"/>
					</g>
				</g>
				<g>
					<g>
						<polygon class="st5" points="66.6,8.8 32.1,8.5 6,17.8 50.4,18.5 						"/>
					</g>
				</g>
			</g>
			<g>
				<g>
					<g>
						<polygon class="st1" points="65.2,7.8 30.7,7.5 4.6,16.8 49,17.5 						"/>
					</g>
				</g>
				<g>
					<polygon class="st2" points="66.4,5.9 31.9,5.5 5.8,14.8 50.2,15.5 					"/>
				</g>
				<g>
					<g>
						<polygon class="st5" points="66.4,3.8 31.9,3.4 5.8,12.7 50.2,13.4 						"/>
					</g>
				</g>
				<g>
					<g>
						<polygon class="st0" points="67.7,1.9 33.2,1.5 7.1,10.8 51.5,11.5 						"/>
					</g>
				</g>
				<g>
					<g>
						<polygon class="st5" points="67.7,0.4 33.2,0 7.1,9.3 51.5,10 						"/>
					</g>
				</g>
			</g>
		</g>
	</g>
</g>
</svg>
