<?xml version="1.0" encoding="utf-8"?>
<!-- Generator: Adobe Illustrator 22.1.0, SVG Export Plug-In . SVG Version: 6.00 Build 0)  -->
<svg version="1.1" id="Layer_1" xmlns="http://www.w3.org/2000/svg" xmlns:xlink="http://www.w3.org/1999/xlink" x="0px" y="0px"
	 viewBox="0 0 152.1 217.6" style="enable-background:new 0 0 152.1 217.6;" xml:space="preserve">
<style type="text/css">
	.st0{fill:#4D4D4D;}
	.st1{fill:#CCCCCC;}
</style>
<g>
	<g>
		<polygon class="st0" points="83.7,-612.9 152.4,-612.9 152.4,-643 -0.3,-643 -0.3,-612.9 68.4,-612.9 68.4,187.6 -0.3,187.6 
			-0.3,217.6 152.4,217.6 152.4,187.6 83.7,187.6 		"/>
	</g>
	<g>
		<path class="st0" d="M29.6,31.2c0,6.6,5.4,12,12,12c6.6,0,12-5.4,12-12c0-6.6-5.4-12-12-12C35,19.2,29.6,24.6,29.6,31.2"/>
		<path class="st0" d="M29.6,74.4c0,6.6,5.4,12,12,12c6.6,0,12-5.4,12-12c0-6.6-5.4-12-12-12C35,62.4,29.6,67.8,29.6,74.4"/>
		<path class="st0" d="M29.6,117.6c0,6.6,5.4,12,12,12c6.6,0,12-5.4,12-12c0-6.6-5.4-12-12-12C35,105.6,29.6,110.9,29.6,117.6"/>
		<path class="st0" d="M122.6,31.2c0,6.6-5.4,12-12,12c-6.6,0-12-5.4-12-12c0-6.6,5.4-12,12-12C117.2,19.2,122.6,24.6,122.6,31.2"/>
		<path class="st0" d="M122.6,74.4c0,6.6-5.4,12-12,12c-6.6,0-12-5.4-12-12c0-6.6,5.4-12,12-12C117.2,62.4,122.6,67.8,122.6,74.4"/>
		<path class="st0" d="M122.6,117.6c0,6.6-5.4,12-12,12c-6.6,0-12-5.4-12-12c0-6.6,5.4-12,12-12
			C117.2,105.6,122.6,110.9,122.6,117.6"/>
		<path class="st1" d="M107.4,37h-62c-4.6,0-8.4-3.7-8.4-8.4c0-4.6,3.7-8.4,8.4-8.4h62c4.6,0,8.4,3.7,8.4,8.4
			C115.8,33.2,112,37,107.4,37"/>
		<path class="st1" d="M107.4,80.1h-62c-4.6,0-8.4-3.7-8.4-8.4c0-4.6,3.7-8.4,8.4-8.4h62c4.6,0,8.4,3.7,8.4,8.4
			C115.8,76.4,112,80.1,107.4,80.1"/>
		<path class="st1" d="M107.4,123.3h-62c-4.6,0-8.4-3.7-8.4-8.4c0-4.6,3.7-8.4,8.4-8.4h62c4.6,0,8.4,3.7,8.4,8.4
			C115.8,119.6,112,123.3,107.4,123.3"/>
	</g>
</g>
</svg>
