<?xml version="1.0" encoding="utf-8"?>
<!-- Generator: Adobe Illustrator 22.1.0, SVG Export Plug-In . SVG Version: 6.00 Build 0)  -->
<svg version="1.1" id="Layer_1" xmlns="http://www.w3.org/2000/svg" xmlns:xlink="http://www.w3.org/1999/xlink" x="0px" y="0px"
	 viewBox="0 0 152.1 217.6" style="enable-background:new 0 0 152.1 217.6;" xml:space="preserve">
<style type="text/css">
	.st0{fill:#4D4D4D;}
	.st1{fill:#CCCCCC;}
</style>
<g>
	<polygon class="st0" points="83.7,30.1 152.4,30.1 152.4,0 -0.3,0 -0.3,30.1 68.4,30.1 68.4,830.6 -0.3,830.6 -0.3,860.6 
		152.4,860.6 152.4,830.6 83.7,830.6 	"/>
</g>
<g>
	<path class="st0" d="M29.6,105.9c0,6.6,5.4,12,12,12c6.6,0,12-5.4,12-12c0-6.6-5.4-12-12-12C35,93.9,29.6,99.3,29.6,105.9"/>
	<path class="st0" d="M29.6,149.1c0,6.6,5.4,12,12,12c6.6,0,12-5.4,12-12c0-6.6-5.4-12-12-12C35,137.1,29.6,142.5,29.6,149.1"/>
	<path class="st0" d="M29.6,192.3c0,6.6,5.4,12,12,12c6.6,0,12-5.4,12-12c0-6.6-5.4-12-12-12C35,180.3,29.6,185.6,29.6,192.3"/>
	<path class="st0" d="M122.6,105.9c0,6.6-5.4,12-12,12c-6.6,0-12-5.4-12-12c0-6.6,5.4-12,12-12C117.2,93.9,122.6,99.3,122.6,105.9"
		/>
	<path class="st0" d="M122.6,149.1c0,6.6-5.4,12-12,12c-6.6,0-12-5.4-12-12c0-6.6,5.4-12,12-12C117.2,137.1,122.6,142.5,122.6,149.1
		"/>
	<path class="st0" d="M122.6,192.3c0,6.6-5.4,12-12,12c-6.6,0-12-5.4-12-12c0-6.6,5.4-12,12-12C117.2,180.3,122.6,185.6,122.6,192.3
		"/>
	<path class="st1" d="M107.4,111.7h-62c-4.6,0-8.4-3.7-8.4-8.4c0-4.6,3.7-8.4,8.4-8.4h62c4.6,0,8.4,3.7,8.4,8.4
		C115.8,107.9,112,111.7,107.4,111.7"/>
	<path class="st1" d="M107.4,154.8h-62c-4.6,0-8.4-3.7-8.4-8.4c0-4.6,3.7-8.4,8.4-8.4h62c4.6,0,8.4,3.7,8.4,8.4
		C115.8,151.1,112,154.8,107.4,154.8"/>
	<path class="st1" d="M107.4,198h-62c-4.6,0-8.4-3.7-8.4-8.4c0-4.6,3.7-8.4,8.4-8.4h62c4.6,0,8.4,3.7,8.4,8.4
		C115.8,194.3,112,198,107.4,198"/>
</g>
</svg>
