<?xml version="1.0" encoding="utf-8"?>
<!-- Generator: Adobe Illustrator 22.1.0, SVG Export Plug-In . SVG Version: 6.00 Build 0)  -->
<svg version="1.1" id="Layer_1" xmlns="http://www.w3.org/2000/svg" xmlns:xlink="http://www.w3.org/1999/xlink" x="0px" y="0px"
	 viewBox="0 0 88.9 145.6" style="enable-background:new 0 0 88.9 145.6;" xml:space="preserve">
<style type="text/css">
	.st0{fill:#FC6460;}
	.st1{fill:#FCBF60;}
	.st2{fill:#BFBC62;}
</style>
<g>
	<path class="st0" d="M3.4,131H0V73.8C0,65.1,7.1,58,15.8,58c8.7,0,15.8,7.1,15.8,15.8v39.7h-3.4V73.8c0-6.8-5.6-12.4-12.4-12.4
		C9,61.4,3.4,67,3.4,73.8V131z"/>
	<path class="st0" d="M14.6,145.6C6.6,145.6,0,139,0,131h3.4c0,6.2,5,11.2,11.2,11.2c6.2,0,11.2-5,11.2-11.2h3.4
		C29.2,139,22.7,145.6,14.6,145.6"/>
	<path class="st0" d="M29.2,131h-3.4V97.5c0-5.1-4.2-9.3-9.3-9.3s-9.3,4.2-9.3,9.3v27.9H3.8V97.5c0-7,5.7-12.7,12.7-12.7
		c7,0,12.7,5.7,12.7,12.7V131z"/>
	<path class="st1" d="M57.3,111.7L35.1,59c-1.6-3.9-1.7-8.2-0.1-12.1c1.6-3.9,4.6-7,8.5-8.6c3.9-1.6,8.2-1.7,12.1-0.1
		c3.9,1.6,7,4.6,8.6,8.5l15.4,36.5l-3.2,1.3L61.1,48c-1.3-3.1-3.7-5.4-6.8-6.7c-3.1-1.2-6.4-1.2-9.5,0.1c-6.3,2.7-9.3,9.9-6.6,16.2
		l22.2,52.7L57.3,111.7z"/>
	<path class="st1" d="M70.8,120.6c-5.7,0-11.1-3.4-13.5-8.9l3.2-1.3c2.4,5.7,9,8.3,14.6,5.9c5.7-2.4,8.3-9,5.9-14.6l3.2-1.3
		c3.1,7.4-0.4,16-7.8,19.2C74.6,120.2,72.7,120.6,70.8,120.6"/>
	<path class="st1" d="M58.6,105.1L47.8,79.4c-2.7-6.5,0.3-13.9,6.8-16.7C61,60,68.5,63,71.2,69.5l13,30.8l-3.2,1.3L68,70.8
		c-2-4.7-7.4-6.9-12.2-4.9c-4.7,2-6.9,7.4-4.9,12.2l10.9,25.7L58.6,105.1z"/>
	<path class="st2" d="M17.7,39c-7.6,0-14.3-5.5-15.6-13.2C0.6,17.2,6.4,9,15,7.5l39.1-6.7l0.6,3.4l-39.1,6.7
		C8.9,12.1,4.4,18.5,5.5,25.2c1.2,6.7,7.6,11.3,14.3,10.1l56.3-9.7l0.6,3.4l-56.3,9.7C19.5,38.9,18.6,39,17.7,39"/>
	<path class="st2" d="M76.8,29l-0.6-3.4c2.9-0.5,5.5-2.1,7.2-4.6c1.7-2.4,2.4-5.4,1.9-8.3c-1-6.1-6.8-10.2-12.9-9.1l-0.6-3.4
		c7.9-1.4,15.5,4,16.9,11.9c0.7,3.8-0.2,7.7-2.5,10.9C84,26.2,80.6,28.4,76.8,29"/>
	<path class="st2" d="M40.9,31.2c-2.6,0-5.1-0.8-7.3-2.3c-2.8-2-4.6-4.9-5.2-8.2c-1.2-6.9,3.5-13.5,10.4-14.7l33-5.7l0.6,3.4
		l-33,5.7c-5,0.9-8.4,5.7-7.6,10.7c0.4,2.4,1.8,4.6,3.8,6c2,1.4,4.5,2,6.9,1.6L70,22.8l0.6,3.4L43.1,31
		C42.4,31.1,41.7,31.2,40.9,31.2"/>
</g>
</svg>
