<?xml version="1.0" encoding="utf-8"?>
<!-- Generator: Adobe Illustrator 22.1.0, SVG Export Plug-In . SVG Version: 6.00 Build 0)  -->
<svg version="1.1" id="Layer_1" xmlns="http://www.w3.org/2000/svg" xmlns:xlink="http://www.w3.org/1999/xlink" x="0px" y="0px"
	 viewBox="0 0 898 487" style="enable-background:new 0 0 898 487;" xml:space="preserve">
<g>
	<g>
		<path style="fill:#283957;" d="M812.5,226.7c-0.1,0.1-0.2,0.1-0.3,0.2l-3.7,2.2L714,283.6l-4,2.3l-74.2,42.8
			c-18.8,10.8-42.3,7.4-57.6-8c-0.2-0.2-0.3-0.3-0.5-0.5c-15.3-15.3-18.8-38.8-8-57.6L671.6,86.2c6.9-12,22.6-15.6,33.9-7.7
			c44.7,30.9,83.5,69.7,114.4,114.4C827.7,204.2,824.2,219.7,812.5,226.7"/>
		<path style="fill:#094E77;" d="M874.8,438.1H670.9c-21.5,0-40.1-14.6-45.6-35.4c-0.1-0.4-0.2-0.8-0.3-1.2
			c-5.6-20.8,3.1-42.9,21.8-53.7l176.6-102c11.9-6.9,27.3-2.2,33.2,10.3c18.8,39.6,31.6,81.9,38.2,125.3c0.2,1.5,0.5,3,0.7,4.5
			c1.2,8.8,2.2,17.7,3,26.6C899.5,426.4,888.6,438.1,874.8,438.1"/>
		<path style="fill:#1464A9;" d="M898.4,485.8c-2.2,27.2-6.9,54.1-13.9,80.3c-0.4,1.7-0.9,3.3-1.4,5c-6.8,24.4-15.7,48.2-26.6,71.1
			c-5.9,12.5-21.3,17.2-33.2,10.3l-8.1-4.7l-14.9-8.6l-153.6-88.7c-18.7-10.8-27.4-32.8-21.8-53.7c0.1-0.4,0.2-0.8,0.3-1.2
			c5.5-20.8,24.1-35.3,45.6-35.3h203.9c8.8,0,16.5,4.8,20.6,11.9C897.6,476.2,898.8,480.8,898.4,485.8"/>
		<path style="fill:#75C4AF;" d="M320.8,320.2c-0.2,0.2-0.3,0.3-0.5,0.5c-14.4,14.4-36,18.3-54.1,9.8c-1.2-0.6-2.4-1.2-3.5-1.8
			l-7.3-4.2L86.2,226.8c-12-6.9-15.6-22.6-7.7-33.9c30.9-44.7,69.7-83.5,114.4-114.4c11.4-7.9,27-4.2,33.9,7.7l101.8,176.4
			c2,3.5,3.5,7.1,4.6,10.8c0.6,2,1,4,1.3,6C336.7,294.1,331.8,309.3,320.8,320.2"/>
		<path style="fill:#7864AD;" d="M652.5,75.1L631,112.2l-2.9,5l-42.2,73l-2.4,4.2l-2.3,4l-30.7,53.2c-10.8,18.7-32.8,27.4-53.7,21.8
			c-0.4-0.1-0.8-0.2-1.2-0.3c-20.8-5.5-35.4-24.1-35.4-45.6V23.7c0-13.8,11.8-24.8,25.5-23.6c54.3,4.4,107.3,18.6,156.3,41.8
			C654.7,47.8,659.4,63.1,652.5,75.1"/>
		<path style="fill:#F68E2F;" d="M251.7,550.5l-29.3,16.9l-5,2.9l-98,56.6l-5,2.9l-39.4,22.7c-11.9,6.9-27.3,2.2-33.2-10.3
			c-23.2-49-37.4-102.1-41.8-156.4C-1,472,9.9,460.3,23.7,460.3h203.9c21.5,0,40.1,14.6,45.6,35.3c0.1,0.4,0.2,0.8,0.3,1.2
			C279.1,517.6,270.4,539.7,251.7,550.5"/>
		<path style="fill:#31A1CF;" d="M438.2,23.7v203.8c0,10.8-3.7,20.8-9.9,28.8c-0.7,1-1.5,1.9-2.4,2.8c-6,6.6-14,11.5-23.1,13.9
			c-0.4,0.1-0.8,0.2-1.2,0.3c-20.8,5.6-42.9-3.1-53.7-21.8L246,75.1c-6.9-12-2.2-27.3,10.3-33.2C305.3,18.6,358.4,4.5,412.7,0
			C426.4-1.1,438.2,9.9,438.2,23.7"/>
		<path style="fill:#FFCF6B;" d="M273.5,401.6c-0.1,0.4-0.2,0.8-0.3,1.2c-1.9,7.4-5.6,14-10.4,19.4c-0.5,0.6-1,1.1-1.5,1.6
			c-8.6,8.9-20.7,14.3-33.7,14.3H23.7c-13.8,0-24.8-11.8-23.6-25.5c4.4-54.3,18.6-107.3,41.8-156.4c5.9-12.5,21.3-17.2,33.2-10.3
			l176.6,102C270.4,358.8,279.1,380.8,273.5,401.6"/>
		<path style="fill:#F5B037;" d="M592,449.2c0,6.5-0.4,13-1.3,19.3c-0.7,5.5-1.8,10.9-3.1,16.2c-14.8,57.8-64.9,101.5-126,106.7
			c-4.1,0.4-8.2,0.5-12.4,0.5c-78.9,0-142.8-63.9-142.8-142.8s63.9-142.8,142.8-142.8c78.2,0,141.6,62.8,142.7,140.7
			C592,447.8,592,448.5,592,449.2"/>
		<g style="opacity:0.35;">
			<g>
				<defs>
					<rect id="SVGID_96_" x="484.1" y="60.6" width="144" height="137.9"/>
				</defs>
				<clipPath id="SVGID_1_">
					<use xlink:href="#SVGID_96_"  style="overflow:visible;"/>
				</clipPath>
				<g style="clip-path:url(#SVGID_1_);">
					<defs>
						<polygon id="SVGID_98_" points="628.2,117.2 586,190.3 583.5,194.5 581.2,198.5 578.8,197.6 507.1,126 507,111.9 484.1,88.9 
							541.1,60.6 596.4,85.5 						"/>
					</defs>
					<clipPath id="SVGID_2_">
						<use xlink:href="#SVGID_98_"  style="overflow:visible;"/>
					</clipPath>
					
						<linearGradient id="SVGID_3_" gradientUnits="userSpaceOnUse" x1="239.2628" y1="490.5602" x2="240.8433" y2="490.5602" gradientTransform="matrix(-59.0709 -70.3979 -70.3979 59.0709 49267.7031 -11952.6143)">
						<stop  offset="0" style="stop-color:#FFFFFF"/>
						<stop  offset="1" style="stop-color:#231F20"/>
					</linearGradient>
					<polygon style="clip-path:url(#SVGID_2_);fill:url(#SVGID_3_);" points="543.6,269.4 416.2,117.6 568.6,-10.3 696.1,141.5 
											"/>
				</g>
			</g>
		</g>
		<path style="fill:#F3F3F5;" d="M595.9,85.1l-54.5-27.3c-0.7-0.3-1.5-0.3-2.1,0l-54.5,27.3c-0.8,0.4-1.3,1.2-1.3,2.1
			c0,0.9,0.5,1.7,1.3,2.1l18,9v18.1c0,11.2,16.5,20,37.5,20s37.5-8.8,37.5-20V98.4l6.3-3.2v17.3c-2.9,1-5,3.7-5,7
			c0,2.9,1.7,5.5,4.2,6.7l-5,13.3c-0.3,0.7-0.2,1.5,0.3,2.2c0.4,0.6,1.2,1,2,1h12c0.8,0,1.5-0.4,2-1c0.4-0.6,0.5-1.5,0.3-2.2
			l-5-13.3c2.5-1.2,4.2-3.7,4.2-6.7c0-3.2-2.1-6-5-7V92.9l7-3.5c0.8-0.4,1.3-1.2,1.3-2.1C597.2,86.3,596.7,85.5,595.9,85.1
			 M583.9,137.9l2.5-6.7l2.5,6.7H583.9z M586.5,122.1c-1.4,0-2.6-1.2-2.6-2.6c0-1.4,1.2-2.6,2.6-2.6c0,0,0,0,0,0c0,0,0,0,0,0
			c1.4,0,2.6,1.2,2.6,2.6C589.1,120.9,587.9,122.1,586.5,122.1 M573.1,116.5c0,3.7-3.3,7.5-9,10.3c-6.3,3.2-14.8,4.9-23.8,4.9
			c-9,0-17.5-1.7-23.8-4.9c-5.7-2.9-9-6.6-9-10.3v-15.7l31.7,15.9c0.3,0.2,0.7,0.2,1.1,0.2c0.4,0,0.7-0.1,1.1-0.2l31.7-15.9V116.5z
			 M586,89l-45.5-4.1c-1.3-0.1-2.5,0.8-2.6,2.1c-0.1,1.3,0.8,2.5,2.1,2.6l37.9,3.4l-37.7,18.8l-49.2-24.6l49.2-24.6l49.2,24.6
			L586,89z"/>
		<g style="opacity:0.35;">
			<g>
				<defs>
					<rect id="SVGID_101_" x="298.1" y="48.6" width="140.1" height="207.8"/>
				</defs>
				<clipPath id="SVGID_4_">
					<use xlink:href="#SVGID_101_"  style="overflow:visible;"/>
				</clipPath>
				<g style="clip-path:url(#SVGID_4_);">
					<defs>
						<path id="SVGID_103_" d="M438.2,107.2v120.3c0,10.8-3.7,20.8-9.9,28.8L307.8,135.9c-1-1-1.8-2.1-2.5-3.3
							c-4.2-7.3-2.4-17.4,5.1-28c-1.5-2.2-2.8-4.4-3.9-6.5c-0.2,0-0.3,0-0.4,0c-4.4,0-7.9-3.6-7.9-8c0-3.4,2.1-6.3,5.2-7.4
							c0.3-2.2,1-4.3,2.1-6.1c4.2-7.3,13.9-10.7,26.8-9.6c5.5-11.7,13.3-18.4,21.7-18.4c8.4,0,16.3,6.7,21.7,18.4
							c2.6-0.2,5.1-0.3,7.5-0.1c1.3-2.6,4-4.4,7.1-4.4c2.1,0,4,0.8,5.4,2.2l0.4,0.3L438.2,107.2z"/>
					</defs>
					<clipPath id="SVGID_5_">
						<use xlink:href="#SVGID_103_"  style="overflow:visible;"/>
					</clipPath>
					
						<linearGradient id="SVGID_6_" gradientUnits="userSpaceOnUse" x1="239.8161" y1="490.0317" x2="241.3967" y2="490.0317" gradientTransform="matrix(-87.8953 -104.7495 -104.7495 87.8953 72852.5703 -17708.8223)">
						<stop  offset="0" style="stop-color:#FFFFFF"/>
						<stop  offset="1" style="stop-color:#231F20"/>
					</linearGradient>
					<polygon style="clip-path:url(#SVGID_5_);fill:url(#SVGID_6_);" points="356,325.4 195.7,134.4 380.3,-20.4 540.5,170.5 					
						"/>
				</g>
			</g>
		</g>
		<path style="fill:#F3F3F5;" d="M402.4,76.6c-1.1-1.9-2.6-3.6-4.4-4.9c0.1-0.4,0.1-0.8,0.1-1.3c0-2.1-0.8-4-2.2-5.4
			c-0.1-0.1-0.2-0.2-0.4-0.4c-1.4-1.3-3.3-2.2-5.4-2.2c-3.1,0-5.8,1.8-7.1,4.4c-2.3-0.1-4.9-0.1-7.5,0.1
			c-5.5-11.7-13.3-18.4-21.7-18.4c-8.4,0-16.3,6.7-21.7,18.4c-12.9-1.1-22.6,2.4-26.8,9.6c-1.1,1.9-1.8,3.9-2.1,6.1
			c-3,1.1-5.2,4.1-5.2,7.5c0,4.4,3.6,8,8,8c0.1,0,0.3,0,0.4,0c1,2.1,2.3,4.3,3.9,6.5c-7.4,10.6-9.3,20.7-5.1,28
			c0.7,1.2,1.5,2.3,2.5,3.3c4.2,4.3,11.1,6.6,19.7,6.6c1.5,0,3-0.1,4.6-0.2c5.5,11.7,13.3,18.4,21.7,18.4c2.2,0,4.3-0.4,6.4-1.3
			c1.4,1.1,3.1,1.8,5,1.8c4.4,0,7.9-3.6,7.9-7.9c0-1.6-0.5-3.1-1.3-4.3c1.3-2,2.6-4.2,3.7-6.6c1.6,0.1,3.1,0.2,4.6,0.2
			c10.6,0,18.5-3.5,22.2-9.8c4.2-7.3,2.4-17.4-5.1-28C404.7,94,406.6,83.9,402.4,76.6 M390.1,67.2c1.8,0,3.3,1.5,3.3,3.3
			c0,1.8-1.5,3.3-3.3,3.3c-1.8,0-3.3-1.5-3.3-3.3C386.9,68.6,388.3,67.2,390.1,67.2 M382.3,71.5c0.5,3.9,3.9,6.9,7.9,6.9
			c2.2,0,4.3-0.9,5.7-2.4c1,0.9,1.8,1.9,2.5,3c3.1,5.4,1.6,13.2-4,21.7c-3.5-4.2-7.7-8.3-12.5-12.2c-1-6.1-2.4-11.8-4.3-16.9
			C379.1,71.4,380.7,71.4,382.3,71.5 M382.7,95.3c3.3,3,6.3,6.2,8.8,9.3c-2.5,3.2-5.5,6.3-8.8,9.3c0.3-3.1,0.4-6.2,0.4-9.3
			S382.9,98.4,382.7,95.3 M376.3,84.3c-2.5-1.8-5.2-3.4-7.9-5c-2.7-1.6-5.5-3-8.3-4.3c4.3-1.4,8.5-2.4,12.5-3
			C374.2,75.8,375.4,79.9,376.3,84.3 M353.8,53.2c6.2,0,12.3,5.2,16.8,14.3c-5.4,0.9-11,2.5-16.8,4.7c-5.8-2.3-11.4-3.8-16.8-4.7
			C341.6,58.4,347.6,53.2,353.8,53.2 M335,72c4,0.6,8.2,1.6,12.5,3c-2.8,1.3-5.6,2.8-8.3,4.3c-2.7,1.6-5.4,3.2-7.9,5
			C332.3,79.9,333.5,75.8,335,72 M306,93.4c-1.8,0-3.3-1.5-3.3-3.3c0-1.8,1.5-3.3,3.3-3.3c1.8,0,3.3,1.5,3.3,3.3
			C309.3,92,307.8,93.4,306,93.4 M308,82.5c0.3-1.3,0.7-2.5,1.3-3.5c3.1-5.4,10.6-8,20.8-7.4c-1.9,5.1-3.4,10.8-4.3,16.9
			c-4.8,3.9-9,8-12.5,12.2c-0.9-1.4-1.8-2.8-2.5-4.2c1.9-1.5,3.1-3.7,3.1-6.3C314,86.5,311.4,83.4,308,82.5 M325,113.9
			c-3.4-3-6.4-6.1-8.8-9.3c2.5-3.2,5.5-6.3,8.8-9.3c-0.3,3.1-0.4,6.2-0.4,9.3C324.6,107.8,324.8,110.9,325,113.9 M309.4,130.3
			c-3.1-5.4-1.6-13.2,4-21.7c3.5,4.2,7.7,8.3,12.5,12.2c0.9,6.1,2.4,11.8,4.3,16.9C319.9,138.3,312.5,135.7,309.4,130.3
			 M331.4,124.9c2.5,1.8,5.1,3.4,7.9,5c2.7,1.6,5.5,3,8.3,4.3c-4.3,1.4-8.5,2.4-12.5,3C333.5,133.5,332.3,129.3,331.4,124.9
			 M365.2,156.5c-1.8,0-3.3-1.5-3.3-3.3c0-1.8,1.5-3.3,3.3-3.3c1.8,0,3.3,1.5,3.3,3.3C368.5,155,367,156.5,365.2,156.5 M368.3,145.9
			c-0.9-0.4-2-0.6-3-0.6c-4.4,0-7.9,3.6-7.9,7.9c0,0.7,0.1,1.4,0.3,2.1c-1.2,0.4-2.5,0.6-3.7,0.6c-6.2,0-12.2-5.2-16.8-14.3
			c5.4-0.9,11.1-2.5,16.8-4.7c5.8,2.3,11.4,3.8,16.8,4.7C369.9,143.2,369.1,144.6,368.3,145.9 M372.7,137.2c-4-0.6-8.2-1.6-12.5-3
			c2.8-1.3,5.6-2.7,8.3-4.3c2.7-1.6,5.4-3.2,7.9-5C375.4,129.3,374.2,133.5,372.7,137.2 M366.1,125.9c-4,2.3-8.1,4.3-12.3,6
			c-4.1-1.7-8.2-3.7-12.3-6c-4-2.3-7.8-4.9-11.4-7.6c-0.6-4.4-0.9-9-0.9-13.6c0-4.6,0.3-9.2,0.9-13.6c3.5-2.7,7.3-5.3,11.4-7.6
			c4-2.3,8.1-4.3,12.3-6c4.1,1.7,8.2,3.7,12.3,6c4,2.3,7.8,4.9,11.4,7.6c0.6,4.4,0.9,9,0.9,13.6c0,4.6-0.3,9.2-0.9,13.6
			C373.9,121,370.1,123.5,366.1,125.9 M398.3,130.3c-3.1,5.4-10.6,8-20.8,7.4c1.9-5.1,3.4-10.8,4.3-16.9c4.8-3.9,9-8,12.5-12.2
			C400,117.1,401.4,124.9,398.3,130.3"/>
		<path style="fill:#F3F3F5;" d="M353.8,93.5c-6.1,0-11.1,5-11.1,11.1c0,6.1,5,11.1,11.1,11.1c6.1,0,11.1-5,11.1-11.1
			C364.9,98.5,360,93.5,353.8,93.5 M353.8,111c-3.5,0-6.4-2.9-6.4-6.4c0-3.5,2.9-6.4,6.4-6.4c3.5,0,6.4,2.9,6.4,6.4
			C360.2,108.2,357.4,111,353.8,111"/>
		<g style="opacity:0.35;">
			<g>
				<defs>
					<rect id="SVGID_106_" x="149.5" y="146.4" width="185.5" height="188.7"/>
				</defs>
				<clipPath id="SVGID_7_">
					<use xlink:href="#SVGID_106_"  style="overflow:visible;"/>
				</clipPath>
				<g style="clip-path:url(#SVGID_7_);">
					<defs>
						<path id="SVGID_108_" d="M320.8,320.2c-0.2,0.2-0.3,0.3-0.5,0.5c-14.4,14.4-36,18.3-54.1,9.8c-1.2-0.6-2.4-1.2-3.5-1.8
							l-7.3-4.2l-92.6-92.6c-0.5-0.4-0.9-0.9-1.3-1.3c-4.5-4.7-7.9-10.8-9.9-17.6c-2.7-9.1-2.6-18.4,0.3-26.3
							c3-8.1,8.6-13.8,15.8-16c6.5-1.9,13.5-0.7,19.9,3.3c-2.3-7.4-9.2-12.7-17.3-12.7c-1.3,0-2.4-1.1-2.4-2.4
							c0-1.3,1.1-2.4,2.4-2.4c4.4,0,8.6,1.3,12.1,3.4c0.4-3.4,1.9-6.6,4.4-9.1c3.9-3.9,9.6-5.4,14.9-4c0.4,0.1,0.8,0.3,1.1,0.6
							l132,132C336.7,294.1,331.8,309.3,320.8,320.2"/>
					</defs>
					<clipPath id="SVGID_8_">
						<use xlink:href="#SVGID_108_"  style="overflow:visible;"/>
					</clipPath>
					
						<linearGradient id="SVGID_9_" gradientUnits="userSpaceOnUse" x1="239.8801" y1="490.2495" x2="241.4603" y2="490.2495" gradientTransform="matrix(-90.0321 -107.2961 -107.2961 90.0321 74511.4453 -18074.3457)">
						<stop  offset="0" style="stop-color:#FFFFFF"/>
						<stop  offset="1" style="stop-color:#231F20"/>
					</linearGradient>
					<polygon style="clip-path:url(#SVGID_8_);fill:url(#SVGID_9_);" points="226.4,431.6 53.4,225.5 259,52.9 432,259.1 					"/>
				</g>
			</g>
		</g>
		<path style="fill:#F3F3F5;" d="M229.5,186.8c-3-8.1-8.6-13.8-15.8-16c-2-0.6-4.1-0.9-6.2-0.9c-5,0-10.2,1.7-14.9,5
			c-0.5-2.5-1.4-4.9-2.7-7c3.4-0.4,6.7-1.9,9.3-4.4c3.9-3.9,5.4-9.6,4-14.9c-0.1-0.4-0.3-0.8-0.6-1.1c-0.3-0.3-0.6-0.5-1.1-0.6
			c-5.3-1.4-11,0.1-14.9,4c-2.5,2.5-4,5.7-4.4,9.1c-3.5-2.2-7.6-3.4-12.1-3.4c-1.3,0-2.4,1.1-2.4,2.4c0,1.3,1.1,2.4,2.4,2.4
			c8.1,0,15,5.4,17.3,12.7c-6.4-4-13.4-5.2-19.9-3.3c-7.2,2.1-12.8,7.8-15.8,16c-2.9,7.9-3,17.3-0.3,26.3c2,6.8,5.5,12.8,9.9,17.6
			c0.4,0.5,0.9,0.9,1.3,1.3c1.1,1.1,2.2,2,3.4,2.9c7,5.2,14.8,6.8,21.9,4.7c0.8-0.2,1.6-0.5,2.4-0.9c0.9,0.4,1.7,0.7,2.6,1
			c2.1,0.6,4.1,0.9,6.3,0.9c5.3,0,10.7-1.9,15.7-5.6c6.8-5,12-12.8,14.7-21.8C232.5,204,232.4,194.7,229.5,186.8 M186.9,163.1
			c-0.4-3.3,0.7-6.6,3-8.9c2.4-2.4,5.7-3.5,8.9-3.1c0.4,3.3-0.7,6.6-3.1,8.9C193.5,162.4,190.2,163.6,186.9,163.1 M225.3,211.7
			c-2.4,8.1-7,15-13,19.4c-5.8,4.3-12.1,5.7-17.8,4c-1-0.3-1.9-0.7-2.9-1.2c-0.3-0.2-0.7-0.3-1.1-0.3c-0.4,0-0.7,0.1-1.1,0.3
			c-0.9,0.4-1.8,0.8-2.7,1.1c-12,3.6-25.8-6.8-30.8-23.3c-4.9-16.5,0.9-32.8,12.9-36.4c6.6-2,13.9,0.2,20.2,5.9
			c0.4,0.4,1,0.6,1.6,0.6c0.6,0,1.2-0.3,1.7-0.7c6.2-5.6,13.5-7.7,20-5.8c9.1,2.7,14.7,12.8,14.7,24.6
			C227,203.7,226.5,207.7,225.3,211.7"/>
		<path style="fill:#F3F3F5;" d="M169.8,178.2c-5.1,1.5-9.1,6-11.1,12.4c-1.9,6.1-1.8,13.3,0.3,20.2c0.3,1,1.2,1.7,2.3,1.7
			c0.2,0,0.5,0,0.7-0.1c1.3-0.4,2-1.7,1.6-3c-1.8-5.9-1.9-12.3-0.3-17.4c1.5-4.9,4.3-8.2,7.9-9.2c1.3-0.4,2-1.7,1.6-3
			C172.4,178.5,171.1,177.8,169.8,178.2"/>
		<g style="opacity:0.35;">
			<g>
				<defs>
					<rect id="SVGID_111_" x="56.2" y="321" width="205.1" height="117.1"/>
				</defs>
				<clipPath id="SVGID_10_">
					<use xlink:href="#SVGID_111_"  style="overflow:visible;"/>
				</clipPath>
				<g style="clip-path:url(#SVGID_10_);">
					<defs>
						<path id="SVGID_113_" d="M261.3,423.9c-8.6,8.9-20.7,14.3-33.7,14.3H101.3l-43.4-43.4c-1.1-1.1-1.7-2.6-1.7-4.2V327
							c0-3.3,2.7-5.9,5.9-5.9H156c1.6,0,3,0.6,4,1.6L261.3,423.9z"/>
					</defs>
					<clipPath id="SVGID_11_">
						<use xlink:href="#SVGID_113_"  style="overflow:visible;"/>
					</clipPath>
					
						<linearGradient id="SVGID_12_" gradientUnits="userSpaceOnUse" x1="239.7233" y1="490.8008" x2="241.304" y2="490.8008" gradientTransform="matrix(-84.1377 -100.2714 -100.2714 84.1377 69605.3438 -16802.1387)">
						<stop  offset="0" style="stop-color:#FFFFFF"/>
						<stop  offset="1" style="stop-color:#231F20"/>
					</linearGradient>
					<polygon style="clip-path:url(#SVGID_11_);fill:url(#SVGID_12_);" points="140.9,539.1 -1.5,369.4 176.6,220 319,389.8 					
						"/>
				</g>
			</g>
		</g>
		<path style="fill:#F3F3F5;" d="M160.4,322.9c-0.1-0.1-0.2-0.2-0.3-0.3c-1.1-1-2.5-1.6-4-1.6H62.1c-3.3,0-5.9,2.7-5.9,5.9v63.6
			c0,1.6,0.7,3.1,1.7,4.2c1.1,1.1,2.5,1.7,4.2,1.7h52.5l-7.1,12.2c-0.5,0.8-0.4,1.8,0.1,2.6c0.5,0.7,1.5,1.1,2.4,0.9l7.9-1.5
			l2.6,7.6c0.3,0.9,1.1,1.5,2,1.6c0.1,0,0.1,0,0.2,0c0.8,0,1.6-0.4,2.1-1.2l7.2-12.5l7.2,12.5c0.4,0.7,1.2,1.2,2.1,1.2
			c0.1,0,0.1,0,0.2,0c0.9-0.1,1.7-0.7,2-1.6l2.6-7.6l7.9,1.5c0.9,0.2,1.8-0.2,2.4-0.9c0.5-0.8,0.6-1.8,0.1-2.6l-7-12.2h6.5
			c3.3,0,5.9-2.7,5.9-5.9V327C162,325.4,161.4,324,160.4,322.9 M84.2,372.9h32.2c-1.5,2.1-2.6,4.4-3.2,7H79.6
			c-0.9-3.3-3.5-6-6.8-6.8v-28.7c3.3-0.9,5.9-3.5,6.8-6.8h59c0.9,3.3,3.5,6,6.8,6.8v25.8c-3.5-3.3-8.2-5.4-13.3-5.4
			c-4,0-7.7,1.2-10.8,3.3H84.2c-1.3,0-2.4,1.1-2.4,2.4C81.8,371.9,82.9,372.9,84.2,372.9 M123.3,411.8l-1.6-4.6
			c-0.4-1.1-1.5-1.8-2.7-1.5l-4.8,0.9l4.7-8.2c2.6,2.4,5.8,4,9.4,4.7L123.3,411.8z M132,398.7c-8,0-14.6-6.5-14.6-14.5
			c0-8,6.5-14.6,14.6-14.6c8,0,14.5,6.5,14.5,14.6C146.6,392.2,140.1,398.7,132,398.7 M149.9,406.6l-4.8-0.9
			c-1.2-0.2-2.3,0.4-2.7,1.5l-1.6,4.6l-5-8.7c3.6-0.7,6.8-2.4,9.4-4.8L149.9,406.6z M157.2,390.6c0,0.6-0.5,1.2-1.2,1.2h-6.3
			c1-2.4,1.6-4.9,1.6-7.6c0-2.4-0.4-4.7-1.2-6.8v-35c0-1.3-1.1-2.4-2.4-2.4c-2.6,0-4.7-2.1-4.7-4.7c0-1.3-1.1-2.4-2.4-2.4H77.5
			c-1.3,0-2.4,1.1-2.4,2.4c0,2.6-2.1,4.7-4.7,4.7c-1.3,0-2.4,1.1-2.4,2.4v32.8c0,1.3,1.1,2.4,2.4,2.4c2.6,0,4.7,2.1,4.7,4.7
			c0,1.3,1.1,2.4,2.4,2.4h35.2c0.1,2.5,0.6,4.9,1.6,7.1H62.1c-0.7,0-1.2-0.5-1.2-1.2V327c0-0.6,0.5-1.2,1.2-1.2H156
			c0.7,0,1.2,0.5,1.2,1.2V390.6z"/>
		<path style="fill:#F3F3F5;" d="M99.3,349.4h19.5c1.3,0,2.4-1.1,2.4-2.4c0-1.3-1.1-2.4-2.4-2.4H99.3c-1.3,0-2.4,1.1-2.4,2.4
			C96.9,348.3,98,349.4,99.3,349.4"/>
		<path style="fill:#F3F3F5;" d="M84.2,361.2H134c1.3,0,2.4-1.1,2.4-2.4c0-1.3-1.1-2.4-2.4-2.4H84.2c-1.3,0-2.4,1.1-2.4,2.4
			C81.8,360.1,82.9,361.2,84.2,361.2"/>
		<path style="fill:#F3F3F5;" d="M132,374.8c-5.2,0-9.3,4.2-9.3,9.3c0,5.1,4.2,9.3,9.3,9.3c5.1,0,9.3-4.2,9.3-9.3
			C141.4,379,137.2,374.8,132,374.8 M132,388.7c-2.5,0-4.6-2-4.6-4.6c0-2.5,2.1-4.6,4.6-4.6c2.5,0,4.6,2.1,4.6,4.6
			C136.6,386.7,134.6,388.7,132,388.7"/>
		<g style="opacity:0.35;">
			<g>
				<defs>
					<rect id="SVGID_116_" x="60.9" y="490.1" width="156.5" height="139.6"/>
				</defs>
				<clipPath id="SVGID_13_">
					<use xlink:href="#SVGID_116_"  style="overflow:visible;"/>
				</clipPath>
				<g style="clip-path:url(#SVGID_13_);">
					<defs>
						<path id="SVGID_118_" d="M217.5,570.2l-98,56.6l-5,2.9l-34.1-34.1c-0.4-0.4-0.7-1-0.7-1.7v-16.6c0-1.3,1.1-2.4,2.4-2.4h6.6
							v-7.1v0v0v0v-0.2c0,0,0,0,0,0c0-0.1,0-0.1,0-0.2c0,0,0,0,0-0.1c0,0,0-0.1,0-0.1c0,0,0-0.1,0-0.1c0,0,0-0.1,0-0.1
							c0,0,0-0.1,0-0.1c0,0,0-0.1,0.1-0.1c0,0,0-0.1,0-0.1c0,0,0-0.1,0.1-0.1c0,0,0-0.1,0.1-0.1c0,0,0-0.1,0.1-0.1c0,0,0,0,0-0.1
							c0,0,0.1-0.1,0.1-0.1c0,0,0,0,0.1-0.1c0,0,0.1-0.1,0.1-0.1c0,0,0,0,0.1,0c0,0,0.1-0.1,0.1-0.1c0,0,0,0,0.1,0
							c0,0,0.1,0,0.1-0.1c0,0,0.1,0,0.1,0c0,0,0.1,0,0.1-0.1c0,0,0.1,0,0.1,0c0,0,0.1,0,0.1,0c0,0,0.1,0,0.1,0c0,0,0,0,0.1,0
							c5.5-1.2,9.2-6.4,8.8-11.9c-10.8-2.8-19.3-11.4-21.9-22.4c-9.9-4.2-16.5-14-16.5-24.8c0-1.3,1.1-2.4,2.4-2.4h13.4v-11.6
							c0-1.3,1.1-2.4,2.4-2.4h55.6c1.3,0,2.4,1.1,2.4,2.4v11.6h13.4c0.6,0,1.2,0.3,1.7,0.7L217.5,570.2z"/>
					</defs>
					<clipPath id="SVGID_14_">
						<use xlink:href="#SVGID_118_"  style="overflow:visible;"/>
					</clipPath>
					
						<linearGradient id="SVGID_15_" gradientUnits="userSpaceOnUse" x1="239.096" y1="492.6451" x2="240.6762" y2="492.6451" gradientTransform="matrix(-60.9329 -72.6171 -72.6171 60.9329 50519.3438 -12052.0273)">
						<stop  offset="0" style="stop-color:#FFFFFF"/>
						<stop  offset="1" style="stop-color:#231F20"/>
					</linearGradient>
					<polygon style="clip-path:url(#SVGID_14_);fill:url(#SVGID_15_);" points="125.6,706.8 -7.8,547.8 152.8,413 286.2,572 					
						"/>
				</g>
			</g>
		</g>
		<g style="opacity:0.35;">
			<g>
				<defs>
					<rect id="SVGID_131_" x="754.7" y="488.5" width="129.8" height="167.1"/>
				</defs>
				<clipPath id="SVGID_16_">
					<use xlink:href="#SVGID_131_"  style="overflow:visible;"/>
				</clipPath>
				<g style="clip-path:url(#SVGID_16_);">
					<defs>
						<path id="SVGID_133_" d="M884.5,566.1c-0.4,1.7-0.9,3.3-1.4,5c-6.8,24.4-15.7,48.2-26.6,71.1c-5.9,12.5-21.3,17.2-33.2,10.3
							l-8.1-4.7l-52.9-52.9c-0.4-0.4-0.7-1-0.7-1.6c0-1.3,1-2.4,2.3-2.4l3.4-0.1c0.1,0,0.2,0,0.3-0.1c2.2-0.5,4.4-2.2,6.2-5
							c1.8-2.8,3.1-6.4,3.6-10.5c-1.6-1.5-3.2-3.2-4.8-5.1c-4.7-6-8.6-14.2-10.8-22.5c-4.7-6.4-7.2-14-7.2-22
							c0-4.6,0.8-9.1,2.5-13.4c2.7-6.9,7.3-12.8,13.4-17c6.2-4.3,13.5-6.6,21.2-6.6c9.3,0,18.2,3.5,24.9,9.7L884.5,566.1z"/>
					</defs>
					<clipPath id="SVGID_17_">
						<use xlink:href="#SVGID_133_"  style="overflow:visible;"/>
					</clipPath>
					
						<linearGradient id="SVGID_18_" gradientUnits="userSpaceOnUse" x1="237.657" y1="490.3399" x2="239.238" y2="490.3399" gradientTransform="matrix(-68.7096 -81.8849 -81.8849 68.7096 57349.9922 -13597.4219)">
						<stop  offset="0" style="stop-color:#FFFFFF"/>
						<stop  offset="1" style="stop-color:#231F20"/>
					</linearGradient>
					<polygon style="clip-path:url(#SVGID_17_);fill:url(#SVGID_18_);" points="808.3,723.3 670.5,559.1 830.8,424.6 968.6,588.7 
											"/>
				</g>
			</g>
		</g>
		<g style="opacity:0.35;">
			<g>
				<defs>
					<rect id="SVGID_136_" x="744.6" y="320" width="153.8" height="118.2"/>
				</defs>
				<clipPath id="SVGID_19_">
					<use xlink:href="#SVGID_136_"  style="overflow:visible;"/>
				</clipPath>
				<g style="clip-path:url(#SVGID_19_);">
					<defs>
						<path id="SVGID_138_" d="M874.8,438.1H774.3l-27.8-27.7c-0.1-0.1-0.2-0.2-0.3-0.3c-1-1.1-1.6-2.5-1.6-4v-80.4
							c0-3.2,2.6-5.8,5.9-5.8h80.3c1.4,0,2.7,0.5,3.7,1.3c0,0,0.1,0.1,0.2,0.1l0.5,0.5c0.1,0,0.1,0.1,0.1,0.2l59.4,59.4
							c0.2,1.5,0.5,3,0.7,4.5c1.2,8.8,2.2,17.7,3,26.6C899.5,426.4,888.6,438.1,874.8,438.1"/>
					</defs>
					<clipPath id="SVGID_20_">
						<use xlink:href="#SVGID_138_"  style="overflow:visible;"/>
					</clipPath>
					
						<linearGradient id="SVGID_21_" gradientUnits="userSpaceOnUse" x1="238.2374" y1="489.7368" x2="239.8177" y2="489.7368" gradientTransform="matrix(-71.5871 -85.3141 -85.3141 71.5871 59712.0039 -14290.7236)">
						<stop  offset="0" style="stop-color:#FFFFFF"/>
						<stop  offset="1" style="stop-color:#231F20"/>
					</linearGradient>
					<polygon style="clip-path:url(#SVGID_20_);fill:url(#SVGID_21_);" points="808.6,514.4 686.4,368.8 835.5,243.7 957.7,389.3 
											"/>
				</g>
			</g>
		</g>
		<path style="fill:#F3F3F5;" d="M835.4,322.1c0-0.1-0.1-0.1-0.1-0.1c-0.2-0.2-0.3-0.4-0.5-0.5c-0.1-0.1-0.1-0.1-0.2-0.1
			c-1-0.9-2.4-1.3-3.7-1.3h-80.3c-3.2,0-5.9,2.6-5.9,5.9v80.3c0,1.5,0.6,2.9,1.6,4c0.1,0.1,0.2,0.2,0.3,0.3c1.1,1,2.5,1.6,4,1.6
			h80.3c3.2,0,5.9-2.6,5.9-5.9v-80.3C836.7,324.4,836.2,323.1,835.4,322.1 M822.7,357.9c0-2.8-1.1-5.4-3.1-7.4
			c-1.9-1.9-4.4-2.9-7.1-2.9l-0.4,0c-5.4,0.2-9.8,4.5-9.9,10c0,2.1,0.5,4.2,1.7,5.9h-10.8v-14.3c0-1.3-1.1-2.4-2.5-2.4
			c-1.7,0-3.3,0.6-4.7,1.6c-0.9,0.7-2.1,1.1-3.4,1.1h0c-2.8-0.1-5.1-2.4-5.2-5.2c-0.1-1.5,0.5-2.9,1.5-3.9c1-1.1,2.4-1.6,3.9-1.6
			c1.2,0,2.3,0.4,3.3,1.1c1.4,1.1,3,1.6,4.8,1.6c1.3,0,2.4-1.1,2.4-2.4v-14.3h37.7c0.5,0,1,0.5,1,1v37.7h-10.8
			C822.1,361.9,822.7,360,822.7,357.9 M788.2,335.6c-1.7-1.1-3.6-1.7-5.6-1.7c-2.8,0-5.4,1.1-7.4,3.1c-1.9,2-3,4.7-2.9,7.5
			c0.2,5.4,4.6,9.8,10,9.9h0.2c2,0,4-0.6,5.6-1.7v10.8h-14.3c-1.3,0-2.4,1.1-2.4,2.5c0,1.7,0.6,3.3,1.6,4.7c0.8,1,1.2,2.2,1.1,3.4
			c-0.1,2.8-2.4,5.1-5.2,5.2l-0.2,0c-1.4,0-2.7-0.5-3.7-1.5c-1.1-1-1.6-2.4-1.6-3.9c0-1.2,0.4-2.3,1.1-3.3c1.1-1.4,1.6-3.1,1.6-4.8
			c0-1.3-1.1-2.4-2.4-2.4h-14.3v-37.7c0-0.5,0.4-1,1-1h37.7V335.6z M749.5,368.4h10.8c-1.1,1.7-1.7,3.6-1.7,5.6
			c0,2.8,1.1,5.4,3.1,7.4c1.9,1.9,4.5,2.9,7.1,2.9c0.1,0,0.2,0,0.4,0c5.4-0.2,9.8-4.5,9.9-10c0.1-2.1-0.5-4.2-1.7-5.9h10.8v14.3
			c0,1.3,1.1,2.4,2.5,2.4c1.7,0,3.3-0.6,4.7-1.6c1-0.7,2.1-1.1,3.4-1.1h0c2.8,0.1,5.1,2.4,5.2,5.2c0,1.5-0.5,2.9-1.5,3.9
			c-1,1.1-2.4,1.6-3.9,1.6c-1.2,0-2.3-0.4-3.3-1.1c-1.4-1.1-3.1-1.6-4.8-1.6c-1.3,0-2.4,1.1-2.4,2.4v14.3h-37.7c-0.5,0-1-0.4-1-1
			V368.4z M793.1,396.4c1.7,1.1,3.6,1.7,5.6,1.7c2.8,0,5.4-1.1,7.4-3.1c1.9-2,3-4.7,2.9-7.5c-0.2-5.4-4.5-9.8-10-9.9l-0.3,0
			c-2,0-3.9,0.6-5.6,1.7v-10.7h14.3c1.3,0,2.4-1.1,2.4-2.5c0-1.7-0.6-3.3-1.6-4.7c-0.8-1-1.2-2.2-1.1-3.4c0.1-2.8,2.4-5.1,5.2-5.2
			l0.2,0c1.4,0,2.7,0.5,3.7,1.5c1.1,1,1.6,2.4,1.6,3.9c0,1.2-0.4,2.3-1.1,3.3c-1.1,1.4-1.6,3.1-1.6,4.8c0,1.3,1.1,2.4,2.4,2.4h14.3
			v37.7c0,0.5-0.5,1-1,1h-37.7V396.4z"/>
		<g style="opacity:0.35;">
			<g>
				<defs>
					<rect id="SVGID_141_" x="650.3" y="141.5" width="158.2" height="144.4"/>
				</defs>
				<clipPath id="SVGID_22_">
					<use xlink:href="#SVGID_141_"  style="overflow:visible;"/>
				</clipPath>
				<g style="clip-path:url(#SVGID_22_);">
					<defs>
						<path id="SVGID_143_" d="M808.5,229L714,283.6l-4,2.3l-59.1-59.1c-0.4-0.4-0.6-0.9-0.6-1.5c0-0.6,0.3-1.2,0.7-1.7l11.5-11.5
							c-1.8-2.3-1.7-5.7,0.5-7.8l37.4-37.4l-0.6-0.6c-2.3-2.3-2.3-6.1,0-8.4l14.6-14.6c2.3-2.3,6.1-2.3,8.4,0L808.5,229z"/>
					</defs>
					<clipPath id="SVGID_23_">
						<use xlink:href="#SVGID_143_"  style="overflow:visible;"/>
					</clipPath>
					
						<linearGradient id="SVGID_24_" gradientUnits="userSpaceOnUse" x1="238.2819" y1="490.5043" x2="239.8623" y2="490.5043" gradientTransform="matrix(-50.9661 -60.739 -60.739 50.9661 42706.332 -10265.1533)">
						<stop  offset="0" style="stop-color:#FFFFFF"/>
						<stop  offset="1" style="stop-color:#231F20"/>
					</linearGradient>
					<polygon style="clip-path:url(#SVGID_23_);fill:url(#SVGID_24_);" points="715.7,363.8 578.9,200.8 743.1,63 879.9,226 					
						"/>
				</g>
			</g>
		</g>
		<path style="fill:#F3F3F5;" d="M742.4,162.9l-19.7-19.7c-2.3-2.3-6.1-2.3-8.4,0l-14.6,14.6c-2.3,2.3-2.3,6.1,0,8.4l0.6,0.6
			L663,204.2c-2.1,2.1-2.3,5.5-0.5,7.8L651,223.5c-0.4,0.4-0.7,1-0.7,1.7c0,0.6,0.2,1.1,0.6,1.5c0,0.1,0.1,0.1,0.1,0.2l7.7,7.7
			c0.1,0.1,0.2,0.2,0.3,0.2c0.4,0.3,0.9,0.5,1.4,0.5c0.6,0,1.2-0.2,1.7-0.7l11.5-11.5c1.1,0.8,2.4,1.2,3.7,1.2c1.5,0,3-0.6,4.2-1.7
			l10.6-10.6c0.7,1.9,2.2,3.5,4,4.3l-16.7,29c-0.7,1.1-0.3,2.6,0.9,3.2c0.4,0.2,0.8,0.3,1.2,0.3c0.8,0,1.6-0.4,2.1-1.2l13.9-24.1
			v27.9c0,1.3,1.1,2.4,2.4,2.4c1.3,0,2.4-1.1,2.4-2.4v-27.9l13.9,24.1c0.4,0.8,1.2,1.2,2.1,1.2c0.4,0,0.8-0.1,1.2-0.3
			c1.1-0.7,1.5-2.1,0.9-3.2l-16.9-29.2c2.4-1.3,4.1-3.9,4.1-6.9c0-3.4-2.1-6.2-5.1-7.4l16.6-16.6l0.6,0.6c1.1,1.1,2.6,1.7,4.2,1.7
			s3.1-0.6,4.2-1.7l14.6-14.6C744.7,169,744.7,165.2,742.4,162.9 M660.4,229.6l-4.4-4.4l9.8-9.8l4.4,4.4L660.4,229.6z M702.6,209.2
			c0,1.7-1.4,3.2-3.1,3.2c-1.7,0-3.2-1.4-3.2-3.2c0-1.7,1.4-3.1,3.2-3.1C701.2,206.1,702.6,207.5,702.6,209.2 M678.1,219.3
			c-0.5,0.5-1.2,0.5-1.7,0l-1.2-1.2l-7.7-7.7l-1.2-1.2c-0.5-0.5-0.5-1.2,0-1.7l37.4-37.4l11.7,11.8L678.1,219.3z M739.1,167.9
			l-14.6,14.6c-0.3,0.3-0.7,0.3-0.8,0.3c-0.2,0-0.5,0-0.8-0.3l-19.7-19.7c-0.5-0.5-0.5-1.2,0-1.7l8.6-8.6l11,11
			c0.5,0.5,1.1,0.7,1.7,0.7c0.6,0,1.2-0.2,1.7-0.7c0.9-0.9,0.9-2.4,0-3.4l-11-11l2.6-2.6c0.5-0.5,1.2-0.5,1.7,0l19.7,19.7
			C739.5,166.7,739.5,167.5,739.1,167.9"/>
		<g style="opacity:0.35;">
			<g>
				<defs>
					<rect id="SVGID_146_" x="354.5" y="340.7" width="233.1" height="220.7"/>
				</defs>
				<clipPath id="SVGID_25_">
					<use xlink:href="#SVGID_146_"  style="overflow:visible;"/>
				</clipPath>
				<g style="clip-path:url(#SVGID_25_);">
					<defs>
						<path id="SVGID_148_" d="M587.6,454.7c-14.8,57.8-64.9,101.5-126,106.7L364.1,464c-6-6.2-9.7-14.7-9.7-23.9
							c0-7.9,2.7-15.5,7.7-21.7c1.8-13,8.1-25.1,17.8-34.2c0.4-0.4,0.8-0.7,1.2-1.1l-20.3-20.3c8.5-0.2,15.3-7.1,15.3-15.6
							l24.6,24.6c3.5-1.2,7.1-2.1,10.7-2.6l-13.3-13.3l0,0l-7.6-7.7c4.2,0,7.5-3.4,7.6-7.5l23.5,23.5c7.6-4.5,16.2-7,25.1-7
							c10.8,0,21.3,3.6,29.8,10.1c1.9-0.3,3.7-0.4,5.4-0.4c10.5,0,20.5,3.7,28.4,10.4c0,0,0.1,0.1,0.1,0.1L587.6,454.7z"/>
					</defs>
					<clipPath id="SVGID_26_">
						<use xlink:href="#SVGID_148_"  style="overflow:visible;"/>
					</clipPath>
					
						<linearGradient id="SVGID_27_" gradientUnits="userSpaceOnUse" x1="239.3149" y1="489.8343" x2="240.8953" y2="489.8343" gradientTransform="matrix(-98.897 -117.8608 -117.8608 98.897 81936.8828 -19707.4336)">
						<stop  offset="0" style="stop-color:#FFFFFF"/>
						<stop  offset="1" style="stop-color:#231F20"/>
					</linearGradient>
					<polygon style="clip-path:url(#SVGID_26_);fill:url(#SVGID_27_);" points="450.8,676.2 245.8,431.9 491.2,226 696.2,470.3 
											"/>
				</g>
			</g>
		</g>
		<g style="opacity:0.35;">
			<g>
				<defs>
					<rect id="SVGID_151_" x="516.6" y="353" width="75.4" height="85.5"/>
				</defs>
				<clipPath id="SVGID_28_">
					<use xlink:href="#SVGID_151_"  style="overflow:visible;"/>
				</clipPath>
				<g style="clip-path:url(#SVGID_28_);">
					<defs>
						<path id="SVGID_153_" d="M592,419.2c0,6.5-0.4,13-1.3,19.3l-62.8-62.8l0,0l-11.2-11.2l0,0c6.2-0.2,11.1-5.2,11.3-11.4
							l64.1,64.1C592,417.8,592,418.5,592,419.2"/>
					</defs>
					<clipPath id="SVGID_29_">
						<use xlink:href="#SVGID_153_"  style="overflow:visible;"/>
					</clipPath>
					
						<linearGradient id="SVGID_30_" gradientUnits="userSpaceOnUse" x1="237.963" y1="492.4016" x2="239.5435" y2="492.4016" gradientTransform="matrix(-42.7318 -50.9257 -50.9257 42.7318 35834.4531 -8484.5312)">
						<stop  offset="0" style="stop-color:#FFFFFF"/>
						<stop  offset="1" style="stop-color:#231F20"/>
					</linearGradient>
					<polygon style="clip-path:url(#SVGID_29_);fill:url(#SVGID_30_);" points="547.8,475.6 474.5,388.3 560.8,315.9 634.1,403.2 
											"/>
				</g>
			</g>
		</g>
		<path style="fill:#F3F3F5;" d="M525.3,405c-1.1-8.5-4.7-16.4-10.2-22.8c-1-1.2-2.1-2.3-3.2-3.4c-0.5-0.4-0.9-0.9-1.4-1.3
			c0,0-0.1-0.1-0.1-0.1c-7.9-6.7-17.9-10.4-28.4-10.4c-1.7,0-3.5,0.1-5.4,0.4c-8.5-6.5-19-10.1-29.8-10.1c-8.9,0-17.6,2.4-25.1,7
			c-2.2,1.3-4.4,2.8-6.4,4.5c-1.3,0.1-2.6,0.2-3.9,0.4c-3.7,0.5-7.3,1.4-10.7,2.6c-7.1,2.4-13.8,6.3-19.6,11.3
			c-0.4,0.3-0.8,0.7-1.2,1.1c-9.7,9-15.9,21.1-17.8,34.2c-5,6.1-7.7,13.8-7.7,21.7c0,9.3,3.7,17.7,9.7,23.9
			c6,6.2,14.3,10.2,23.4,10.6c9.5,6.3,20.4,9.6,31.8,9.6c14.3,0,27.9-5.2,38.5-14.8h36.4c5.3,2.9,11.2,4.4,17.1,4.4
			c19.7,0,35.8-16.1,35.8-35.8C547.2,423.5,538.5,410.6,525.3,405 M511.4,465.3c-4.9,0-9.7-1.3-13.9-3.8c-0.6-0.4-1.4-0.6-2.1-0.6
			h-31.7c0.7-1.8,1.2-3.8,1.3-5.9c0-0.2,0-0.4,0-0.6c6.6-1.8,11.5-7.9,11.5-15.1c0-2.2-1.8-4-4-4c-2.2,0-4,1.8-4,4
			c0,3.2-2,6-4.8,7.1c-0.6-1.7-1.5-3.3-2.6-4.8c-0.6-0.9-1.3-1.7-2.1-2.4c-1.6-1.6-4.1-1.6-5.7,0c-1.6,1.6-1.6,4.1,0,5.7
			c2.3,2.3,3.6,5.4,3.6,8.7c0,1.6-0.3,3.2-0.9,4.6c-0.5,1.2-1.1,2.3-1.9,3.3c-0.3,0.2-0.6,0.4-0.9,0.6c-9.2,8.8-21.3,13.6-34,13.6
			c-10.1,0-19.8-3-28.1-8.8c-0.1-0.1-0.2-0.2-0.3-0.2c-1.4-1.6-2.4-3.3-3-5.2c1.8,0.9,3.7,1.3,5.8,1.3c2.2,0,4-1.8,4-4
			c0-2.2-1.8-4-4-4c-2.8,0-5.1-2.1-5.5-4.9c0.8-1.9,1.9-3.6,3.4-5.1c1.6-1.6,1.6-4.1,0-5.7c-1.6-1.6-4.1-1.6-5.7,0
			c-2.5,2.5-4.3,5.4-5.5,8.6c0,0.1-0.1,0.2-0.1,0.3c-1.9,5.4-1.9,11.4,0.1,16.8c-10.3-3.5-17.7-13.3-17.7-24.7
			c0-6.3,2.3-12.4,6.4-17.1c0.6-0.6,0.9-1.4,1-2.3c1.3-11.5,6.8-22.3,15.3-30.3c0.5-0.4,0.9-0.9,1.4-1.3c5.9-5.1,12.9-8.7,20.4-10.5
			c0.5-0.1,0.9-0.2,1.4-0.3c-0.2,0.4-0.3,0.8-0.4,1.2c-0.5,1.5-0.8,3.1-1,4.8c-6.2,1.6-10.9,7.2-11.2,13.9c0,0.2,0,0.5,0,0.7
			c0,2.2,1.8,4,4,4c0.2,0,0.4,0,0.7,0c1.9-0.3,3.3-2,3.3-4c0-2.7,1.6-5.1,3.9-6.3c1,4,3.1,7.6,6.1,10.6c0.8,0.8,1.8,1.2,2.8,1.2
			c1,0,2.1-0.4,2.8-1.2c1.6-1.6,1.6-4.1,0-5.7c-2.9-2.9-4.5-6.8-4.5-10.9c0-0.1,0-0.2,0-0.2c0-3.6,1.3-7,3.6-9.7
			c0-0.1,0.1-0.1,0.1-0.1c0.3-0.1,0.5-0.3,0.7-0.5c2.5-2.2,5.2-4.1,8.1-5.6c5.8-3.1,12.3-4.7,18.9-4.7c7.2,0,14.2,1.9,20.4,5.5
			c-5.2,3.7-8.3,10.1-7.4,16.9c0.3,2,2,3.5,4,3.5c0.2,0,0.3,0,0.5,0c2.2-0.3,3.7-2.3,3.5-4.5c-0.7-5.5,3.2-10.5,8.6-11.2
			c0.2,0,0.4-0.1,0.6-0.1c1.8-0.3,3.5-0.4,5.1-0.4c16.7,0,31,11.8,34.5,27.8c-8.2,0-16,4.9-19.1,13.1c-0.8,2.1,0.2,4.4,2.3,5.2
			c0.5,0.2,0.9,0.3,1.4,0.3c1.6,0,3.1-1,3.7-2.6c2.2-5.8,8.3-8.9,14.2-7.6c0.3,0.2,0.7,0.4,1,0.5c11.2,3.7,18.7,14.1,18.7,25.9
			C538.7,453,526.5,465.3,511.4,465.3"/>
		<path style="fill:#F3F3F5;" d="M522.5,435.7c-8.2,0-14.8,6.6-14.8,14.8c0,2.2,1.8,4,4,4c2.2,0,4-1.8,4-4c0-3.7,3-6.8,6.8-6.8
			c2.2,0,4-1.8,4-4C526.5,437.4,524.7,435.7,522.5,435.7"/>
		<path style="fill:#F3F3F5;" d="M433.5,422.5c-2.2,0-4.4,0.3-6.4,1c-6.9-5.1-16.8-4.6-23.1,1.7c-1.6,1.6-1.6,4.1,0,5.7
			c1.6,1.6,4.1,1.6,5.7,0c2.4-2.4,5.9-3.3,9-2.6c-4.3,4-7,9.7-7,16c0,2.2,1.8,4,4,4c2.2,0,4-1.8,4-4c0-7.6,6.2-13.7,13.7-13.7
			c2.2,0,4-1.8,4-4C437.5,424.2,435.7,422.5,433.5,422.5"/>
		<path style="fill:#F3F3F5;" d="M482.7,411.2c-4.4,0-7.9-3.5-7.9-7.9c0-2.2-1.8-4-4-4c-2.2,0-4,1.8-4,4c0,3.2,0.9,6.2,2.6,8.7
			c-4.9,2.7-11.2,1.9-15.4-2.2c-1.6-1.6-4.1-1.6-5.7,0c-1.6,1.6-1.6,4.1,0,5.7c4.1,4.1,9.5,6.1,14.9,6.1c4.4,0,8.7-1.3,12.4-4
			c2.2,1.1,4.6,1.7,7.2,1.7c2.2,0,4-1.8,4-4C486.8,413,485,411.2,482.7,411.2"/>
		<path style="fill:#F3F3F5;" d="M475.2,474.4c0,4.3-3.5,7.8-7.8,7.8c4.3,0,7.8,3.5,7.8,7.8c0-4.3,3.5-7.8,7.8-7.8
			C478.6,482.2,475.2,478.7,475.2,474.4"/>
		<path style="fill:#F3F3F5;" d="M455.7,481.7c0,6.5-5.2,11.7-11.7,11.7c6.5,0,11.7,5.2,11.7,11.7c0-6.5,5.2-11.7,11.7-11.7
			C460.9,493.4,455.7,488.1,455.7,481.7"/>
		<path style="fill:#F3F3F5;" d="M539.6,364.4c-0.1,0-0.2,0-0.3,0c-6.2,0.1-11.2,5.1-11.4,11.3c0,0.1,0,0.3,0,0.4c0-0.1,0-0.3,0-0.4
			c-0.2-6.1-5.1-11-11.2-11.2c-0.2,0-0.3,0-0.5,0c0.1,0,0.3,0,0.4,0c6.2-0.2,11.1-5.2,11.3-11.4c0-0.1,0-0.2,0-0.3
			c0,0.1,0,0.2,0,0.3c0.2,6.2,5.2,11.2,11.3,11.3C539.4,364.4,539.5,364.4,539.6,364.4"/>
		<path style="fill:#F3F3F5;" d="M405.9,348.3c-0.1,0-0.2,0-0.3,0c-4.1,0.1-7.5,3.5-7.5,7.7c0,0,0,0.1,0,0.1c0,0,0-0.1,0-0.2
			c-0.1-4.2-3.4-7.6-7.6-7.6c0,0-0.1,0-0.2,0c0,0,0.1,0,0.1,0c4.2,0,7.5-3.4,7.6-7.5c0-0.1,0-0.2,0-0.3c0,0.1,0,0.2,0,0.3
			c0.1,4.1,3.4,7.3,7.5,7.5C405.7,348.3,405.8,348.3,405.9,348.3"/>
		<path style="fill:#F3F3F5;" d="M391.6,362.8c-8.5,0-15.4,6.8-15.6,15.3c-0.2-8.4-6.9-15.1-15.3-15.3c8.5-0.2,15.3-7.1,15.3-15.6
			C376,355.8,383,362.8,391.6,362.8"/>
		<g>
			<g>
				<defs>
					<rect id="SVGID_169_" x="306.5" y="306.4" width="285.5" height="285.5"/>
				</defs>
				<clipPath id="SVGID_31_">
					<use xlink:href="#SVGID_169_"  style="overflow:visible;"/>
				</clipPath>
				<path style="clip-path:url(#SVGID_31_);fill:#F5B037;" d="M592,449.2c0,6.5-0.4,13-1.3,19.3c-0.7,5.5-1.8,10.9-3.1,16.2
					c-14.8,57.8-64.9,101.5-126,106.7c-4.1,0.4-8.2,0.5-12.4,0.5c-78.9,0-142.8-63.9-142.8-142.8s63.9-142.8,142.8-142.8
					c78.2,0,141.6,62.8,142.7,140.7C592,447.8,592,448.5,592,449.2"/>
			</g>
		</g>
		<g>
			<g>
				<defs>
					<rect id="SVGID_171_" x="242.8" y="0" width="195.3" height="275.2"/>
				</defs>
				<clipPath id="SVGID_32_">
					<use xlink:href="#SVGID_171_"  style="overflow:visible;"/>
				</clipPath>
				<path style="clip-path:url(#SVGID_32_);fill:#31A1CF;" d="M438.2,23.7v203.8c0,10.8-3.7,20.8-9.9,28.8c-0.7,1-1.5,1.9-2.4,2.8
					c-6,6.6-14,11.5-23.1,13.9c-0.4,0.1-0.8,0.2-1.2,0.3c-20.8,5.6-42.9-3.1-53.7-21.8L246,75.1c-6.9-12-2.2-27.3,10.3-33.2
					C305.3,18.6,358.4,4.5,412.7,0C426.4-1.1,438.2,9.9,438.2,23.7"/>
			</g>
		</g>
		<g>
			<g>
				<defs>
					<rect id="SVGID_173_" x="563.4" y="74.3" width="260.7" height="260.7"/>
				</defs>
				<clipPath id="SVGID_33_">
					<use xlink:href="#SVGID_173_"  style="overflow:visible;"/>
				</clipPath>
				<path style="clip-path:url(#SVGID_33_);fill:#283957;" d="M812.5,226.7c-0.1,0.1-0.2,0.1-0.3,0.2l-3.7,2.2L714,283.6l-4,2.3
					l-74.2,42.8c-18.8,10.8-42.3,7.4-57.6-8c-0.2-0.2-0.3-0.3-0.5-0.5c-15.3-15.3-18.8-38.8-8-57.6L671.6,86.2
					c6.9-12,22.6-15.6,33.9-7.7c44.7,30.9,83.5,69.7,114.4,114.4C827.7,204.2,824.2,219.7,812.5,226.7"/>
			</g>
		</g>
		<g>
			<g>
				<defs>
					<rect id="SVGID_175_" x="623.3" y="242.8" width="275.2" height="195.3"/>
				</defs>
				<clipPath id="SVGID_34_">
					<use xlink:href="#SVGID_175_"  style="overflow:visible;"/>
				</clipPath>
				<path style="clip-path:url(#SVGID_34_);fill:#094E77;" d="M874.8,438.1H670.9c-21.5,0-40.1-14.6-45.6-35.4
					c-0.1-0.4-0.2-0.8-0.3-1.2c-5.6-20.8,3.1-42.9,21.8-53.7l176.6-102c11.9-6.9,27.3-2.2,33.2,10.3c18.8,39.6,31.6,81.9,38.2,125.3
					c0.2,1.5,0.5,3,0.7,4.5c1.2,8.8,2.2,17.7,3,26.6C899.5,426.4,888.6,438.1,874.8,438.1"/>
			</g>
		</g>
		<g>
			<g>
				<defs>
					<rect id="SVGID_183_" x="623.3" y="460.3" width="275.2" height="195.3"/>
				</defs>
				<clipPath id="SVGID_35_">
					<use xlink:href="#SVGID_183_"  style="overflow:visible;"/>
				</clipPath>
				<path style="clip-path:url(#SVGID_35_);fill:#1464A9;" d="M898.4,485.8c-2.2,27.2-6.9,54.1-13.9,80.3c-0.4,1.7-0.9,3.3-1.4,5
					c-6.8,24.4-15.7,48.2-26.6,71.1c-5.9,12.5-21.3,17.2-33.2,10.3l-8.1-4.7l-14.9-8.6l-153.6-88.7c-18.7-10.8-27.4-32.8-21.8-53.7
					c0.1-0.4,0.2-0.8,0.3-1.2c5.5-20.8,24.1-35.3,45.6-35.3h203.9c8.8,0,16.5,4.8,20.6,11.9C897.6,476.2,898.8,480.8,898.4,485.8"/>
			</g>
		</g>
		<g>
			<g>
				<path style="fill:#75C4AF;" d="M320.8,320.2c-0.2,0.2-0.3,0.3-0.5,0.5c-14.4,14.4-36,18.3-54.1,9.8c-1.2-0.6-2.4-1.2-3.5-1.8
					l-7.3-4.2L86.2,226.8c-12-6.9-15.6-22.6-7.7-33.9c30.9-44.7,69.7-83.5,114.4-114.4c11.4-7.9,27-4.2,33.9,7.7l101.8,176.4
					c2,3.5,3.5,7.1,4.6,10.8c0.6,2,1,4,1.3,6C336.7,294.1,331.8,309.3,320.8,320.2"/>
			</g>
		</g>
		<g>
			<g>
				<defs>
					<rect id="SVGID_185_" x="460.3" y="0" width="195.3" height="275.2"/>
				</defs>
				<clipPath id="SVGID_36_">
					<use xlink:href="#SVGID_185_"  style="overflow:visible;"/>
				</clipPath>
				<path style="clip-path:url(#SVGID_36_);fill:#7864AD;" d="M652.5,75.1L631,112.2l-2.9,5l-42.2,73l-2.4,4.2l-2.3,4l-30.7,53.2
					c-10.8,18.7-32.8,27.4-53.7,21.8c-0.4-0.1-0.8-0.2-1.2-0.3c-20.8-5.5-35.4-24.1-35.4-45.6V23.7c0-13.8,11.8-24.8,25.5-23.6
					c54.3,4.4,107.3,18.6,156.3,41.8C654.7,47.8,659.4,63.1,652.5,75.1"/>
			</g>
		</g>
		<g>
			<g>
				<defs>
					<rect id="SVGID_187_" x="0" y="460.3" width="275.2" height="195.3"/>
				</defs>
				<clipPath id="SVGID_37_">
					<use xlink:href="#SVGID_187_"  style="overflow:visible;"/>
				</clipPath>
				<path style="clip-path:url(#SVGID_37_);fill:#F68E2F;" d="M251.7,550.5l-29.3,16.9l-5,2.9l-98,56.6l-5,2.9l-39.4,22.7
					c-11.9,6.9-27.3,2.2-33.2-10.3c-23.2-49-37.4-102.1-41.8-156.4C-1,472,9.9,460.3,23.7,460.3h203.9c21.5,0,40.1,14.6,45.6,35.3
					c0.1,0.4,0.2,0.8,0.3,1.2C279.1,517.6,270.4,539.7,251.7,550.5"/>
			</g>
		</g>
		<g>
			<g>
				<defs>
					<rect id="SVGID_189_" x="0" y="242.8" width="275.2" height="195.3"/>
				</defs>
				<clipPath id="SVGID_38_">
					<use xlink:href="#SVGID_189_"  style="overflow:visible;"/>
				</clipPath>
				<path style="clip-path:url(#SVGID_38_);fill:#FFCF6B;" d="M273.5,401.6c-0.1,0.4-0.2,0.8-0.3,1.2c-1.9,7.4-5.6,14-10.4,19.4
					c-0.5,0.6-1,1.1-1.5,1.6c-8.6,8.9-20.7,14.3-33.7,14.3H23.7c-13.8,0-24.8-11.8-23.6-25.5c4.4-54.3,18.6-107.3,41.8-156.4
					c5.9-12.5,21.3-17.2,33.2-10.3l176.6,102C270.4,358.8,279.1,380.8,273.5,401.6"/>
			</g>
		</g>
	</g>
</g>
</svg>
