<?xml version="1.0" encoding="utf-8"?>
<!-- Generator: Adobe Illustrator 22.1.0, SVG Export Plug-In . SVG Version: 6.00 Build 0)  -->
<svg version="1.1" id="Layer_1" xmlns="http://www.w3.org/2000/svg" xmlns:xlink="http://www.w3.org/1999/xlink" x="0px" y="0px"
	 viewBox="0 0 32.8 49.8" style="enable-background:new 0 0 32.8 49.8;" xml:space="preserve">
<style type="text/css">
	.st0{fill:#FFCB61;}
	.st1{fill:#FFEB7A;}
	.st2{fill:#EB8231;}
</style>
<g>
	<g>
		<g>
			<g>
				<path class="st0" d="M3.6,48.5c0,0,12.8-8.8,6.6-13.2c-0.9-0.6,13.3-0.6,12.4,0c-6.2,4.4,6.6,13.2,6.6,13.2H3.6z"/>
				<rect x="2.2" y="47.7" class="st1" width="28.5" height="2.1"/>
			</g>
			<rect x="9.3" y="21.8" class="st1" width="14.2" height="14.2"/>
		</g>
		<g>
			<g>
				<path class="st0" d="M32.8,16.4C32.8,7.4,25.5,0,16.4,0C7.3,0,0,7.4,0,16.4c0,9.1,7.3,16.4,16.4,16.4
					C25.5,32.8,32.8,25.5,32.8,16.4z"/>
			</g>
			<g>
				<g>
					<path class="st2" d="M4.9,13.7c-0.5-2.2-1.1-4.3-1.3-6.6C3.3,7.2,3.1,7.2,2.8,7.3C1,9.9,0,13,0,16.4c0,0.1,0,0.2,0,0.2
						c0.2,0.5,0.5,0.9,0.8,1.3C2.1,16.4,3.5,15,4.9,13.7z"/>
				</g>
				<g>
					<path class="st2" d="M3.5,25.9c0,0.2,0,0.5,0,0.7c2,2.5,4.6,4.4,7.6,5.4c0.6-0.1,1.2-0.3,1.7-0.5c-1.3-1.3-2.2-3-3-4.6
						C7.7,26.8,5.6,26.4,3.5,25.9z"/>
				</g>
				<g>
					<path class="st2" d="M11.3,0.8c-0.3,0.3-0.6,0.7-0.8,1c1.9,1,3.8,2,5.6,3c1.9-1.1,3.8-2.1,5.7-3.1c-0.3-0.4-0.6-0.8-1-1.2
						C19.4,0.2,18,0,16.4,0C14.6,0,12.9,0.3,11.3,0.8z"/>
				</g>
				<g>
					<path class="st2" d="M29.5,6.5c-0.1,0-0.3-0.1-0.4-0.1c-0.2,2.2-0.7,4.3-1.2,6.4c1.4,1.4,2.9,2.8,4.1,4.4
						c0.3-0.4,0.5-0.8,0.8-1.3C32.7,12.4,31.5,9.2,29.5,6.5z"/>
				</g>
				<g>
					<path class="st2" d="M30,25.6c0-0.1,0-0.2,0-0.2c-2,0.5-4,0.9-6.1,1.1c-0.9,1.7-1.8,3.4-3.1,4.8c0.5,0.2,1,0.3,1.5,0.5
						C25.5,30.5,28.2,28.3,30,25.6z"/>
				</g>
				<g>
					<path class="st2" d="M20.7,22.6c0.9-2.6,1.8-5.2,2.6-7.8c-2.2-1.7-4.5-3.3-6.7-4.9c-2.3,1.6-4.5,3.2-6.8,4.9
						c0.8,2.7,1.7,5.3,2.6,7.9C15.2,22.7,18,22.7,20.7,22.6z"/>
				</g>
			</g>
		</g>
	</g>
</g>
</svg>
