<?xml version="1.0" encoding="utf-8"?>
<!-- Generator: Adobe Illustrator 22.1.0, SVG Export Plug-In . SVG Version: 6.00 Build 0)  -->
<svg version="1.1" id="Layer_1" xmlns="http://www.w3.org/2000/svg" xmlns:xlink="http://www.w3.org/1999/xlink" x="0px" y="0px"
	 viewBox="0 0 7.9 13.1" style="enable-background:new 0 0 7.9 13.1;" xml:space="preserve">
<style type="text/css">
	.st0{fill:#FFFFFF;}
</style>
<g>
	<path class="st0" d="M7.9,3.5c0,1.3-1.2,2.2-2.1,2.8C5.5,6.5,5.3,6.6,5.1,6.8C5,6.9,4.9,7.1,4.9,7.4C4.8,7.7,4.8,8.2,4.8,8.8V9H2.1
		V8.8c0-1.1,0-1.8,0.2-2.3c0.2-0.5,0.5-0.9,1-1.2c0.3-0.2,0.8-0.4,1.2-0.7C5,4.2,5.2,3.9,5.2,3.5c0-1.1-0.9-1.3-1.3-1.3
		c-1.1,0-1.4,0.8-1.4,1.3v0.1H0V3.5c0-0.4,0.1-0.9,0.2-1.3C0.4,1.8,0.7,1.4,1,1.1C1.7,0.4,2.7,0,3.9,0C4.5,0,5,0.1,5.5,0.2
		C6,0.4,6.4,0.7,6.8,1c0.3,0.3,0.6,0.7,0.8,1.1C7.8,2.5,7.9,3,7.9,3.5z M5.1,11.6c0,0.4-0.2,0.8-0.5,1.1c-0.3,0.3-0.7,0.4-1.2,0.4
		c-0.5,0-0.9-0.1-1.2-0.4c-0.3-0.3-0.5-0.7-0.5-1.1c0-0.4,0.2-0.8,0.5-1.1c0.3-0.3,0.7-0.4,1.2-0.4c0.4,0,0.9,0.2,1.2,0.4
		C4.9,10.8,5.1,11.2,5.1,11.6z"/>
</g>
</svg>
