<?xml version="1.0" encoding="utf-8"?>
<!-- Generator: Adobe Illustrator 22.1.0, SVG Export Plug-In . SVG Version: 6.00 Build 0)  -->
<svg version="1.1" id="Layer_1" xmlns="http://www.w3.org/2000/svg" xmlns:xlink="http://www.w3.org/1999/xlink" x="0px" y="0px"
	 viewBox="0 0 36.7 26.3" style="enable-background:new 0 0 36.7 26.3;" xml:space="preserve">
<style type="text/css">
	.st0{fill-rule:evenodd;clip-rule:evenodd;fill:#FFFFFF;}
	.st1{fill:none;stroke:#808080;stroke-width:0.9767;}
	.st2{fill:none;stroke:#808080;stroke-width:1.0057;}
	.st3{fill:none;stroke:#808080;stroke-width:1.084;}
</style>
<g>
	<g>
		<path class="st0" d="M36.2,25c0,0.4-0.4,0.8-0.8,0.8H1.3c-0.4,0-0.8-0.4-0.8-0.8V1.3c0-0.4,0.4-0.8,0.8-0.8h34.1
			c0.4,0,0.8,0.4,0.8,0.8V25z"/>
		<path class="st1" d="M36.2,25c0,0.4-0.4,0.8-0.8,0.8H1.3c-0.4,0-0.8-0.4-0.8-0.8V1.3c0-0.4,0.4-0.8,0.8-0.8h34.1
			c0.4,0,0.8,0.4,0.8,0.8V25z"/>
	</g>
	<g>
		<g>
			<path class="st2" d="M35.7,1L19.2,14.1c-0.4,0.3-0.9,0.3-1.3,0L1.2,1"/>
		</g>
	</g>
	<g>
		<g>
			<path class="st3" d="M22.7,15.1l12.9,10.4 M0.9,25.5l13.3-10.7"/>
		</g>
	</g>
</g>
</svg>
